%TF.GenerationSoftware,KiCad,Pcbnew,7.0.1*%
%TF.CreationDate,2023-07-10T14:28:26-04:00*%
%TF.ProjectId,FlightComputer,466c6967-6874-4436-9f6d-70757465722e,rev?*%
%TF.SameCoordinates,Original*%
%TF.FileFunction,Soldermask,Top*%
%TF.FilePolarity,Negative*%
%FSLAX46Y46*%
G04 Gerber Fmt 4.6, Leading zero omitted, Abs format (unit mm)*
G04 Created by KiCad (PCBNEW 7.0.1) date 2023-07-10 14:28:26*
%MOMM*%
%LPD*%
G01*
G04 APERTURE LIST*
G04 Aperture macros list*
%AMRoundRect*
0 Rectangle with rounded corners*
0 $1 Rounding radius*
0 $2 $3 $4 $5 $6 $7 $8 $9 X,Y pos of 4 corners*
0 Add a 4 corners polygon primitive as box body*
4,1,4,$2,$3,$4,$5,$6,$7,$8,$9,$2,$3,0*
0 Add four circle primitives for the rounded corners*
1,1,$1+$1,$2,$3*
1,1,$1+$1,$4,$5*
1,1,$1+$1,$6,$7*
1,1,$1+$1,$8,$9*
0 Add four rect primitives between the rounded corners*
20,1,$1+$1,$2,$3,$4,$5,0*
20,1,$1+$1,$4,$5,$6,$7,0*
20,1,$1+$1,$6,$7,$8,$9,0*
20,1,$1+$1,$8,$9,$2,$3,0*%
G04 Aperture macros list end*
%ADD10RoundRect,0.150000X-0.150000X-0.700000X0.150000X-0.700000X0.150000X0.700000X-0.150000X0.700000X0*%
%ADD11RoundRect,0.250000X-0.250000X-1.150000X0.250000X-1.150000X0.250000X1.150000X-0.250000X1.150000X0*%
%ADD12C,5.400000*%
%ADD13RoundRect,0.218750X-0.256250X0.218750X-0.256250X-0.218750X0.256250X-0.218750X0.256250X0.218750X0*%
%ADD14RoundRect,0.225000X-0.250000X0.225000X-0.250000X-0.225000X0.250000X-0.225000X0.250000X0.225000X0*%
%ADD15RoundRect,0.150000X0.512500X0.150000X-0.512500X0.150000X-0.512500X-0.150000X0.512500X-0.150000X0*%
%ADD16RoundRect,0.200000X-0.200000X-0.275000X0.200000X-0.275000X0.200000X0.275000X-0.200000X0.275000X0*%
%ADD17RoundRect,0.200000X0.200000X0.275000X-0.200000X0.275000X-0.200000X-0.275000X0.200000X-0.275000X0*%
%ADD18RoundRect,0.150000X0.150000X-0.512500X0.150000X0.512500X-0.150000X0.512500X-0.150000X-0.512500X0*%
%ADD19R,1.700000X1.700000*%
%ADD20O,1.700000X1.700000*%
%ADD21RoundRect,0.112500X-0.187500X-0.112500X0.187500X-0.112500X0.187500X0.112500X-0.187500X0.112500X0*%
%ADD22RoundRect,0.150000X-0.512500X-0.150000X0.512500X-0.150000X0.512500X0.150000X-0.512500X0.150000X0*%
%ADD23RoundRect,0.200000X0.275000X-0.200000X0.275000X0.200000X-0.275000X0.200000X-0.275000X-0.200000X0*%
%ADD24RoundRect,0.218750X0.218750X0.256250X-0.218750X0.256250X-0.218750X-0.256250X0.218750X-0.256250X0*%
%ADD25RoundRect,0.150000X0.700000X-0.150000X0.700000X0.150000X-0.700000X0.150000X-0.700000X-0.150000X0*%
%ADD26RoundRect,0.250000X1.150000X-0.250000X1.150000X0.250000X-1.150000X0.250000X-1.150000X-0.250000X0*%
%ADD27R,2.000000X1.500000*%
%ADD28R,2.000000X3.800000*%
%ADD29R,0.900000X1.000000*%
%ADD30R,1.700000X0.550000*%
%ADD31RoundRect,0.225000X-0.225000X-0.250000X0.225000X-0.250000X0.225000X0.250000X-0.225000X0.250000X0*%
%ADD32RoundRect,0.075000X-0.700000X-0.075000X0.700000X-0.075000X0.700000X0.075000X-0.700000X0.075000X0*%
%ADD33RoundRect,0.075000X-0.075000X-0.700000X0.075000X-0.700000X0.075000X0.700000X-0.075000X0.700000X0*%
%ADD34RoundRect,0.250000X-0.650000X0.325000X-0.650000X-0.325000X0.650000X-0.325000X0.650000X0.325000X0*%
%ADD35RoundRect,0.225000X0.250000X-0.225000X0.250000X0.225000X-0.250000X0.225000X-0.250000X-0.225000X0*%
%ADD36RoundRect,0.225000X0.225000X0.250000X-0.225000X0.250000X-0.225000X-0.250000X0.225000X-0.250000X0*%
%ADD37C,0.650000*%
%ADD38R,1.450000X0.600000*%
%ADD39R,1.450000X0.300000*%
%ADD40O,2.100000X1.000000*%
%ADD41O,1.600000X1.000000*%
%ADD42RoundRect,0.150000X0.150000X0.700000X-0.150000X0.700000X-0.150000X-0.700000X0.150000X-0.700000X0*%
%ADD43RoundRect,0.250000X0.250000X1.150000X-0.250000X1.150000X-0.250000X-1.150000X0.250000X-1.150000X0*%
%ADD44RoundRect,0.147500X-0.147500X-0.172500X0.147500X-0.172500X0.147500X0.172500X-0.147500X0.172500X0*%
%ADD45RoundRect,0.218750X-0.218750X-0.256250X0.218750X-0.256250X0.218750X0.256250X-0.218750X0.256250X0*%
%ADD46RoundRect,0.112500X-0.112500X0.187500X-0.112500X-0.187500X0.112500X-0.187500X0.112500X0.187500X0*%
%ADD47RoundRect,0.218750X0.256250X-0.218750X0.256250X0.218750X-0.256250X0.218750X-0.256250X-0.218750X0*%
%ADD48C,2.000000*%
%ADD49RoundRect,0.087500X-0.087500X0.125000X-0.087500X-0.125000X0.087500X-0.125000X0.087500X0.125000X0*%
%ADD50RoundRect,0.087500X-0.125000X0.087500X-0.125000X-0.087500X0.125000X-0.087500X0.125000X0.087500X0*%
%ADD51RoundRect,0.200000X-0.275000X0.200000X-0.275000X-0.200000X0.275000X-0.200000X0.275000X0.200000X0*%
%ADD52RoundRect,0.087500X-0.087500X0.225000X-0.087500X-0.225000X0.087500X-0.225000X0.087500X0.225000X0*%
%ADD53RoundRect,0.087500X-0.225000X0.087500X-0.225000X-0.087500X0.225000X-0.087500X0.225000X0.087500X0*%
%ADD54RoundRect,0.250000X0.475000X-0.250000X0.475000X0.250000X-0.475000X0.250000X-0.475000X-0.250000X0*%
%ADD55R,1.000000X1.050000*%
%ADD56R,1.050000X2.200000*%
%ADD57R,0.350000X0.375000*%
%ADD58R,0.375000X0.350000*%
%ADD59RoundRect,0.150000X-0.650000X-0.150000X0.650000X-0.150000X0.650000X0.150000X-0.650000X0.150000X0*%
%ADD60RoundRect,0.250000X0.650000X-0.325000X0.650000X0.325000X-0.650000X0.325000X-0.650000X-0.325000X0*%
%ADD61R,1.750000X3.000000*%
%ADD62RoundRect,0.250000X-0.262500X-0.450000X0.262500X-0.450000X0.262500X0.450000X-0.262500X0.450000X0*%
%ADD63RoundRect,0.150000X0.587500X0.150000X-0.587500X0.150000X-0.587500X-0.150000X0.587500X-0.150000X0*%
%ADD64R,1.800000X1.800000*%
%ADD65C,1.800000*%
%ADD66R,1.525000X0.650000*%
%ADD67R,2.600000X3.100000*%
%ADD68RoundRect,0.150000X-0.150000X0.512500X-0.150000X-0.512500X0.150000X-0.512500X0.150000X0.512500X0*%
%ADD69R,1.200000X1.400000*%
%ADD70RoundRect,0.200000X-0.200000X0.700000X-0.200000X-0.700000X0.200000X-0.700000X0.200000X0.700000X0*%
%ADD71RoundRect,0.112500X0.187500X0.112500X-0.187500X0.112500X-0.187500X-0.112500X0.187500X-0.112500X0*%
G04 APERTURE END LIST*
D10*
%TO.C,J4*%
X71200000Y-62750000D03*
X72450000Y-62750000D03*
X73700000Y-62750000D03*
X74950000Y-62750000D03*
X76200000Y-62750000D03*
D11*
X69350000Y-59400000D03*
X78050000Y-59400000D03*
%TD*%
D12*
%TO.C,H2*%
X52820000Y-115870000D03*
%TD*%
D13*
%TO.C,F7*%
X56850000Y-89862500D03*
X56850000Y-91437500D03*
%TD*%
D14*
%TO.C,C1*%
X74150000Y-76325000D03*
X74150000Y-77875000D03*
%TD*%
D15*
%TO.C,U11*%
X109194607Y-67200000D03*
X109194607Y-66250000D03*
X109194607Y-65300000D03*
X106919607Y-65300000D03*
X106919607Y-66250000D03*
X106919607Y-67200000D03*
%TD*%
D12*
%TO.C,H4*%
X128820000Y-115870000D03*
%TD*%
D16*
%TO.C,R19*%
X93325000Y-78600000D03*
X94975000Y-78600000D03*
%TD*%
D17*
%TO.C,R16*%
X56175000Y-107550000D03*
X54525000Y-107550000D03*
%TD*%
D18*
%TO.C,U12*%
X120500000Y-101837500D03*
X121450000Y-101837500D03*
X122400000Y-101837500D03*
X122400000Y-99562500D03*
X121450000Y-99562500D03*
X120500000Y-99562500D03*
%TD*%
D19*
%TO.C,J14*%
X125050000Y-104480000D03*
D20*
X127590000Y-104480000D03*
X130130000Y-104480000D03*
%TD*%
D21*
%TO.C,D4*%
X56700000Y-80800000D03*
X58800000Y-80800000D03*
%TD*%
D22*
%TO.C,U17*%
X88325000Y-109800000D03*
X88325000Y-110750000D03*
X88325000Y-111700000D03*
X90600000Y-111700000D03*
X90600000Y-110750000D03*
X90600000Y-109800000D03*
%TD*%
D13*
%TO.C,F2*%
X82350000Y-65500000D03*
X82350000Y-67075000D03*
%TD*%
D23*
%TO.C,R4*%
X77100000Y-106977000D03*
X77100000Y-105327000D03*
%TD*%
D17*
%TO.C,R5*%
X77138000Y-103892000D03*
X75488000Y-103892000D03*
%TD*%
D16*
%TO.C,R24*%
X73100000Y-109900000D03*
X74750000Y-109900000D03*
%TD*%
D22*
%TO.C,U16*%
X92862500Y-109750000D03*
X92862500Y-110700000D03*
X92862500Y-111650000D03*
X95137500Y-111650000D03*
X95137500Y-110700000D03*
X95137500Y-109750000D03*
%TD*%
D24*
%TO.C,D2*%
X108537500Y-87800000D03*
X106962500Y-87800000D03*
%TD*%
D19*
%TO.C,J11*%
X125050000Y-109560000D03*
D20*
X127590000Y-109560000D03*
X130130000Y-109560000D03*
%TD*%
D25*
%TO.C,J13*%
X54750000Y-71325000D03*
X54750000Y-70075000D03*
D26*
X51400000Y-73175000D03*
X51400000Y-68225000D03*
%TD*%
D22*
%TO.C,U15*%
X110612500Y-109600000D03*
X110612500Y-110550000D03*
X110612500Y-111500000D03*
X112887500Y-111500000D03*
X112887500Y-110550000D03*
X112887500Y-109600000D03*
%TD*%
D27*
%TO.C,U3*%
X59271899Y-63100000D03*
X59271899Y-65400000D03*
D28*
X65571899Y-65400000D03*
D27*
X59271899Y-67700000D03*
%TD*%
D17*
%TO.C,R8*%
X101275000Y-78600000D03*
X99625000Y-78600000D03*
%TD*%
D29*
%TO.C,SW1*%
X105850000Y-71800000D03*
X109950000Y-71800000D03*
X105850000Y-73400000D03*
X109950000Y-73400000D03*
D30*
X107900000Y-71175000D03*
%TD*%
D19*
%TO.C,J15*%
X125050000Y-101940000D03*
D20*
X127590000Y-101940000D03*
X130130000Y-101940000D03*
%TD*%
D12*
%TO.C,H1*%
X128820000Y-60870000D03*
%TD*%
D31*
%TO.C,C7*%
X94597489Y-80800000D03*
X96147489Y-80800000D03*
%TD*%
D32*
%TO.C,U4*%
X93717489Y-84750000D03*
X93717489Y-85250000D03*
X93717489Y-85750000D03*
X93717489Y-86250000D03*
X93717489Y-86750000D03*
X93717489Y-87250000D03*
X93717489Y-87750000D03*
X93717489Y-88250000D03*
X93717489Y-88750000D03*
X93717489Y-89250000D03*
X93717489Y-89750000D03*
X93717489Y-90250000D03*
X93717489Y-90750000D03*
X93717489Y-91250000D03*
X93717489Y-91750000D03*
X93717489Y-92250000D03*
D33*
X95642489Y-94175000D03*
X96142489Y-94175000D03*
X96642489Y-94175000D03*
X97142489Y-94175000D03*
X97642489Y-94175000D03*
X98142489Y-94175000D03*
X98642489Y-94175000D03*
X99142489Y-94175000D03*
X99642489Y-94175000D03*
X100142489Y-94175000D03*
X100642489Y-94175000D03*
X101142489Y-94175000D03*
X101642489Y-94175000D03*
X102142489Y-94175000D03*
X102642489Y-94175000D03*
X103142489Y-94175000D03*
D32*
X105067489Y-92250000D03*
X105067489Y-91750000D03*
X105067489Y-91250000D03*
X105067489Y-90750000D03*
X105067489Y-90250000D03*
X105067489Y-89750000D03*
X105067489Y-89250000D03*
X105067489Y-88750000D03*
X105067489Y-88250000D03*
X105067489Y-87750000D03*
X105067489Y-87250000D03*
X105067489Y-86750000D03*
X105067489Y-86250000D03*
X105067489Y-85750000D03*
X105067489Y-85250000D03*
X105067489Y-84750000D03*
D33*
X103142489Y-82825000D03*
X102642489Y-82825000D03*
X102142489Y-82825000D03*
X101642489Y-82825000D03*
X101142489Y-82825000D03*
X100642489Y-82825000D03*
X100142489Y-82825000D03*
X99642489Y-82825000D03*
X99142489Y-82825000D03*
X98642489Y-82825000D03*
X98142489Y-82825000D03*
X97642489Y-82825000D03*
X97142489Y-82825000D03*
X96642489Y-82825000D03*
X96142489Y-82825000D03*
X95642489Y-82825000D03*
%TD*%
D34*
%TO.C,C15*%
X66144879Y-93360000D03*
X66144879Y-96310000D03*
%TD*%
D31*
%TO.C,C21*%
X102775000Y-96200000D03*
X104325000Y-96200000D03*
%TD*%
D35*
%TO.C,C3*%
X74150000Y-74877500D03*
X74150000Y-73327500D03*
%TD*%
D36*
%TO.C,C20*%
X88225000Y-89730000D03*
X86675000Y-89730000D03*
%TD*%
D37*
%TO.C,J18*%
X126988949Y-91410000D03*
X126988949Y-85630000D03*
D38*
X125543949Y-91770000D03*
X125543949Y-90970000D03*
D39*
X125543949Y-89770000D03*
X125543949Y-88770000D03*
X125543949Y-88270000D03*
X125543949Y-87270000D03*
D38*
X125543949Y-86070000D03*
X125543949Y-85270000D03*
X125543949Y-85270000D03*
X125543949Y-86070000D03*
D39*
X125543949Y-86770000D03*
X125543949Y-87770000D03*
X125543949Y-89270000D03*
X125543949Y-90270000D03*
D38*
X125543949Y-90970000D03*
X125543949Y-91770000D03*
D40*
X126458949Y-92840000D03*
D41*
X130638949Y-92840000D03*
D40*
X126458949Y-84200000D03*
D41*
X130638949Y-84200000D03*
%TD*%
D35*
%TO.C,C18*%
X120500000Y-65150000D03*
X120500000Y-63600000D03*
%TD*%
D42*
%TO.C,J7*%
X95500000Y-113900000D03*
X94250000Y-113900000D03*
X93000000Y-113900000D03*
X91750000Y-113900000D03*
X90500000Y-113900000D03*
X89250000Y-113900000D03*
X88000000Y-113900000D03*
D43*
X97350000Y-117250000D03*
X86150000Y-117250000D03*
%TD*%
D13*
%TO.C,F9*%
X56862500Y-69712500D03*
X56862500Y-71287500D03*
%TD*%
D36*
%TO.C,C33*%
X107015000Y-111900000D03*
X105465000Y-111900000D03*
%TD*%
D16*
%TO.C,R17*%
X54500000Y-105800000D03*
X56150000Y-105800000D03*
%TD*%
D18*
%TO.C,U20*%
X121550000Y-89237500D03*
X122500000Y-89237500D03*
X123450000Y-89237500D03*
X123450000Y-86962500D03*
X122500000Y-86962500D03*
X121550000Y-86962500D03*
%TD*%
D44*
%TO.C,L3*%
X118215000Y-65175000D03*
X119185000Y-65175000D03*
%TD*%
D13*
%TO.C,F8*%
X56875000Y-77512500D03*
X56875000Y-79087500D03*
%TD*%
D15*
%TO.C,U9*%
X86387500Y-67250000D03*
X86387500Y-66300000D03*
X86387500Y-65350000D03*
X84112500Y-65350000D03*
X84112500Y-66300000D03*
X84112500Y-67250000D03*
%TD*%
D16*
%TO.C,R12*%
X110175000Y-87800000D03*
X111825000Y-87800000D03*
%TD*%
D31*
%TO.C,C6*%
X64482500Y-78125000D03*
X66032500Y-78125000D03*
%TD*%
D35*
%TO.C,C29*%
X90192489Y-90875000D03*
X90192489Y-89325000D03*
%TD*%
D25*
%TO.C,J5*%
X54750000Y-93150000D03*
X54750000Y-91900000D03*
X54750000Y-90650000D03*
X54750000Y-89400000D03*
X54750000Y-88150000D03*
X54750000Y-86900000D03*
X54750000Y-85650000D03*
D26*
X51400000Y-95000000D03*
X51400000Y-83800000D03*
%TD*%
D45*
%TO.C,L2*%
X86675000Y-91530000D03*
X88250000Y-91530000D03*
%TD*%
D36*
%TO.C,C24*%
X96667489Y-96200000D03*
X95117489Y-96200000D03*
%TD*%
D46*
%TO.C,D35*%
X64550000Y-108350000D03*
X64550000Y-110450000D03*
%TD*%
D31*
%TO.C,C11*%
X79194879Y-100910000D03*
X80744879Y-100910000D03*
%TD*%
D22*
%TO.C,U14*%
X115312500Y-109600000D03*
X115312500Y-110550000D03*
X115312500Y-111500000D03*
X117587500Y-111500000D03*
X117587500Y-110550000D03*
X117587500Y-109600000D03*
%TD*%
D47*
%TO.C,F4*%
X82718750Y-111568750D03*
X82718750Y-109993750D03*
%TD*%
D18*
%TO.C,U13*%
X120500000Y-107037500D03*
X121450000Y-107037500D03*
X122400000Y-107037500D03*
X122400000Y-104762500D03*
X121450000Y-104762500D03*
X120500000Y-104762500D03*
%TD*%
D48*
%TO.C,TP5*%
X61400000Y-103400000D03*
%TD*%
D31*
%TO.C,C31*%
X54550000Y-102225000D03*
X56100000Y-102225000D03*
%TD*%
D12*
%TO.C,H3*%
X52820000Y-60870000D03*
%TD*%
D49*
%TO.C,U5*%
X78735000Y-74787500D03*
X78235000Y-74787500D03*
D50*
X77722500Y-75050000D03*
X77722500Y-75550000D03*
X77722500Y-76050000D03*
D49*
X78235000Y-76312500D03*
X78735000Y-76312500D03*
D50*
X79247500Y-76050000D03*
X79247500Y-75550000D03*
X79247500Y-75050000D03*
%TD*%
D51*
%TO.C,R11*%
X91000000Y-74800000D03*
X91000000Y-76450000D03*
%TD*%
%TO.C,R9*%
X92850000Y-101275000D03*
X92850000Y-102925000D03*
%TD*%
D19*
%TO.C,J10*%
X125045000Y-96860000D03*
D20*
X127585000Y-96860000D03*
X130125000Y-96860000D03*
%TD*%
D42*
%TO.C,J19*%
X70475000Y-113900000D03*
X69225000Y-113900000D03*
D43*
X72325000Y-117250000D03*
X67375000Y-117250000D03*
%TD*%
D51*
%TO.C,R18*%
X66500000Y-109975000D03*
X66500000Y-111625000D03*
%TD*%
D52*
%TO.C,U2*%
X65997500Y-74387500D03*
X65497500Y-74387500D03*
X64997500Y-74387500D03*
X64497500Y-74387500D03*
D53*
X64335000Y-75050000D03*
X64335000Y-75550000D03*
X64335000Y-76050000D03*
D52*
X64497500Y-76712500D03*
X64997500Y-76712500D03*
X65497500Y-76712500D03*
X65997500Y-76712500D03*
D53*
X66160000Y-76050000D03*
X66160000Y-75550000D03*
X66160000Y-75050000D03*
%TD*%
D23*
%TO.C,R23*%
X86000000Y-73510000D03*
X86000000Y-71860000D03*
%TD*%
D31*
%TO.C,C9*%
X86700000Y-83700000D03*
X88250000Y-83700000D03*
%TD*%
D16*
%TO.C,R21*%
X70100000Y-109900000D03*
X71750000Y-109900000D03*
%TD*%
D13*
%TO.C,D37*%
X86000000Y-75197500D03*
X86000000Y-76772500D03*
%TD*%
%TO.C,F3*%
X93600000Y-65512500D03*
X93600000Y-67087500D03*
%TD*%
D35*
%TO.C,C30*%
X91817489Y-90875000D03*
X91817489Y-89325000D03*
%TD*%
%TO.C,C19*%
X91592489Y-84575000D03*
X91592489Y-83025000D03*
%TD*%
D48*
%TO.C,TP4*%
X78250000Y-83400000D03*
%TD*%
D14*
%TO.C,C32*%
X102250000Y-73725000D03*
X102250000Y-75275000D03*
%TD*%
D10*
%TO.C,J6*%
X82700000Y-62750000D03*
X83950000Y-62750000D03*
X85200000Y-62750000D03*
X86450000Y-62750000D03*
X87700000Y-62750000D03*
D11*
X80850000Y-59400000D03*
X89550000Y-59400000D03*
%TD*%
D19*
%TO.C,J16*%
X125050000Y-99400000D03*
D20*
X127590000Y-99400000D03*
X130130000Y-99400000D03*
%TD*%
D13*
%TO.C,D1*%
X90850000Y-101312500D03*
X90850000Y-102887500D03*
%TD*%
D14*
%TO.C,C13*%
X68000000Y-110025000D03*
X68000000Y-111575000D03*
%TD*%
D36*
%TO.C,C27*%
X63246899Y-60900000D03*
X61696899Y-60900000D03*
%TD*%
D54*
%TO.C,C10*%
X69613000Y-99860000D03*
X69613000Y-97960000D03*
%TD*%
D55*
%TO.C,AE1*%
X118200000Y-62275000D03*
D56*
X116725000Y-60750000D03*
X119675000Y-60750000D03*
%TD*%
D34*
%TO.C,C16*%
X63844879Y-93360000D03*
X63844879Y-96310000D03*
%TD*%
D57*
%TO.C,U1*%
X71100000Y-76317500D03*
X71600000Y-76317500D03*
X72100000Y-76317500D03*
X72600000Y-76317500D03*
D58*
X72612500Y-75805000D03*
X72612500Y-75305000D03*
D57*
X72600000Y-74792500D03*
X72100000Y-74792500D03*
X71600000Y-74792500D03*
X71100000Y-74792500D03*
D58*
X71087500Y-75305000D03*
X71087500Y-75805000D03*
%TD*%
D17*
%TO.C,R2*%
X56150000Y-104000000D03*
X54500000Y-104000000D03*
%TD*%
D48*
%TO.C,TP2*%
X123850000Y-115300000D03*
%TD*%
D31*
%TO.C,C22*%
X104875000Y-94642500D03*
X106425000Y-94642500D03*
%TD*%
D13*
%TO.C,F1*%
X70750000Y-65412500D03*
X70750000Y-66987500D03*
%TD*%
D59*
%TO.C,U7*%
X99840000Y-113695000D03*
X99840000Y-114965000D03*
X99840000Y-116235000D03*
X99840000Y-117505000D03*
X107040000Y-117505000D03*
X107040000Y-116235000D03*
X107040000Y-114965000D03*
X107040000Y-113695000D03*
%TD*%
D17*
%TO.C,R22*%
X71075000Y-111600000D03*
X69425000Y-111600000D03*
%TD*%
D35*
%TO.C,C12*%
X79194879Y-99385000D03*
X79194879Y-97835000D03*
%TD*%
D14*
%TO.C,C5*%
X62910000Y-74650000D03*
X62910000Y-76200000D03*
%TD*%
D16*
%TO.C,R6*%
X96467489Y-78600000D03*
X98117489Y-78600000D03*
%TD*%
D36*
%TO.C,C28*%
X126347502Y-81246581D03*
X124797502Y-81246581D03*
%TD*%
%TO.C,C4*%
X72620000Y-77870000D03*
X71070000Y-77870000D03*
%TD*%
D19*
%TO.C,J12*%
X125050000Y-107020000D03*
D20*
X127590000Y-107020000D03*
X130130000Y-107020000D03*
%TD*%
D21*
%TO.C,D36*%
X72300000Y-111600000D03*
X74400000Y-111600000D03*
%TD*%
%TO.C,D3*%
X56700000Y-73000000D03*
X58800000Y-73000000D03*
%TD*%
D35*
%TO.C,C26*%
X57250000Y-66175000D03*
X57250000Y-64625000D03*
%TD*%
D31*
%TO.C,C25*%
X106675000Y-83600000D03*
X108225000Y-83600000D03*
%TD*%
D34*
%TO.C,C14*%
X68453000Y-93360014D03*
X68453000Y-96310014D03*
%TD*%
D47*
%TO.C,F5*%
X97150000Y-111500000D03*
X97150000Y-109925000D03*
%TD*%
D48*
%TO.C,TP1*%
X70700000Y-83400000D03*
%TD*%
D17*
%TO.C,R14*%
X122975000Y-91400000D03*
X121325000Y-91400000D03*
%TD*%
D14*
%TO.C,C34*%
X61926758Y-94525000D03*
X61926758Y-96075000D03*
%TD*%
D60*
%TO.C,C8*%
X67313000Y-100984972D03*
X67313000Y-98034972D03*
%TD*%
D17*
%TO.C,R20*%
X104357511Y-78600000D03*
X102707511Y-78600000D03*
%TD*%
D61*
%TO.C,L1*%
X77919879Y-92610000D03*
X71169879Y-92610000D03*
%TD*%
D17*
%TO.C,R3*%
X56150000Y-109300000D03*
X54500000Y-109300000D03*
%TD*%
D62*
%TO.C,R10*%
X122087500Y-64875000D03*
X123912500Y-64875000D03*
%TD*%
D10*
%TO.C,J1*%
X105607107Y-62750000D03*
X106857107Y-62750000D03*
X108107107Y-62750000D03*
X109357107Y-62750000D03*
X110607107Y-62750000D03*
D11*
X103757107Y-59400000D03*
X112457107Y-59400000D03*
%TD*%
D42*
%TO.C,J3*%
X119035000Y-113900000D03*
X117785000Y-113900000D03*
X116535000Y-113900000D03*
X115285000Y-113900000D03*
X114035000Y-113900000D03*
X112785000Y-113900000D03*
X111535000Y-113900000D03*
D43*
X120885000Y-117250000D03*
X109685000Y-117250000D03*
%TD*%
D63*
%TO.C,Q1*%
X62550000Y-110350000D03*
X62550000Y-108450000D03*
X60675000Y-109400000D03*
%TD*%
D17*
%TO.C,R1*%
X91817489Y-87730000D03*
X90167489Y-87730000D03*
%TD*%
%TO.C,R13*%
X123050000Y-84825000D03*
X121400000Y-84825000D03*
%TD*%
D48*
%TO.C,TP3*%
X63150000Y-83400000D03*
%TD*%
D29*
%TO.C,SW2*%
X92950000Y-71800000D03*
X97050000Y-71800000D03*
X92950000Y-73400000D03*
X97050000Y-73400000D03*
D30*
X95000000Y-71175000D03*
%TD*%
D15*
%TO.C,U10*%
X97737500Y-67250000D03*
X97737500Y-66300000D03*
X97737500Y-65350000D03*
X95462500Y-65350000D03*
X95462500Y-66300000D03*
X95462500Y-67250000D03*
%TD*%
D36*
%TO.C,C2*%
X93050000Y-80800000D03*
X91500000Y-80800000D03*
%TD*%
D22*
%TO.C,U18*%
X78675000Y-109650000D03*
X78675000Y-110600000D03*
X78675000Y-111550000D03*
X80950000Y-111550000D03*
X80950000Y-110600000D03*
X80950000Y-109650000D03*
%TD*%
D15*
%TO.C,U8*%
X74787500Y-67250000D03*
X74787500Y-66300000D03*
X74787500Y-65350000D03*
X72512500Y-65350000D03*
X72512500Y-66300000D03*
X72512500Y-67250000D03*
%TD*%
D64*
%TO.C,J2*%
X59650000Y-114900000D03*
D65*
X63150000Y-114900000D03*
%TD*%
D66*
%TO.C,IC1*%
X71789000Y-98200000D03*
X71789000Y-99470000D03*
X71789000Y-100740000D03*
X71789000Y-102010000D03*
X77213000Y-102010000D03*
X77213000Y-100740000D03*
X77213000Y-99470000D03*
X77213000Y-98200000D03*
D67*
X74501000Y-100105000D03*
%TD*%
D51*
%TO.C,R7*%
X91000000Y-71750000D03*
X91000000Y-73400000D03*
%TD*%
D68*
%TO.C,U19*%
X58800000Y-85875000D03*
X57850000Y-85875000D03*
X56900000Y-85875000D03*
X56900000Y-88150000D03*
X57850000Y-88150000D03*
X58800000Y-88150000D03*
%TD*%
D69*
%TO.C,Y1*%
X86550000Y-85650000D03*
X86550000Y-87850000D03*
X88250000Y-87850000D03*
X88250000Y-85650000D03*
%TD*%
D70*
%TO.C,U6*%
X130300000Y-67035000D03*
X129200000Y-67035000D03*
X128100000Y-67035000D03*
X127000000Y-67035000D03*
X125900000Y-67035000D03*
X124800000Y-67035000D03*
X123700000Y-67035000D03*
X120700000Y-67035000D03*
X119600000Y-67035000D03*
X118500000Y-67035000D03*
X117400000Y-67035000D03*
X116300000Y-67035000D03*
X116300000Y-79035000D03*
X117400000Y-79035000D03*
X118500000Y-79035000D03*
X119600000Y-79035000D03*
X120700000Y-79035000D03*
X123700000Y-79035000D03*
X124800000Y-79035000D03*
X125900000Y-79035000D03*
X127000000Y-79035000D03*
X128100000Y-79035000D03*
X129200000Y-79035000D03*
X130300000Y-79035000D03*
%TD*%
D47*
%TO.C,F6*%
X119350000Y-111387500D03*
X119350000Y-109812500D03*
%TD*%
D14*
%TO.C,C17*%
X80715000Y-74775000D03*
X80715000Y-76325000D03*
%TD*%
D17*
%TO.C,R15*%
X101365000Y-111900000D03*
X99715000Y-111900000D03*
%TD*%
D42*
%TO.C,J9*%
X81750000Y-113900000D03*
X80500000Y-113900000D03*
X79250000Y-113900000D03*
X78000000Y-113900000D03*
X76750000Y-113900000D03*
D43*
X83600000Y-117250000D03*
X74900000Y-117250000D03*
%TD*%
D25*
%TO.C,J17*%
X54750000Y-79100000D03*
X54750000Y-77850000D03*
D26*
X51400000Y-80950000D03*
X51400000Y-76000000D03*
%TD*%
D10*
%TO.C,J8*%
X94150000Y-62750000D03*
X95400000Y-62750000D03*
X96650000Y-62750000D03*
X97900000Y-62750000D03*
X99150000Y-62750000D03*
D11*
X92300000Y-59400000D03*
X101000000Y-59400000D03*
%TD*%
D71*
%TO.C,D5*%
X116950000Y-64700000D03*
X114850000Y-64700000D03*
%TD*%
M02*
