%TF.GenerationSoftware,KiCad,Pcbnew,7.0.1*%
%TF.CreationDate,2023-07-10T14:28:22-04:00*%
%TF.ProjectId,FlightComputer,466c6967-6874-4436-9f6d-70757465722e,rev?*%
%TF.SameCoordinates,Original*%
%TF.FileFunction,Drillmap*%
%TF.FilePolarity,Positive*%
%FSLAX45Y45*%
G04 Gerber Fmt 4.5, Leading zero omitted, Abs format (unit mm)*
G04 Created by KiCad (PCBNEW 7.0.1) date 2023-07-10 14:28:22*
%MOMM*%
%LPD*%
G01*
G04 APERTURE LIST*
%ADD10C,0.100000*%
%ADD11C,0.200000*%
%ADD12C,0.040000*%
%ADD13C,0.060000*%
%ADD14C,0.120000*%
%ADD15C,0.270000*%
G04 APERTURE END LIST*
D10*
X5282000Y-5737000D02*
G75*
G03*
X4932000Y-6087000I0J-350000D01*
G01*
X13232000Y-6087000D02*
G75*
G03*
X12882000Y-5737000I-350000J0D01*
G01*
X5282000Y-5737000D02*
X12882000Y-5737000D01*
X4932000Y-11587000D02*
X4932000Y-6087000D01*
X12882000Y-11937000D02*
G75*
G03*
X13232000Y-11587000I0J350000D01*
G01*
X13232000Y-6087000D02*
X13232000Y-11587000D01*
X5282000Y-11937000D02*
X12882000Y-11937000D01*
X4932000Y-11587000D02*
G75*
G03*
X5282000Y-11937000I350000J0D01*
G01*
D11*
D12*
X5050000Y-6440000D02*
X5090000Y-6480000D01*
X5090000Y-6440000D02*
X5050000Y-6480000D01*
X5060000Y-7030000D02*
X5100000Y-7070000D01*
X5100000Y-7030000D02*
X5060000Y-7070000D01*
X5060000Y-7810000D02*
X5100000Y-7850000D01*
X5100000Y-7810000D02*
X5060000Y-7850000D01*
X5060000Y-11170000D02*
X5100000Y-11210000D01*
X5100000Y-11170000D02*
X5060000Y-11210000D01*
X5065000Y-10080000D02*
X5105000Y-10120000D01*
X5105000Y-10080000D02*
X5065000Y-10120000D01*
X5075000Y-8655000D02*
X5115000Y-8695000D01*
X5115000Y-8655000D02*
X5075000Y-8695000D01*
X5075000Y-8915000D02*
X5115000Y-8955000D01*
X5115000Y-8915000D02*
X5075000Y-8955000D01*
X5075000Y-9175000D02*
X5115000Y-9215000D01*
X5115000Y-9175000D02*
X5075000Y-9215000D01*
X5155000Y-6620000D02*
X5195000Y-6660000D01*
X5195000Y-6620000D02*
X5155000Y-6660000D01*
X5155000Y-7440000D02*
X5195000Y-7480000D01*
X5195000Y-7440000D02*
X5155000Y-7480000D01*
X5155000Y-8250000D02*
X5195000Y-8290000D01*
X5195000Y-8250000D02*
X5155000Y-8290000D01*
X5245000Y-8655000D02*
X5285000Y-8695000D01*
X5285000Y-8655000D02*
X5245000Y-8695000D01*
X5245000Y-8825000D02*
X5285000Y-8865000D01*
X5285000Y-8825000D02*
X5245000Y-8865000D01*
X5295000Y-9305000D02*
X5335000Y-9345000D01*
X5335000Y-9305000D02*
X5295000Y-9345000D01*
X5305000Y-9160000D02*
X5345000Y-9200000D01*
X5345000Y-9160000D02*
X5305000Y-9200000D01*
X5315000Y-6620000D02*
X5355000Y-6660000D01*
X5355000Y-6620000D02*
X5315000Y-6660000D01*
X5342500Y-10820000D02*
X5382500Y-10860000D01*
X5382500Y-10820000D02*
X5342500Y-10860000D01*
X5355000Y-7440000D02*
X5395000Y-7480000D01*
X5395000Y-7440000D02*
X5355000Y-7480000D01*
X5355000Y-8250000D02*
X5395000Y-8290000D01*
X5395000Y-8250000D02*
X5355000Y-8290000D01*
X5375000Y-9970000D02*
X5415000Y-10010000D01*
X5415000Y-9970000D02*
X5375000Y-10010000D01*
X5430000Y-10092500D02*
X5470000Y-10132500D01*
X5470000Y-10092500D02*
X5430000Y-10132500D01*
X5430000Y-11020000D02*
X5470000Y-11060000D01*
X5470000Y-11020000D02*
X5430000Y-11060000D01*
X5486250Y-6890000D02*
X5526250Y-6930000D01*
X5526250Y-6890000D02*
X5486250Y-6930000D01*
X5507500Y-7680000D02*
X5547500Y-7720000D01*
X5547500Y-7680000D02*
X5507500Y-7720000D01*
X5535000Y-6730000D02*
X5575000Y-6770000D01*
X5575000Y-6730000D02*
X5535000Y-6770000D01*
X5555000Y-7440000D02*
X5595000Y-7480000D01*
X5595000Y-7440000D02*
X5555000Y-7480000D01*
X5555000Y-8250000D02*
X5595000Y-8290000D01*
X5595000Y-8250000D02*
X5555000Y-8290000D01*
X5585000Y-9445000D02*
X5625000Y-9485000D01*
X5625000Y-9445000D02*
X5585000Y-9485000D01*
X5585000Y-9555000D02*
X5625000Y-9595000D01*
X5625000Y-9555000D02*
X5585000Y-9595000D01*
X5590000Y-10090000D02*
X5630000Y-10130000D01*
X5630000Y-10090000D02*
X5590000Y-10130000D01*
X5622313Y-8445000D02*
X5662313Y-8485000D01*
X5662313Y-8445000D02*
X5622313Y-8485000D01*
X5640000Y-11750000D02*
X5680000Y-11790000D01*
X5680000Y-11750000D02*
X5640000Y-11790000D01*
X5665000Y-6730000D02*
X5705000Y-6770000D01*
X5705000Y-6730000D02*
X5665000Y-6770000D01*
X5665000Y-6840000D02*
X5705000Y-6880000D01*
X5705000Y-6840000D02*
X5665000Y-6880000D01*
X5665000Y-9280000D02*
X5705000Y-9320000D01*
X5705000Y-9280000D02*
X5665000Y-9320000D01*
X5670000Y-7610000D02*
X5710000Y-7650000D01*
X5710000Y-7610000D02*
X5670000Y-7650000D01*
X5687190Y-6322500D02*
X5727190Y-6362500D01*
X5727190Y-6322500D02*
X5687190Y-6362500D01*
X5705000Y-9445000D02*
X5745000Y-9485000D01*
X5745000Y-9445000D02*
X5705000Y-9485000D01*
X5705000Y-9555000D02*
X5745000Y-9595000D01*
X5745000Y-9555000D02*
X5705000Y-9595000D01*
X5710000Y-10650000D02*
X5750000Y-10690000D01*
X5750000Y-10650000D02*
X5710000Y-10690000D01*
X5740000Y-5900000D02*
X5780000Y-5940000D01*
X5780000Y-5900000D02*
X5740000Y-5940000D01*
X5795000Y-9280000D02*
X5835000Y-9320000D01*
X5835000Y-9280000D02*
X5795000Y-9320000D01*
X5925000Y-9150000D02*
X5965000Y-9190000D01*
X5965000Y-9150000D02*
X5925000Y-9190000D01*
X5925000Y-9280000D02*
X5965000Y-9320000D01*
X5965000Y-9280000D02*
X5925000Y-9320000D01*
X5955000Y-7280000D02*
X5995000Y-7320000D01*
X5995000Y-7280000D02*
X5955000Y-7320000D01*
X5955000Y-8060000D02*
X5995000Y-8100000D01*
X5995000Y-8060000D02*
X5955000Y-8100000D01*
X5970000Y-7060000D02*
X6010000Y-7100000D01*
X6010000Y-7060000D02*
X5970000Y-7100000D01*
X5975000Y-8635000D02*
X6015000Y-8675000D01*
X6015000Y-8635000D02*
X5975000Y-8675000D01*
X5975000Y-8720050D02*
X6015000Y-8760050D01*
X6015000Y-8720050D02*
X5975000Y-8760050D01*
X6000000Y-7770000D02*
X6040000Y-7810000D01*
X6040000Y-7770000D02*
X6000000Y-7810000D01*
X6030000Y-6070000D02*
X6070000Y-6110000D01*
X6070000Y-6070000D02*
X6030000Y-6110000D01*
X6041300Y-9750000D02*
X6081300Y-9790000D01*
X6081300Y-9750000D02*
X6041300Y-9790000D01*
X6055000Y-9150000D02*
X6095000Y-9190000D01*
X6095000Y-9150000D02*
X6055000Y-9190000D01*
X6055000Y-9280000D02*
X6095000Y-9320000D01*
X6095000Y-9280000D02*
X6055000Y-9320000D01*
X6067190Y-6230000D02*
X6107190Y-6270000D01*
X6107190Y-6230000D02*
X6067190Y-6270000D01*
X6067190Y-6330000D02*
X6107190Y-6370000D01*
X6107190Y-6330000D02*
X6067190Y-6370000D01*
X6107190Y-6480000D02*
X6147190Y-6520000D01*
X6147190Y-6480000D02*
X6107190Y-6520000D01*
X6107190Y-6590000D02*
X6147190Y-6630000D01*
X6147190Y-6590000D02*
X6107190Y-6630000D01*
X6177190Y-6230000D02*
X6217190Y-6270000D01*
X6217190Y-6230000D02*
X6177190Y-6270000D01*
X6177190Y-6330000D02*
X6217190Y-6370000D01*
X6217190Y-6330000D02*
X6177190Y-6370000D01*
X6185000Y-9150000D02*
X6225000Y-9190000D01*
X6225000Y-9150000D02*
X6185000Y-9190000D01*
X6185000Y-9280000D02*
X6225000Y-9320000D01*
X6225000Y-9280000D02*
X6185000Y-9320000D01*
X6185000Y-11720000D02*
X6225000Y-11760000D01*
X6225000Y-11720000D02*
X6185000Y-11760000D01*
X6201300Y-9750000D02*
X6241300Y-9790000D01*
X6241300Y-9750000D02*
X6201300Y-9790000D01*
X6225000Y-6480000D02*
X6265000Y-6520000D01*
X6265000Y-6480000D02*
X6225000Y-6520000D01*
X6225000Y-6590000D02*
X6265000Y-6630000D01*
X6265000Y-6590000D02*
X6225000Y-6630000D01*
X6255000Y-11250000D02*
X6295000Y-11290000D01*
X6295000Y-11250000D02*
X6255000Y-11290000D01*
X6271000Y-7348750D02*
X6311000Y-7388750D01*
X6311000Y-7348750D02*
X6271000Y-7388750D01*
X6271000Y-7692500D02*
X6311000Y-7732500D01*
X6311000Y-7692500D02*
X6271000Y-7732500D01*
X6326500Y-7792500D02*
X6366500Y-7832500D01*
X6366500Y-7792500D02*
X6326500Y-7832500D01*
X6345000Y-6480000D02*
X6385000Y-6520000D01*
X6385000Y-6480000D02*
X6345000Y-6520000D01*
X6345000Y-6590000D02*
X6385000Y-6630000D01*
X6385000Y-6590000D02*
X6345000Y-6630000D01*
X6361300Y-9750000D02*
X6401300Y-9790000D01*
X6401300Y-9750000D02*
X6361300Y-9790000D01*
X6395000Y-8660000D02*
X6435000Y-8700000D01*
X6435000Y-8660000D02*
X6395000Y-8700000D01*
X6408750Y-7099500D02*
X6448750Y-7139500D01*
X6448750Y-7099500D02*
X6408750Y-7139500D01*
X6425000Y-11720000D02*
X6465000Y-11760000D01*
X6465000Y-11720000D02*
X6425000Y-11760000D01*
X6475000Y-6050000D02*
X6515000Y-6090000D01*
X6515000Y-6050000D02*
X6475000Y-6090000D01*
X6475000Y-6155000D02*
X6515000Y-6195000D01*
X6515000Y-6155000D02*
X6475000Y-6195000D01*
X6475000Y-6255000D02*
X6515000Y-6295000D01*
X6515000Y-6255000D02*
X6475000Y-6295000D01*
X6477190Y-6795000D02*
X6517190Y-6835000D01*
X6517190Y-6795000D02*
X6477190Y-6835000D01*
X6579750Y-7320950D02*
X6619750Y-7360950D01*
X6619750Y-7320950D02*
X6579750Y-7360950D01*
X6585000Y-11500000D02*
X6625000Y-11540000D01*
X6625000Y-11500000D02*
X6585000Y-11540000D01*
X6587190Y-6795000D02*
X6627190Y-6835000D01*
X6627190Y-6795000D02*
X6587190Y-6835000D01*
X6595000Y-6050000D02*
X6635000Y-6090000D01*
X6635000Y-6050000D02*
X6595000Y-6090000D01*
X6595000Y-6155000D02*
X6635000Y-6195000D01*
X6635000Y-6155000D02*
X6595000Y-6195000D01*
X6595000Y-6255000D02*
X6635000Y-6295000D01*
X6635000Y-6255000D02*
X6595000Y-6295000D01*
X6595000Y-8660000D02*
X6635000Y-8700000D01*
X6635000Y-8660000D02*
X6595000Y-8700000D01*
X6608750Y-7099500D02*
X6648750Y-7139500D01*
X6648750Y-7099500D02*
X6608750Y-7139500D01*
X6635000Y-11250000D02*
X6675000Y-11290000D01*
X6675000Y-11250000D02*
X6635000Y-11290000D01*
X6678800Y-7660000D02*
X6718800Y-7700000D01*
X6718800Y-7660000D02*
X6678800Y-7700000D01*
X6686000Y-7792500D02*
X6726000Y-7832500D01*
X6726000Y-7792500D02*
X6686000Y-7832500D01*
X6765000Y-5871000D02*
X6805000Y-5911000D01*
X6805000Y-5871000D02*
X6765000Y-5911000D01*
X6775000Y-7404250D02*
X6815000Y-7444250D01*
X6815000Y-7404250D02*
X6775000Y-7444250D01*
X6785000Y-11250000D02*
X6825000Y-11290000D01*
X6825000Y-11250000D02*
X6785000Y-11290000D01*
X6795000Y-6600000D02*
X6835000Y-6640000D01*
X6835000Y-6600000D02*
X6795000Y-6640000D01*
X6795000Y-8660000D02*
X6835000Y-8700000D01*
X6835000Y-8660000D02*
X6795000Y-8700000D01*
X6805000Y-11340000D02*
X6845000Y-11380000D01*
X6845000Y-11340000D02*
X6805000Y-11380000D01*
X6895000Y-10982500D02*
X6935000Y-11022500D01*
X6935000Y-10982500D02*
X6895000Y-11022500D01*
X6955000Y-6679000D02*
X6995000Y-6719000D01*
X6995000Y-6679000D02*
X6955000Y-6719000D01*
X6975000Y-6320000D02*
X7015000Y-6360000D01*
X7015000Y-6320000D02*
X6975000Y-6360000D01*
X6977500Y-11760000D02*
X7017500Y-11800000D01*
X7017500Y-11760000D02*
X6977500Y-11800000D01*
X6994500Y-7767294D02*
X7034500Y-7807294D01*
X7034500Y-7767294D02*
X6994500Y-7807294D01*
X7018750Y-7612500D02*
X7058750Y-7652500D01*
X7058750Y-7612500D02*
X7018750Y-7652500D01*
X7055000Y-7160000D02*
X7095000Y-7200000D01*
X7095000Y-7160000D02*
X7055000Y-7200000D01*
X7055000Y-7370000D02*
X7095000Y-7410000D01*
X7095000Y-7370000D02*
X7055000Y-7410000D01*
X7125000Y-5861000D02*
X7165000Y-5901000D01*
X7165000Y-5861000D02*
X7125000Y-5901000D01*
X7125000Y-6790000D02*
X7165000Y-6830000D01*
X7165000Y-6790000D02*
X7125000Y-6830000D01*
X7176265Y-7371265D02*
X7216265Y-7411265D01*
X7216265Y-7371265D02*
X7176265Y-7411265D01*
X7205000Y-7160000D02*
X7245000Y-7200000D01*
X7245000Y-7160000D02*
X7205000Y-7200000D01*
X7231250Y-6410000D02*
X7271250Y-6450000D01*
X7271250Y-6410000D02*
X7231250Y-6450000D01*
X7285000Y-7310000D02*
X7325000Y-7350000D01*
X7325000Y-7310000D02*
X7285000Y-7350000D01*
X7315000Y-7535000D02*
X7355000Y-7575000D01*
X7355000Y-7535000D02*
X7315000Y-7575000D01*
X7345000Y-11750000D02*
X7385000Y-11790000D01*
X7385000Y-11750000D02*
X7345000Y-11790000D01*
X7375000Y-9891000D02*
X7415000Y-9931000D01*
X7415000Y-9891000D02*
X7375000Y-9931000D01*
X7375000Y-9986000D02*
X7415000Y-10026000D01*
X7415000Y-9986000D02*
X7375000Y-10026000D01*
X7375000Y-10081000D02*
X7415000Y-10121000D01*
X7415000Y-10081000D02*
X7375000Y-10121000D01*
X7395000Y-7870000D02*
X7435000Y-7910000D01*
X7435000Y-7870000D02*
X7395000Y-7910000D01*
X7425000Y-10330000D02*
X7465000Y-10370000D01*
X7465000Y-10330000D02*
X7425000Y-10370000D01*
X7456000Y-5861000D02*
X7496000Y-5901000D01*
X7496000Y-5861000D02*
X7456000Y-5901000D01*
X7475000Y-9891000D02*
X7515000Y-9931000D01*
X7515000Y-9891000D02*
X7475000Y-9931000D01*
X7475000Y-9986000D02*
X7515000Y-10026000D01*
X7515000Y-9986000D02*
X7475000Y-10026000D01*
X7475000Y-10081000D02*
X7515000Y-10121000D01*
X7515000Y-10081000D02*
X7475000Y-10121000D01*
X7495000Y-7090000D02*
X7535000Y-7130000D01*
X7535000Y-7090000D02*
X7495000Y-7130000D01*
X7495000Y-10860000D02*
X7535000Y-10900000D01*
X7535000Y-10860000D02*
X7495000Y-10900000D01*
X7515000Y-11140000D02*
X7555000Y-11180000D01*
X7555000Y-11140000D02*
X7515000Y-11180000D01*
X7565000Y-11310000D02*
X7605000Y-11350000D01*
X7605000Y-11310000D02*
X7565000Y-11350000D01*
X7585000Y-6660000D02*
X7625000Y-6700000D01*
X7625000Y-6660000D02*
X7585000Y-6700000D01*
X7585000Y-6790000D02*
X7625000Y-6830000D01*
X7625000Y-6790000D02*
X7585000Y-6830000D01*
X7668750Y-7620000D02*
X7708750Y-7660000D01*
X7708750Y-7620000D02*
X7668750Y-7660000D01*
X7690000Y-10771000D02*
X7730000Y-10811000D01*
X7730000Y-10771000D02*
X7690000Y-10811000D01*
X7695000Y-6330000D02*
X7735000Y-6370000D01*
X7735000Y-6330000D02*
X7695000Y-6370000D01*
X7714750Y-7379500D02*
X7754750Y-7419500D01*
X7754750Y-7379500D02*
X7714750Y-7419500D01*
X7715000Y-7200000D02*
X7755000Y-7240000D01*
X7755000Y-7200000D02*
X7715000Y-7240000D01*
X7775000Y-7710000D02*
X7815000Y-7750000D01*
X7815000Y-7710000D02*
X7775000Y-7750000D01*
X7803500Y-6880000D02*
X7843500Y-6920000D01*
X7843500Y-6880000D02*
X7803500Y-6920000D01*
X7803500Y-7120000D02*
X7843500Y-7160000D01*
X7843500Y-7120000D02*
X7803500Y-7160000D01*
X7820000Y-8660000D02*
X7860000Y-8700000D01*
X7860000Y-8660000D02*
X7820000Y-8700000D01*
X7847500Y-11237500D02*
X7887500Y-11277500D01*
X7887500Y-11237500D02*
X7847500Y-11277500D01*
X7885000Y-7710000D02*
X7925000Y-7750000D01*
X7925000Y-7710000D02*
X7885000Y-7750000D01*
X7925000Y-6620000D02*
X7965000Y-6660000D01*
X7965000Y-6620000D02*
X7925000Y-6660000D01*
X7934750Y-7380000D02*
X7974750Y-7420000D01*
X7974750Y-7380000D02*
X7934750Y-7420000D01*
X7945000Y-7080000D02*
X7985000Y-7120000D01*
X7985000Y-7080000D02*
X7945000Y-7120000D01*
X8011988Y-10186999D02*
X8051988Y-10226999D01*
X8051988Y-10186999D02*
X8011988Y-10226999D01*
X8015000Y-11770000D02*
X8055000Y-11810000D01*
X8055000Y-11770000D02*
X8015000Y-11810000D01*
X8020000Y-8660000D02*
X8060000Y-8700000D01*
X8060000Y-8660000D02*
X8020000Y-8700000D01*
X8049488Y-9921000D02*
X8089488Y-9961000D01*
X8089488Y-9921000D02*
X8049488Y-9961000D01*
X8051500Y-7709750D02*
X8091500Y-7749750D01*
X8091500Y-7709750D02*
X8051500Y-7749750D01*
X8056250Y-11221250D02*
X8096250Y-11261250D01*
X8096250Y-11221250D02*
X8056250Y-11261250D01*
X8095000Y-8010000D02*
X8135000Y-8050000D01*
X8135000Y-8010000D02*
X8095000Y-8050000D01*
X8105000Y-10840000D02*
X8145000Y-10880000D01*
X8145000Y-10840000D02*
X8105000Y-10880000D01*
X8115000Y-6687500D02*
X8155000Y-6727500D01*
X8155000Y-6687500D02*
X8115000Y-6727500D01*
X8125000Y-6300000D02*
X8165000Y-6340000D01*
X8165000Y-6300000D02*
X8125000Y-6340000D01*
X8135000Y-10730000D02*
X8175000Y-10770000D01*
X8175000Y-10730000D02*
X8135000Y-10770000D01*
X8156500Y-7458000D02*
X8196500Y-7498000D01*
X8196500Y-7458000D02*
X8156500Y-7498000D01*
X8164488Y-10011000D02*
X8204488Y-10051000D01*
X8204488Y-10011000D02*
X8164488Y-10051000D01*
X8164488Y-10131000D02*
X8204488Y-10171000D01*
X8204488Y-10131000D02*
X8164488Y-10171000D01*
X8193188Y-9320000D02*
X8233188Y-9360000D01*
X8233188Y-9320000D02*
X8193188Y-9360000D01*
X8193188Y-9460000D02*
X8233188Y-9500000D01*
X8233188Y-9460000D02*
X8193188Y-9500000D01*
X8195000Y-9600000D02*
X8235000Y-9640000D01*
X8235000Y-9600000D02*
X8195000Y-9640000D01*
X8220000Y-8660000D02*
X8260000Y-8700000D01*
X8260000Y-8660000D02*
X8220000Y-8700000D01*
X8285000Y-6790000D02*
X8325000Y-6830000D01*
X8325000Y-6790000D02*
X8285000Y-6830000D01*
X8345000Y-7410000D02*
X8385000Y-7450000D01*
X8385000Y-7410000D02*
X8345000Y-7450000D01*
X8345000Y-9460000D02*
X8385000Y-9500000D01*
X8385000Y-9460000D02*
X8345000Y-9500000D01*
X8345000Y-9600000D02*
X8385000Y-9640000D01*
X8385000Y-9600000D02*
X8345000Y-9640000D01*
X8351875Y-10978125D02*
X8391875Y-11018125D01*
X8391875Y-10978125D02*
X8351875Y-11018125D01*
X8375000Y-6410000D02*
X8415000Y-6450000D01*
X8415000Y-6410000D02*
X8375000Y-6450000D01*
X8465000Y-11760000D02*
X8505000Y-11800000D01*
X8505000Y-11760000D02*
X8465000Y-11800000D01*
X8495000Y-8200000D02*
X8535000Y-8240000D01*
X8535000Y-8200000D02*
X8495000Y-8240000D01*
X8505000Y-8350000D02*
X8545000Y-8390000D01*
X8545000Y-8350000D02*
X8505000Y-8390000D01*
X8515000Y-8770000D02*
X8555000Y-8810000D01*
X8555000Y-8770000D02*
X8515000Y-8810000D01*
X8550000Y-9233000D02*
X8590000Y-9273000D01*
X8590000Y-9233000D02*
X8550000Y-9273000D01*
X8551250Y-9133000D02*
X8591250Y-9173000D01*
X8591250Y-9133000D02*
X8551250Y-9173000D01*
X8555000Y-8953000D02*
X8595000Y-8993000D01*
X8595000Y-8953000D02*
X8555000Y-8993000D01*
X8570000Y-9445000D02*
X8610000Y-9485000D01*
X8610000Y-9445000D02*
X8570000Y-9485000D01*
X8580000Y-7060000D02*
X8620000Y-7100000D01*
X8620000Y-7060000D02*
X8580000Y-7100000D01*
X8580000Y-7790000D02*
X8620000Y-7830000D01*
X8620000Y-7790000D02*
X8580000Y-7830000D01*
X8625000Y-10360000D02*
X8665000Y-10400000D01*
X8665000Y-10360000D02*
X8625000Y-10400000D01*
X8660000Y-10860000D02*
X8700000Y-10900000D01*
X8700000Y-10860000D02*
X8660000Y-10900000D01*
X8665000Y-8090000D02*
X8705000Y-8130000D01*
X8705000Y-8090000D02*
X8665000Y-8130000D01*
X8665000Y-9860000D02*
X8705000Y-9900000D01*
X8705000Y-9860000D02*
X8665000Y-9900000D01*
X8675000Y-11030000D02*
X8715000Y-11070000D01*
X8715000Y-11030000D02*
X8675000Y-11070000D01*
X8675000Y-11150000D02*
X8715000Y-11190000D01*
X8715000Y-11150000D02*
X8675000Y-11190000D01*
X8680000Y-11320000D02*
X8720000Y-11360000D01*
X8720000Y-11320000D02*
X8680000Y-11360000D01*
X8725000Y-6790000D02*
X8765000Y-6830000D01*
X8765000Y-6790000D02*
X8725000Y-6830000D01*
X8743031Y-6641853D02*
X8783031Y-6681853D01*
X8783031Y-6641853D02*
X8743031Y-6681853D01*
X8755000Y-7450000D02*
X8795000Y-7490000D01*
X8795000Y-7450000D02*
X8755000Y-7490000D01*
X8760000Y-11760000D02*
X8800000Y-11800000D01*
X8800000Y-11760000D02*
X8760000Y-11800000D01*
X8845000Y-6320000D02*
X8885000Y-6360000D01*
X8885000Y-6320000D02*
X8845000Y-6360000D01*
X8875000Y-9270000D02*
X8915000Y-9310000D01*
X8915000Y-9270000D02*
X8875000Y-9310000D01*
X8875000Y-10860000D02*
X8915000Y-10900000D01*
X8915000Y-10860000D02*
X8875000Y-10900000D01*
X8905000Y-8400000D02*
X8945000Y-8440000D01*
X8945000Y-8400000D02*
X8905000Y-8440000D01*
X8920000Y-8913000D02*
X8960000Y-8953000D01*
X8960000Y-8913000D02*
X8920000Y-8953000D01*
X8925000Y-8545000D02*
X8965000Y-8585000D01*
X8965000Y-8545000D02*
X8925000Y-8585000D01*
X8985000Y-10860000D02*
X9025000Y-10900000D01*
X9025000Y-10860000D02*
X8985000Y-10900000D01*
X9045000Y-6510000D02*
X9085000Y-6550000D01*
X9085000Y-6510000D02*
X9045000Y-6550000D01*
X9060000Y-10366875D02*
X9100000Y-10406875D01*
X9100000Y-10366875D02*
X9060000Y-10406875D01*
X9080000Y-7722500D02*
X9120000Y-7762500D01*
X9120000Y-7722500D02*
X9080000Y-7762500D01*
X9080000Y-8913000D02*
X9120000Y-8953000D01*
X9120000Y-8913000D02*
X9080000Y-8953000D01*
X9145000Y-9600000D02*
X9185000Y-9640000D01*
X9185000Y-9600000D02*
X9145000Y-9640000D01*
X9155000Y-7050000D02*
X9195000Y-7090000D01*
X9195000Y-7050000D02*
X9155000Y-7090000D01*
X9155000Y-7950000D02*
X9195000Y-7990000D01*
X9195000Y-7950000D02*
X9155000Y-7990000D01*
X9175000Y-9790000D02*
X9215000Y-9830000D01*
X9215000Y-9790000D02*
X9175000Y-9830000D01*
X9235000Y-8420000D02*
X9275000Y-8460000D01*
X9275000Y-8420000D02*
X9235000Y-8460000D01*
X9240000Y-6688750D02*
X9280000Y-6728750D01*
X9280000Y-6688750D02*
X9240000Y-6728750D01*
X9255000Y-8300000D02*
X9295000Y-8340000D01*
X9295000Y-8300000D02*
X9255000Y-8340000D01*
X9265000Y-10365000D02*
X9305000Y-10405000D01*
X9305000Y-10365000D02*
X9265000Y-10405000D01*
X9275000Y-6300000D02*
X9315000Y-6340000D01*
X9315000Y-6300000D02*
X9275000Y-6340000D01*
X9280000Y-11230000D02*
X9320000Y-11270000D01*
X9320000Y-11230000D02*
X9280000Y-11270000D01*
X9295000Y-7960000D02*
X9335000Y-8000000D01*
X9335000Y-7960000D02*
X9295000Y-8000000D01*
X9380000Y-7460000D02*
X9420000Y-7500000D01*
X9420000Y-7460000D02*
X9380000Y-7500000D01*
X9420000Y-10765000D02*
X9460000Y-10805000D01*
X9460000Y-10765000D02*
X9420000Y-10805000D01*
X9425000Y-6790000D02*
X9465000Y-6830000D01*
X9465000Y-6790000D02*
X9425000Y-6830000D01*
X9435000Y-7960000D02*
X9475000Y-8000000D01*
X9475000Y-7960000D02*
X9435000Y-8000000D01*
X9440000Y-8170000D02*
X9480000Y-8210000D01*
X9480000Y-8170000D02*
X9440000Y-8210000D01*
X9470000Y-11233750D02*
X9510000Y-11273750D01*
X9510000Y-11233750D02*
X9470000Y-11273750D01*
X9479950Y-9720000D02*
X9519950Y-9760000D01*
X9519950Y-9720000D02*
X9479950Y-9760000D01*
X9480000Y-7460000D02*
X9520000Y-7500000D01*
X9520000Y-7460000D02*
X9480000Y-7500000D01*
X9515000Y-8505000D02*
X9555000Y-8545000D01*
X9555000Y-8505000D02*
X9515000Y-8545000D01*
X9515000Y-8604950D02*
X9555000Y-8644950D01*
X9555000Y-8604950D02*
X9515000Y-8644950D01*
X9515000Y-9105000D02*
X9555000Y-9145000D01*
X9555000Y-9105000D02*
X9515000Y-9145000D01*
X9515000Y-11750000D02*
X9555000Y-11790000D01*
X9555000Y-11750000D02*
X9515000Y-11790000D01*
X9516250Y-6413750D02*
X9556250Y-6453750D01*
X9556250Y-6413750D02*
X9516250Y-6453750D01*
X9535000Y-8829950D02*
X9575000Y-8869950D01*
X9575000Y-8829950D02*
X9535000Y-8869950D01*
X9535000Y-8979950D02*
X9575000Y-9019950D01*
X9575000Y-8979950D02*
X9535000Y-9019950D01*
X9575000Y-7690000D02*
X9615000Y-7730000D01*
X9615000Y-7690000D02*
X9575000Y-7730000D01*
X9575000Y-7960000D02*
X9615000Y-8000000D01*
X9615000Y-7960000D02*
X9575000Y-8000000D01*
X9577500Y-10757500D02*
X9617500Y-10797500D01*
X9617500Y-10757500D02*
X9577500Y-10797500D01*
X9590000Y-7460000D02*
X9630000Y-7500000D01*
X9630000Y-7460000D02*
X9590000Y-7500000D01*
X9600000Y-10870000D02*
X9640000Y-10910000D01*
X9640000Y-10870000D02*
X9600000Y-10910000D01*
X9645000Y-9790000D02*
X9685000Y-9830000D01*
X9685000Y-9790000D02*
X9645000Y-9830000D01*
X9645000Y-9920000D02*
X9685000Y-9960000D01*
X9685000Y-9920000D02*
X9645000Y-9960000D01*
X9665000Y-9230000D02*
X9705000Y-9270000D01*
X9705000Y-9230000D02*
X9665000Y-9270000D01*
X9745000Y-9024950D02*
X9785000Y-9064950D01*
X9785000Y-9024950D02*
X9745000Y-9064950D01*
X9785000Y-10680000D02*
X9825000Y-10720000D01*
X9825000Y-10680000D02*
X9785000Y-10720000D01*
X9795000Y-10972500D02*
X9835000Y-11012500D01*
X9835000Y-10972500D02*
X9795000Y-11012500D01*
X9810000Y-11330000D02*
X9850000Y-11370000D01*
X9850000Y-11330000D02*
X9810000Y-11370000D01*
X9815000Y-7170000D02*
X9855000Y-7210000D01*
X9855000Y-7170000D02*
X9815000Y-7210000D01*
X9825000Y-8430000D02*
X9865000Y-8470000D01*
X9865000Y-8430000D02*
X9825000Y-8470000D01*
X9825000Y-11730000D02*
X9865000Y-11770000D01*
X9865000Y-11730000D02*
X9825000Y-11770000D01*
X9845000Y-10045498D02*
X9885000Y-10085498D01*
X9885000Y-10045498D02*
X9845000Y-10085498D01*
X9865000Y-6790000D02*
X9905000Y-6830000D01*
X9905000Y-6790000D02*
X9865000Y-6830000D01*
X9880000Y-6645000D02*
X9920000Y-6685000D01*
X9920000Y-6645000D02*
X9880000Y-6685000D01*
X9899249Y-7054249D02*
X9939249Y-7094249D01*
X9939249Y-7054249D02*
X9899249Y-7094249D01*
X9940000Y-8565000D02*
X9980000Y-8605000D01*
X9980000Y-8565000D02*
X9940000Y-8605000D01*
X9985000Y-6350000D02*
X10025000Y-6390000D01*
X10025000Y-6350000D02*
X9985000Y-6390000D01*
X9999791Y-9919791D02*
X10039791Y-9959791D01*
X10039791Y-9919791D02*
X9999791Y-9959791D01*
X10005000Y-6610000D02*
X10045000Y-6650000D01*
X10045000Y-6610000D02*
X10005000Y-6650000D01*
X10005000Y-6900000D02*
X10045000Y-6940000D01*
X10045000Y-6900000D02*
X10005000Y-6940000D01*
X10005822Y-9190000D02*
X10045822Y-9230000D01*
X10045822Y-9190000D02*
X10005822Y-9230000D01*
X10015000Y-10430000D02*
X10055000Y-10470000D01*
X10055000Y-10430000D02*
X10015000Y-10470000D01*
X10035000Y-10760000D02*
X10075000Y-10800000D01*
X10075000Y-10760000D02*
X10035000Y-10800000D01*
X10085000Y-7600000D02*
X10125000Y-7640000D01*
X10125000Y-7600000D02*
X10085000Y-7640000D01*
X10095000Y-7240000D02*
X10135000Y-7280000D01*
X10135000Y-7240000D02*
X10095000Y-7280000D01*
X10105000Y-8705000D02*
X10145000Y-8745000D01*
X10145000Y-8705000D02*
X10105000Y-8745000D01*
X10105772Y-9190000D02*
X10145772Y-9230000D01*
X10145772Y-9190000D02*
X10105772Y-9230000D01*
X10125000Y-7960000D02*
X10165000Y-8000000D01*
X10165000Y-7960000D02*
X10125000Y-8000000D01*
X10197500Y-10420000D02*
X10237500Y-10460000D01*
X10237500Y-10420000D02*
X10197500Y-10460000D01*
X10205000Y-7600000D02*
X10245000Y-7640000D01*
X10245000Y-7600000D02*
X10205000Y-7640000D01*
X10206500Y-11170000D02*
X10246500Y-11210000D01*
X10246500Y-11170000D02*
X10206500Y-11210000D01*
X10207000Y-7240000D02*
X10247000Y-7280000D01*
X10247000Y-7240000D02*
X10207000Y-7280000D01*
X10225000Y-8015000D02*
X10265000Y-8055000D01*
X10265000Y-8015000D02*
X10225000Y-8055000D01*
X10225000Y-9230000D02*
X10265000Y-9270000D01*
X10265000Y-9230000D02*
X10225000Y-9270000D01*
X10291500Y-11460000D02*
X10331500Y-11500000D01*
X10331500Y-11460000D02*
X10291500Y-11500000D01*
X10325000Y-9230000D02*
X10365000Y-9270000D01*
X10365000Y-9230000D02*
X10325000Y-9270000D01*
X10345000Y-8020000D02*
X10385000Y-8060000D01*
X10385000Y-8020000D02*
X10345000Y-8060000D01*
X10365000Y-9443000D02*
X10405000Y-9483000D01*
X10405000Y-9443000D02*
X10365000Y-9483000D01*
X10405000Y-10420000D02*
X10445000Y-10460000D01*
X10445000Y-10420000D02*
X10405000Y-10460000D01*
X10435000Y-7020000D02*
X10475000Y-7060000D01*
X10475000Y-7020000D02*
X10435000Y-7060000D01*
X10455000Y-7320000D02*
X10495000Y-7360000D01*
X10495000Y-7320000D02*
X10455000Y-7360000D01*
X10461500Y-11730000D02*
X10501500Y-11770000D01*
X10501500Y-11730000D02*
X10461500Y-11770000D01*
X10465000Y-7160000D02*
X10505000Y-7200000D01*
X10505000Y-7160000D02*
X10465000Y-7200000D01*
X10493251Y-7840000D02*
X10533251Y-7880000D01*
X10533251Y-7840000D02*
X10493251Y-7880000D01*
X10510751Y-9600000D02*
X10550751Y-9640000D01*
X10550751Y-9600000D02*
X10510751Y-9640000D01*
X10516500Y-11020000D02*
X10556500Y-11060000D01*
X10556500Y-11020000D02*
X10516500Y-11060000D01*
X10535000Y-8340000D02*
X10575000Y-8380000D01*
X10575000Y-8340000D02*
X10535000Y-8380000D01*
X10545000Y-5860000D02*
X10585000Y-5900000D01*
X10585000Y-5860000D02*
X10545000Y-5900000D01*
X10623188Y-10520000D02*
X10663188Y-10560000D01*
X10663188Y-10520000D02*
X10623188Y-10560000D01*
X10625000Y-7720000D02*
X10665000Y-7760000D01*
X10665000Y-7720000D02*
X10625000Y-7760000D01*
X10625000Y-9544250D02*
X10665000Y-9584250D01*
X10665000Y-9544250D02*
X10625000Y-9584250D01*
X10625000Y-10660000D02*
X10665000Y-10700000D01*
X10665000Y-10660000D02*
X10625000Y-10700000D01*
X10635000Y-8490000D02*
X10675000Y-8530000D01*
X10675000Y-8490000D02*
X10635000Y-8530000D01*
X10675000Y-8180000D02*
X10715000Y-8220000D01*
X10715000Y-8180000D02*
X10675000Y-8220000D01*
X10695000Y-9720000D02*
X10735000Y-9760000D01*
X10735000Y-9720000D02*
X10695000Y-9760000D01*
X10705000Y-6070000D02*
X10745000Y-6110000D01*
X10745000Y-6070000D02*
X10705000Y-6110000D01*
X10745000Y-6810000D02*
X10785000Y-6850000D01*
X10785000Y-6810000D02*
X10745000Y-6850000D01*
X10785711Y-6400000D02*
X10825711Y-6440000D01*
X10825711Y-6400000D02*
X10785711Y-6440000D01*
X10786500Y-11170000D02*
X10826500Y-11210000D01*
X10826500Y-11170000D02*
X10786500Y-11210000D01*
X10825000Y-6810000D02*
X10865000Y-6850000D01*
X10865000Y-6810000D02*
X10825000Y-6850000D01*
X10825000Y-11728962D02*
X10865000Y-11768962D01*
X10865000Y-11728962D02*
X10825000Y-11768962D01*
X10845000Y-9720000D02*
X10885000Y-9760000D01*
X10885000Y-9720000D02*
X10845000Y-9760000D01*
X10865000Y-10310000D02*
X10905000Y-10350000D01*
X10905000Y-10310000D02*
X10865000Y-10350000D01*
X10875000Y-6070000D02*
X10915000Y-6110000D01*
X10915000Y-6070000D02*
X10875000Y-6110000D01*
X10918251Y-8340000D02*
X10958251Y-8380000D01*
X10958251Y-8340000D02*
X10918251Y-8380000D01*
X10925000Y-10860000D02*
X10965000Y-10900000D01*
X10965000Y-10860000D02*
X10925000Y-10900000D01*
X11015000Y-10560000D02*
X11055000Y-10600000D01*
X11055000Y-10560000D02*
X11015000Y-10600000D01*
X11035000Y-5860000D02*
X11075000Y-5900000D01*
X11075000Y-5860000D02*
X11035000Y-5900000D01*
X11065000Y-6940000D02*
X11105000Y-6980000D01*
X11105000Y-6940000D02*
X11065000Y-6980000D01*
X11075000Y-11728962D02*
X11115000Y-11768962D01*
X11115000Y-11728962D02*
X11075000Y-11768962D01*
X11095000Y-7320000D02*
X11135000Y-7360000D01*
X11135000Y-7320000D02*
X11095000Y-7360000D01*
X11157500Y-10850000D02*
X11197500Y-10890000D01*
X11197500Y-10850000D02*
X11157500Y-10890000D01*
X11193188Y-7720000D02*
X11233188Y-7760000D01*
X11233188Y-7720000D02*
X11193188Y-7760000D01*
X11193188Y-8020000D02*
X11233188Y-8060000D01*
X11233188Y-8020000D02*
X11193188Y-8060000D01*
X11195000Y-8160000D02*
X11235000Y-8200000D01*
X11235000Y-8160000D02*
X11195000Y-8200000D01*
X11195000Y-8300000D02*
X11235000Y-8340000D01*
X11235000Y-8300000D02*
X11195000Y-8340000D01*
X11225000Y-9940000D02*
X11265000Y-9980000D01*
X11265000Y-9940000D02*
X11225000Y-9980000D01*
X11265000Y-8760000D02*
X11305000Y-8800000D01*
X11305000Y-8760000D02*
X11265000Y-8800000D01*
X11345000Y-7720000D02*
X11385000Y-7760000D01*
X11385000Y-7720000D02*
X11345000Y-7760000D01*
X11345000Y-8020000D02*
X11385000Y-8060000D01*
X11385000Y-8020000D02*
X11345000Y-8060000D01*
X11345000Y-8160000D02*
X11385000Y-8200000D01*
X11385000Y-8160000D02*
X11345000Y-8200000D01*
X11345000Y-8300000D02*
X11385000Y-8340000D01*
X11385000Y-8300000D02*
X11345000Y-8340000D01*
X11360000Y-11750000D02*
X11400000Y-11790000D01*
X11400000Y-11750000D02*
X11360000Y-11790000D01*
X11385000Y-6380000D02*
X11425000Y-6420000D01*
X11425000Y-6380000D02*
X11385000Y-6420000D01*
X11385000Y-6500000D02*
X11425000Y-6540000D01*
X11425000Y-6500000D02*
X11385000Y-6540000D01*
X11405000Y-6630000D02*
X11445000Y-6670000D01*
X11445000Y-6630000D02*
X11405000Y-6670000D01*
X11405000Y-6747500D02*
X11445000Y-6787500D01*
X11445000Y-6747500D02*
X11405000Y-6787500D01*
X11405000Y-6867500D02*
X11445000Y-6907500D01*
X11445000Y-6867500D02*
X11405000Y-6907500D01*
X11405000Y-6987500D02*
X11445000Y-7027500D01*
X11445000Y-6987500D02*
X11405000Y-7027500D01*
X11405000Y-7100000D02*
X11445000Y-7140000D01*
X11445000Y-7100000D02*
X11405000Y-7140000D01*
X11440000Y-5842500D02*
X11480000Y-5882500D01*
X11480000Y-5842500D02*
X11440000Y-5882500D01*
X11440000Y-5960000D02*
X11480000Y-6000000D01*
X11480000Y-5960000D02*
X11440000Y-6000000D01*
X11440000Y-6080000D02*
X11480000Y-6120000D01*
X11480000Y-6080000D02*
X11440000Y-6120000D01*
X11440000Y-6190000D02*
X11480000Y-6230000D01*
X11480000Y-6190000D02*
X11440000Y-6230000D01*
X11440000Y-6290000D02*
X11480000Y-6330000D01*
X11480000Y-6290000D02*
X11440000Y-6330000D01*
X11475000Y-10840000D02*
X11515000Y-10880000D01*
X11515000Y-10840000D02*
X11475000Y-10880000D01*
X11500000Y-6590000D02*
X11540000Y-6630000D01*
X11540000Y-6590000D02*
X11500000Y-6630000D01*
X11503188Y-8970000D02*
X11543188Y-9010000D01*
X11543188Y-8970000D02*
X11503188Y-9010000D01*
X11505000Y-9110000D02*
X11545000Y-9150000D01*
X11545000Y-9110000D02*
X11505000Y-9150000D01*
X11511250Y-11220000D02*
X11551250Y-11260000D01*
X11551250Y-11220000D02*
X11511250Y-11260000D01*
X11525000Y-10240000D02*
X11565000Y-10280000D01*
X11565000Y-10240000D02*
X11525000Y-10280000D01*
X11540000Y-5842500D02*
X11580000Y-5882500D01*
X11580000Y-5842500D02*
X11540000Y-5882500D01*
X11540000Y-5957500D02*
X11580000Y-5997500D01*
X11580000Y-5957500D02*
X11540000Y-5997500D01*
X11540000Y-6077500D02*
X11580000Y-6117500D01*
X11580000Y-6077500D02*
X11540000Y-6117500D01*
X11540000Y-6190000D02*
X11580000Y-6230000D01*
X11580000Y-6190000D02*
X11540000Y-6230000D01*
X11540000Y-6290000D02*
X11580000Y-6330000D01*
X11580000Y-6290000D02*
X11540000Y-6330000D01*
X11575000Y-10710000D02*
X11615000Y-10750000D01*
X11615000Y-10710000D02*
X11575000Y-10750000D01*
X11585000Y-11510000D02*
X11625000Y-11550000D01*
X11625000Y-11510000D02*
X11585000Y-11550000D01*
X11585000Y-11590000D02*
X11625000Y-11630000D01*
X11625000Y-11590000D02*
X11585000Y-11630000D01*
X11605000Y-8040000D02*
X11645000Y-8080000D01*
X11645000Y-8040000D02*
X11605000Y-8080000D01*
X11610000Y-6867500D02*
X11650000Y-6907500D01*
X11650000Y-6867500D02*
X11610000Y-6907500D01*
X11610000Y-7457500D02*
X11650000Y-7497500D01*
X11650000Y-7457500D02*
X11610000Y-7497500D01*
X11610000Y-7732500D02*
X11650000Y-7772500D01*
X11650000Y-7732500D02*
X11610000Y-7772500D01*
X11610250Y-6987500D02*
X11650250Y-7027500D01*
X11650250Y-6987500D02*
X11610250Y-7027500D01*
X11610250Y-7105000D02*
X11650250Y-7145000D01*
X11650250Y-7105000D02*
X11610250Y-7145000D01*
X11635000Y-11230000D02*
X11675000Y-11270000D01*
X11675000Y-11230000D02*
X11635000Y-11270000D01*
X11640000Y-6290000D02*
X11680000Y-6330000D01*
X11680000Y-6290000D02*
X11640000Y-6330000D01*
X11650000Y-5842500D02*
X11690000Y-5882500D01*
X11690000Y-5842500D02*
X11650000Y-5882500D01*
X11655000Y-8970000D02*
X11695000Y-9010000D01*
X11695000Y-8970000D02*
X11655000Y-9010000D01*
X11655000Y-9110000D02*
X11695000Y-9150000D01*
X11695000Y-9110000D02*
X11655000Y-9150000D01*
X11683550Y-10830000D02*
X11723550Y-10870000D01*
X11723550Y-10830000D02*
X11683550Y-10870000D01*
X11705000Y-10690000D02*
X11745000Y-10730000D01*
X11745000Y-10690000D02*
X11705000Y-10730000D01*
X11720000Y-6872500D02*
X11760000Y-6912500D01*
X11760000Y-6872500D02*
X11720000Y-6912500D01*
X11720000Y-8067500D02*
X11760000Y-8107500D01*
X11760000Y-8067500D02*
X11720000Y-8107500D01*
X11720250Y-6992500D02*
X11760250Y-7032500D01*
X11760250Y-6992500D02*
X11720250Y-7032500D01*
X11720250Y-7110000D02*
X11760250Y-7150000D01*
X11760250Y-7110000D02*
X11720250Y-7150000D01*
X11725000Y-8350000D02*
X11765000Y-8390000D01*
X11765000Y-8350000D02*
X11725000Y-8390000D01*
X11735000Y-11560000D02*
X11775000Y-11600000D01*
X11775000Y-11560000D02*
X11735000Y-11600000D01*
X11758500Y-11220000D02*
X11798500Y-11260000D01*
X11798500Y-11220000D02*
X11758500Y-11260000D01*
X11760000Y-5840000D02*
X11800000Y-5880000D01*
X11800000Y-5840000D02*
X11760000Y-5880000D01*
X11780000Y-7290000D02*
X11820000Y-7330000D01*
X11820000Y-7290000D02*
X11780000Y-7330000D01*
X11780000Y-7610000D02*
X11820000Y-7650000D01*
X11820000Y-7610000D02*
X11780000Y-7650000D01*
X11788500Y-9920000D02*
X11828500Y-9960000D01*
X11828500Y-9920000D02*
X11788500Y-9960000D01*
X11825000Y-9580000D02*
X11865000Y-9620000D01*
X11865000Y-9580000D02*
X11825000Y-9620000D01*
X11830000Y-6872500D02*
X11870000Y-6912500D01*
X11870000Y-6872500D02*
X11830000Y-6912500D01*
X11830250Y-6992500D02*
X11870250Y-7032500D01*
X11870250Y-6992500D02*
X11830250Y-7032500D01*
X11830250Y-7110000D02*
X11870250Y-7150000D01*
X11870250Y-7110000D02*
X11830250Y-7150000D01*
X11860000Y-5840000D02*
X11900000Y-5880000D01*
X11900000Y-5840000D02*
X11860000Y-5880000D01*
X11865000Y-10000000D02*
X11905000Y-10040000D01*
X11905000Y-10000000D02*
X11865000Y-10040000D01*
X11865000Y-11750000D02*
X11905000Y-11790000D01*
X11905000Y-11750000D02*
X11865000Y-11790000D01*
X11871750Y-10143250D02*
X11911750Y-10183250D01*
X11911750Y-10143250D02*
X11871750Y-10183250D01*
X11895000Y-9830000D02*
X11935000Y-9870000D01*
X11935000Y-9830000D02*
X11895000Y-9870000D01*
X11895000Y-10860000D02*
X11935000Y-10900000D01*
X11935000Y-10860000D02*
X11895000Y-10900000D01*
X11920000Y-6280000D02*
X11960000Y-6320000D01*
X11960000Y-6280000D02*
X11920000Y-6320000D01*
X11928708Y-10600000D02*
X11968708Y-10640000D01*
X11968708Y-10600000D02*
X11928708Y-10640000D01*
X11934571Y-10488551D02*
X11974571Y-10528551D01*
X11974571Y-10488551D02*
X11934571Y-10528551D01*
X11935000Y-10047500D02*
X11975000Y-10087500D01*
X11975000Y-10047500D02*
X11935000Y-10087500D01*
X11950000Y-7107500D02*
X11990000Y-7147500D01*
X11990000Y-7107500D02*
X11950000Y-7147500D01*
X11950000Y-7457500D02*
X11990000Y-7497500D01*
X11990000Y-7457500D02*
X11950000Y-7497500D01*
X11970000Y-5840000D02*
X12010000Y-5880000D01*
X12010000Y-5840000D02*
X11970000Y-5880000D01*
X11975000Y-9580000D02*
X12015000Y-9620000D01*
X12015000Y-9580000D02*
X11975000Y-9620000D01*
X11990000Y-6230000D02*
X12030000Y-6270000D01*
X12030000Y-6230000D02*
X11990000Y-6270000D01*
X12015000Y-11240000D02*
X12055000Y-11280000D01*
X12055000Y-11240000D02*
X12015000Y-11280000D01*
X12045105Y-8737458D02*
X12085105Y-8777458D01*
X12085105Y-8737458D02*
X12045105Y-8777458D01*
X12070000Y-5840000D02*
X12110000Y-5880000D01*
X12110000Y-5840000D02*
X12070000Y-5880000D01*
X12070000Y-5957500D02*
X12110000Y-5997500D01*
X12110000Y-5957500D02*
X12070000Y-5997500D01*
X12070000Y-6070000D02*
X12110000Y-6110000D01*
X12110000Y-6070000D02*
X12070000Y-6110000D01*
X12070000Y-6190000D02*
X12110000Y-6230000D01*
X12110000Y-6190000D02*
X12070000Y-6230000D01*
X12110000Y-6947500D02*
X12150000Y-6987500D01*
X12150000Y-6947500D02*
X12110000Y-6987500D01*
X12110000Y-7287500D02*
X12150000Y-7327500D01*
X12150000Y-7287500D02*
X12110000Y-7327500D01*
X12110000Y-7617500D02*
X12150000Y-7657500D01*
X12150000Y-7617500D02*
X12110000Y-7657500D01*
X12115000Y-9230000D02*
X12155000Y-9270000D01*
X12155000Y-9230000D02*
X12115000Y-9270000D01*
X12122500Y-8350000D02*
X12162500Y-8390000D01*
X12162500Y-8350000D02*
X12122500Y-8390000D01*
X12125000Y-9580000D02*
X12165000Y-9620000D01*
X12165000Y-9580000D02*
X12125000Y-9620000D01*
X12125000Y-10820000D02*
X12165000Y-10860000D01*
X12165000Y-10820000D02*
X12125000Y-10860000D01*
X12165000Y-6187500D02*
X12205000Y-6227500D01*
X12205000Y-6187500D02*
X12165000Y-6227500D01*
X12165000Y-11450000D02*
X12205000Y-11490000D01*
X12205000Y-11450000D02*
X12165000Y-11490000D01*
X12175000Y-5840000D02*
X12215000Y-5880000D01*
X12215000Y-5840000D02*
X12175000Y-5880000D01*
X12175000Y-5957500D02*
X12215000Y-5997500D01*
X12215000Y-5957500D02*
X12175000Y-5997500D01*
X12175000Y-6070000D02*
X12215000Y-6110000D01*
X12215000Y-6070000D02*
X12175000Y-6110000D01*
X12175000Y-6307500D02*
X12215000Y-6347500D01*
X12215000Y-6307500D02*
X12175000Y-6347500D01*
X12265000Y-6187500D02*
X12305000Y-6227500D01*
X12305000Y-6187500D02*
X12265000Y-6227500D01*
X12265000Y-6307500D02*
X12305000Y-6347500D01*
X12305000Y-6307500D02*
X12265000Y-6347500D01*
X12265000Y-11130000D02*
X12305000Y-11170000D01*
X12305000Y-11130000D02*
X12265000Y-11170000D01*
X12280000Y-7107500D02*
X12320000Y-7147500D01*
X12320000Y-7107500D02*
X12280000Y-7147500D01*
X12280000Y-7457500D02*
X12320000Y-7497500D01*
X12320000Y-7457500D02*
X12280000Y-7497500D01*
X12315000Y-10050000D02*
X12355000Y-10090000D01*
X12355000Y-10050000D02*
X12315000Y-10090000D01*
X12349750Y-6836715D02*
X12389750Y-6876715D01*
X12389750Y-6836715D02*
X12349750Y-6876715D01*
X12395000Y-9130000D02*
X12435000Y-9170000D01*
X12435000Y-9130000D02*
X12395000Y-9170000D01*
X12405000Y-8490000D02*
X12445000Y-8530000D01*
X12445000Y-8490000D02*
X12405000Y-8530000D01*
X12405000Y-9220000D02*
X12445000Y-9260000D01*
X12445000Y-9220000D02*
X12405000Y-9260000D01*
X12425000Y-8410000D02*
X12465000Y-8450000D01*
X12465000Y-8410000D02*
X12425000Y-8450000D01*
X12440000Y-6947500D02*
X12480000Y-6987500D01*
X12480000Y-6947500D02*
X12440000Y-6987500D01*
X12440000Y-7287500D02*
X12480000Y-7327500D01*
X12480000Y-7287500D02*
X12440000Y-7327500D01*
X12440000Y-7617500D02*
X12480000Y-7657500D01*
X12480000Y-7617500D02*
X12440000Y-7657500D01*
X12458250Y-8220193D02*
X12498250Y-8260193D01*
X12498250Y-8220193D02*
X12458250Y-8260193D01*
X12525000Y-11130000D02*
X12565000Y-11170000D01*
X12565000Y-11130000D02*
X12525000Y-11170000D01*
X12555000Y-6480000D02*
X12595000Y-6520000D01*
X12595000Y-6480000D02*
X12555000Y-6520000D01*
X12569750Y-7717500D02*
X12609750Y-7757500D01*
X12609750Y-7717500D02*
X12569750Y-7757500D01*
X12605000Y-11820000D02*
X12645000Y-11860000D01*
X12645000Y-11820000D02*
X12605000Y-11860000D01*
X12610000Y-7107500D02*
X12650000Y-7147500D01*
X12650000Y-7107500D02*
X12610000Y-7147500D01*
X12610000Y-7457500D02*
X12650000Y-7497500D01*
X12650000Y-7457500D02*
X12610000Y-7497500D01*
X12679750Y-7717500D02*
X12719750Y-7757500D01*
X12719750Y-7717500D02*
X12679750Y-7757500D01*
X12725000Y-8672500D02*
X12765000Y-8712500D01*
X12765000Y-8672500D02*
X12725000Y-8712500D01*
X12725000Y-8962500D02*
X12765000Y-9002500D01*
X12765000Y-8962500D02*
X12725000Y-9002500D01*
X12760000Y-8110000D02*
X12800000Y-8150000D01*
X12800000Y-8110000D02*
X12760000Y-8150000D01*
X12780000Y-6947500D02*
X12820000Y-6987500D01*
X12820000Y-6947500D02*
X12780000Y-6987500D01*
X12780000Y-7287500D02*
X12820000Y-7327500D01*
X12820000Y-7287500D02*
X12780000Y-7327500D01*
X12780000Y-7617500D02*
X12820000Y-7657500D01*
X12820000Y-7617500D02*
X12780000Y-7657500D01*
X12880000Y-8110000D02*
X12920000Y-8150000D01*
X12920000Y-8110000D02*
X12880000Y-8150000D01*
X12899750Y-6497500D02*
X12939750Y-6537500D01*
X12939750Y-6497500D02*
X12899750Y-6537500D01*
X12950000Y-7107500D02*
X12990000Y-7147500D01*
X12990000Y-7107500D02*
X12950000Y-7147500D01*
X12950000Y-7457500D02*
X12990000Y-7497500D01*
X12990000Y-7457500D02*
X12950000Y-7497500D01*
X13009750Y-7737500D02*
X13049750Y-7777500D01*
X13049750Y-7737500D02*
X13009750Y-7777500D01*
X13040000Y-8047500D02*
X13080000Y-8087500D01*
X13080000Y-8047500D02*
X13040000Y-8087500D01*
X13090000Y-6487500D02*
X13130000Y-6527500D01*
X13130000Y-6487500D02*
X13090000Y-6527500D01*
X13115000Y-8672500D02*
X13155000Y-8712500D01*
X13155000Y-8672500D02*
X13115000Y-8712500D01*
X13115000Y-8962500D02*
X13155000Y-9002500D01*
X13155000Y-8962500D02*
X13115000Y-9002500D01*
D13*
X12675895Y-8420000D02*
G75*
G03*
X12675895Y-8420000I-30000J0D01*
G01*
D11*
X12590895Y-8450000D02*
X12700895Y-8450000D01*
X12700895Y-8450000D02*
G75*
G03*
X12700895Y-8390000I0J30000D01*
G01*
X12700895Y-8390000D02*
X12590895Y-8390000D01*
X12590895Y-8390000D02*
G75*
G03*
X12590895Y-8450000I0J-30000D01*
G01*
D13*
X12675895Y-9284000D02*
G75*
G03*
X12675895Y-9284000I-30000J0D01*
G01*
D11*
X12590895Y-9314000D02*
X12700895Y-9314000D01*
X12700895Y-9314000D02*
G75*
G03*
X12700895Y-9254000I0J30000D01*
G01*
X12700895Y-9254000D02*
X12590895Y-9254000D01*
X12590895Y-9254000D02*
G75*
G03*
X12590895Y-9314000I0J-30000D01*
G01*
D13*
X13093895Y-8420000D02*
G75*
G03*
X13093895Y-8420000I-30000J0D01*
G01*
D11*
X13033895Y-8450000D02*
X13093895Y-8450000D01*
X13093895Y-8450000D02*
G75*
G03*
X13093895Y-8390000I0J30000D01*
G01*
X13093895Y-8390000D02*
X13033895Y-8390000D01*
X13033895Y-8390000D02*
G75*
G03*
X13033895Y-8450000I0J-30000D01*
G01*
D13*
X13093895Y-9284000D02*
G75*
G03*
X13093895Y-9284000I-30000J0D01*
G01*
D11*
X13033895Y-9314000D02*
X13093895Y-9314000D01*
X13093895Y-9314000D02*
G75*
G03*
X13093895Y-9254000I0J30000D01*
G01*
X13093895Y-9254000D02*
X13033895Y-9254000D01*
X13033895Y-9254000D02*
G75*
G03*
X13033895Y-9314000I0J-30000D01*
G01*
D10*
X6140000Y-10290000D02*
X6140000Y-10390000D01*
X6090000Y-10340000D02*
X6190000Y-10340000D01*
X6315000Y-8290000D02*
X6315000Y-8390000D01*
X6265000Y-8340000D02*
X6365000Y-8340000D01*
X7070000Y-8290000D02*
X7070000Y-8390000D01*
X7020000Y-8340000D02*
X7120000Y-8340000D01*
X7825000Y-8290000D02*
X7825000Y-8390000D01*
X7775000Y-8340000D02*
X7875000Y-8340000D01*
X12385000Y-11480000D02*
X12385000Y-11580000D01*
X12335000Y-11530000D02*
X12435000Y-11530000D01*
X12504500Y-9636000D02*
X12504500Y-9736000D01*
X12454500Y-9686000D02*
X12554500Y-9686000D01*
X12505000Y-9890000D02*
X12505000Y-9990000D01*
X12455000Y-9940000D02*
X12555000Y-9940000D01*
X12505000Y-10144000D02*
X12505000Y-10244000D01*
X12455000Y-10194000D02*
X12555000Y-10194000D01*
X12505000Y-10398000D02*
X12505000Y-10498000D01*
X12455000Y-10448000D02*
X12555000Y-10448000D01*
X12505000Y-10652000D02*
X12505000Y-10752000D01*
X12455000Y-10702000D02*
X12555000Y-10702000D01*
X12505000Y-10906000D02*
X12505000Y-11006000D01*
X12455000Y-10956000D02*
X12555000Y-10956000D01*
X12758500Y-9636000D02*
X12758500Y-9736000D01*
X12708500Y-9686000D02*
X12808500Y-9686000D01*
X12759000Y-9890000D02*
X12759000Y-9990000D01*
X12709000Y-9940000D02*
X12809000Y-9940000D01*
X12759000Y-10144000D02*
X12759000Y-10244000D01*
X12709000Y-10194000D02*
X12809000Y-10194000D01*
X12759000Y-10398000D02*
X12759000Y-10498000D01*
X12709000Y-10448000D02*
X12809000Y-10448000D01*
X12759000Y-10652000D02*
X12759000Y-10752000D01*
X12709000Y-10702000D02*
X12809000Y-10702000D01*
X12759000Y-10906000D02*
X12759000Y-11006000D01*
X12709000Y-10956000D02*
X12809000Y-10956000D01*
X13012500Y-9636000D02*
X13012500Y-9736000D01*
X12962500Y-9686000D02*
X13062500Y-9686000D01*
X13013000Y-9890000D02*
X13013000Y-9990000D01*
X12963000Y-9940000D02*
X13063000Y-9940000D01*
X13013000Y-10144000D02*
X13013000Y-10244000D01*
X12963000Y-10194000D02*
X13063000Y-10194000D01*
X13013000Y-10398000D02*
X13013000Y-10498000D01*
X12963000Y-10448000D02*
X13063000Y-10448000D01*
X13013000Y-10652000D02*
X13013000Y-10752000D01*
X12963000Y-10702000D02*
X13063000Y-10702000D01*
X13013000Y-10906000D02*
X13013000Y-11006000D01*
X12963000Y-10956000D02*
X13063000Y-10956000D01*
D14*
X6007427Y-11532427D02*
X6007427Y-11447573D01*
X5922573Y-11447573D01*
X5922573Y-11532427D01*
X6007427Y-11532427D01*
X6357427Y-11532427D02*
X6357427Y-11447573D01*
X6272573Y-11447573D01*
X6272573Y-11532427D01*
X6357427Y-11532427D01*
D15*
X5282000Y-6222000D02*
X5417000Y-6087000D01*
X5282000Y-5952000D01*
X5147000Y-6087000D01*
X5282000Y-6222000D01*
X5282000Y-11722000D02*
X5417000Y-11587000D01*
X5282000Y-11452000D01*
X5147000Y-11587000D01*
X5282000Y-11722000D01*
X12882000Y-6222000D02*
X13017000Y-6087000D01*
X12882000Y-5952000D01*
X12747000Y-6087000D01*
X12882000Y-6222000D01*
X12882000Y-11722000D02*
X13017000Y-11587000D01*
X12882000Y-11452000D01*
X12747000Y-11587000D01*
X12882000Y-11722000D01*
D11*
X5174619Y-12254524D02*
X5174619Y-12054524D01*
X5174619Y-12054524D02*
X5222238Y-12054524D01*
X5222238Y-12054524D02*
X5250810Y-12064048D01*
X5250810Y-12064048D02*
X5269857Y-12083095D01*
X5269857Y-12083095D02*
X5279381Y-12102143D01*
X5279381Y-12102143D02*
X5288905Y-12140238D01*
X5288905Y-12140238D02*
X5288905Y-12168809D01*
X5288905Y-12168809D02*
X5279381Y-12206905D01*
X5279381Y-12206905D02*
X5269857Y-12225952D01*
X5269857Y-12225952D02*
X5250810Y-12245000D01*
X5250810Y-12245000D02*
X5222238Y-12254524D01*
X5222238Y-12254524D02*
X5174619Y-12254524D01*
X5374619Y-12254524D02*
X5374619Y-12121190D01*
X5374619Y-12159286D02*
X5384143Y-12140238D01*
X5384143Y-12140238D02*
X5393667Y-12130714D01*
X5393667Y-12130714D02*
X5412714Y-12121190D01*
X5412714Y-12121190D02*
X5431762Y-12121190D01*
X5498429Y-12254524D02*
X5498429Y-12121190D01*
X5498429Y-12054524D02*
X5488905Y-12064048D01*
X5488905Y-12064048D02*
X5498429Y-12073571D01*
X5498429Y-12073571D02*
X5507952Y-12064048D01*
X5507952Y-12064048D02*
X5498429Y-12054524D01*
X5498429Y-12054524D02*
X5498429Y-12073571D01*
X5622238Y-12254524D02*
X5603190Y-12245000D01*
X5603190Y-12245000D02*
X5593667Y-12225952D01*
X5593667Y-12225952D02*
X5593667Y-12054524D01*
X5727000Y-12254524D02*
X5707952Y-12245000D01*
X5707952Y-12245000D02*
X5698428Y-12225952D01*
X5698428Y-12225952D02*
X5698428Y-12054524D01*
X5955571Y-12254524D02*
X5955571Y-12054524D01*
X5955571Y-12054524D02*
X6022238Y-12197381D01*
X6022238Y-12197381D02*
X6088905Y-12054524D01*
X6088905Y-12054524D02*
X6088905Y-12254524D01*
X6269857Y-12254524D02*
X6269857Y-12149762D01*
X6269857Y-12149762D02*
X6260333Y-12130714D01*
X6260333Y-12130714D02*
X6241286Y-12121190D01*
X6241286Y-12121190D02*
X6203190Y-12121190D01*
X6203190Y-12121190D02*
X6184143Y-12130714D01*
X6269857Y-12245000D02*
X6250809Y-12254524D01*
X6250809Y-12254524D02*
X6203190Y-12254524D01*
X6203190Y-12254524D02*
X6184143Y-12245000D01*
X6184143Y-12245000D02*
X6174619Y-12225952D01*
X6174619Y-12225952D02*
X6174619Y-12206905D01*
X6174619Y-12206905D02*
X6184143Y-12187857D01*
X6184143Y-12187857D02*
X6203190Y-12178333D01*
X6203190Y-12178333D02*
X6250809Y-12178333D01*
X6250809Y-12178333D02*
X6269857Y-12168809D01*
X6365095Y-12121190D02*
X6365095Y-12321190D01*
X6365095Y-12130714D02*
X6384143Y-12121190D01*
X6384143Y-12121190D02*
X6422238Y-12121190D01*
X6422238Y-12121190D02*
X6441286Y-12130714D01*
X6441286Y-12130714D02*
X6450809Y-12140238D01*
X6450809Y-12140238D02*
X6460333Y-12159286D01*
X6460333Y-12159286D02*
X6460333Y-12216428D01*
X6460333Y-12216428D02*
X6450809Y-12235476D01*
X6450809Y-12235476D02*
X6441286Y-12245000D01*
X6441286Y-12245000D02*
X6422238Y-12254524D01*
X6422238Y-12254524D02*
X6384143Y-12254524D01*
X6384143Y-12254524D02*
X6365095Y-12245000D01*
X6546048Y-12235476D02*
X6555571Y-12245000D01*
X6555571Y-12245000D02*
X6546048Y-12254524D01*
X6546048Y-12254524D02*
X6536524Y-12245000D01*
X6536524Y-12245000D02*
X6546048Y-12235476D01*
X6546048Y-12235476D02*
X6546048Y-12254524D01*
X6546048Y-12130714D02*
X6555571Y-12140238D01*
X6555571Y-12140238D02*
X6546048Y-12149762D01*
X6546048Y-12149762D02*
X6536524Y-12140238D01*
X6536524Y-12140238D02*
X6546048Y-12130714D01*
X6546048Y-12130714D02*
X6546048Y-12149762D01*
D12*
X4887000Y-12562000D02*
X4927000Y-12602000D01*
X4927000Y-12562000D02*
X4887000Y-12602000D01*
D11*
X5212714Y-12474524D02*
X5231762Y-12474524D01*
X5231762Y-12474524D02*
X5250810Y-12484048D01*
X5250810Y-12484048D02*
X5260333Y-12493571D01*
X5260333Y-12493571D02*
X5269857Y-12512619D01*
X5269857Y-12512619D02*
X5279381Y-12550714D01*
X5279381Y-12550714D02*
X5279381Y-12598333D01*
X5279381Y-12598333D02*
X5269857Y-12636428D01*
X5269857Y-12636428D02*
X5260333Y-12655476D01*
X5260333Y-12655476D02*
X5250810Y-12665000D01*
X5250810Y-12665000D02*
X5231762Y-12674524D01*
X5231762Y-12674524D02*
X5212714Y-12674524D01*
X5212714Y-12674524D02*
X5193667Y-12665000D01*
X5193667Y-12665000D02*
X5184143Y-12655476D01*
X5184143Y-12655476D02*
X5174619Y-12636428D01*
X5174619Y-12636428D02*
X5165095Y-12598333D01*
X5165095Y-12598333D02*
X5165095Y-12550714D01*
X5165095Y-12550714D02*
X5174619Y-12512619D01*
X5174619Y-12512619D02*
X5184143Y-12493571D01*
X5184143Y-12493571D02*
X5193667Y-12484048D01*
X5193667Y-12484048D02*
X5212714Y-12474524D01*
X5365095Y-12655476D02*
X5374619Y-12665000D01*
X5374619Y-12665000D02*
X5365095Y-12674524D01*
X5365095Y-12674524D02*
X5355571Y-12665000D01*
X5355571Y-12665000D02*
X5365095Y-12655476D01*
X5365095Y-12655476D02*
X5365095Y-12674524D01*
X5546048Y-12541190D02*
X5546048Y-12674524D01*
X5498429Y-12465000D02*
X5450810Y-12607857D01*
X5450810Y-12607857D02*
X5574619Y-12607857D01*
X5688905Y-12474524D02*
X5707952Y-12474524D01*
X5707952Y-12474524D02*
X5727000Y-12484048D01*
X5727000Y-12484048D02*
X5736524Y-12493571D01*
X5736524Y-12493571D02*
X5746048Y-12512619D01*
X5746048Y-12512619D02*
X5755571Y-12550714D01*
X5755571Y-12550714D02*
X5755571Y-12598333D01*
X5755571Y-12598333D02*
X5746048Y-12636428D01*
X5746048Y-12636428D02*
X5736524Y-12655476D01*
X5736524Y-12655476D02*
X5727000Y-12665000D01*
X5727000Y-12665000D02*
X5707952Y-12674524D01*
X5707952Y-12674524D02*
X5688905Y-12674524D01*
X5688905Y-12674524D02*
X5669857Y-12665000D01*
X5669857Y-12665000D02*
X5660333Y-12655476D01*
X5660333Y-12655476D02*
X5650809Y-12636428D01*
X5650809Y-12636428D02*
X5641286Y-12598333D01*
X5641286Y-12598333D02*
X5641286Y-12550714D01*
X5641286Y-12550714D02*
X5650809Y-12512619D01*
X5650809Y-12512619D02*
X5660333Y-12493571D01*
X5660333Y-12493571D02*
X5669857Y-12484048D01*
X5669857Y-12484048D02*
X5688905Y-12474524D01*
X5879381Y-12474524D02*
X5898429Y-12474524D01*
X5898429Y-12474524D02*
X5917476Y-12484048D01*
X5917476Y-12484048D02*
X5927000Y-12493571D01*
X5927000Y-12493571D02*
X5936524Y-12512619D01*
X5936524Y-12512619D02*
X5946048Y-12550714D01*
X5946048Y-12550714D02*
X5946048Y-12598333D01*
X5946048Y-12598333D02*
X5936524Y-12636428D01*
X5936524Y-12636428D02*
X5927000Y-12655476D01*
X5927000Y-12655476D02*
X5917476Y-12665000D01*
X5917476Y-12665000D02*
X5898429Y-12674524D01*
X5898429Y-12674524D02*
X5879381Y-12674524D01*
X5879381Y-12674524D02*
X5860333Y-12665000D01*
X5860333Y-12665000D02*
X5850809Y-12655476D01*
X5850809Y-12655476D02*
X5841286Y-12636428D01*
X5841286Y-12636428D02*
X5831762Y-12598333D01*
X5831762Y-12598333D02*
X5831762Y-12550714D01*
X5831762Y-12550714D02*
X5841286Y-12512619D01*
X5841286Y-12512619D02*
X5850809Y-12493571D01*
X5850809Y-12493571D02*
X5860333Y-12484048D01*
X5860333Y-12484048D02*
X5879381Y-12474524D01*
X6031762Y-12674524D02*
X6031762Y-12541190D01*
X6031762Y-12560238D02*
X6041286Y-12550714D01*
X6041286Y-12550714D02*
X6060333Y-12541190D01*
X6060333Y-12541190D02*
X6088905Y-12541190D01*
X6088905Y-12541190D02*
X6107952Y-12550714D01*
X6107952Y-12550714D02*
X6117476Y-12569762D01*
X6117476Y-12569762D02*
X6117476Y-12674524D01*
X6117476Y-12569762D02*
X6127000Y-12550714D01*
X6127000Y-12550714D02*
X6146048Y-12541190D01*
X6146048Y-12541190D02*
X6174619Y-12541190D01*
X6174619Y-12541190D02*
X6193667Y-12550714D01*
X6193667Y-12550714D02*
X6203190Y-12569762D01*
X6203190Y-12569762D02*
X6203190Y-12674524D01*
X6298429Y-12674524D02*
X6298429Y-12541190D01*
X6298429Y-12560238D02*
X6307952Y-12550714D01*
X6307952Y-12550714D02*
X6327000Y-12541190D01*
X6327000Y-12541190D02*
X6355571Y-12541190D01*
X6355571Y-12541190D02*
X6374619Y-12550714D01*
X6374619Y-12550714D02*
X6384143Y-12569762D01*
X6384143Y-12569762D02*
X6384143Y-12674524D01*
X6384143Y-12569762D02*
X6393667Y-12550714D01*
X6393667Y-12550714D02*
X6412714Y-12541190D01*
X6412714Y-12541190D02*
X6441286Y-12541190D01*
X6441286Y-12541190D02*
X6460333Y-12550714D01*
X6460333Y-12550714D02*
X6469857Y-12569762D01*
X6469857Y-12569762D02*
X6469857Y-12674524D01*
X6860333Y-12465000D02*
X6688905Y-12722143D01*
X7117476Y-12474524D02*
X7136524Y-12474524D01*
X7136524Y-12474524D02*
X7155572Y-12484048D01*
X7155572Y-12484048D02*
X7165095Y-12493571D01*
X7165095Y-12493571D02*
X7174619Y-12512619D01*
X7174619Y-12512619D02*
X7184143Y-12550714D01*
X7184143Y-12550714D02*
X7184143Y-12598333D01*
X7184143Y-12598333D02*
X7174619Y-12636428D01*
X7174619Y-12636428D02*
X7165095Y-12655476D01*
X7165095Y-12655476D02*
X7155572Y-12665000D01*
X7155572Y-12665000D02*
X7136524Y-12674524D01*
X7136524Y-12674524D02*
X7117476Y-12674524D01*
X7117476Y-12674524D02*
X7098429Y-12665000D01*
X7098429Y-12665000D02*
X7088905Y-12655476D01*
X7088905Y-12655476D02*
X7079381Y-12636428D01*
X7079381Y-12636428D02*
X7069857Y-12598333D01*
X7069857Y-12598333D02*
X7069857Y-12550714D01*
X7069857Y-12550714D02*
X7079381Y-12512619D01*
X7079381Y-12512619D02*
X7088905Y-12493571D01*
X7088905Y-12493571D02*
X7098429Y-12484048D01*
X7098429Y-12484048D02*
X7117476Y-12474524D01*
X7269857Y-12655476D02*
X7279381Y-12665000D01*
X7279381Y-12665000D02*
X7269857Y-12674524D01*
X7269857Y-12674524D02*
X7260333Y-12665000D01*
X7260333Y-12665000D02*
X7269857Y-12655476D01*
X7269857Y-12655476D02*
X7269857Y-12674524D01*
X7403191Y-12474524D02*
X7422238Y-12474524D01*
X7422238Y-12474524D02*
X7441286Y-12484048D01*
X7441286Y-12484048D02*
X7450810Y-12493571D01*
X7450810Y-12493571D02*
X7460333Y-12512619D01*
X7460333Y-12512619D02*
X7469857Y-12550714D01*
X7469857Y-12550714D02*
X7469857Y-12598333D01*
X7469857Y-12598333D02*
X7460333Y-12636428D01*
X7460333Y-12636428D02*
X7450810Y-12655476D01*
X7450810Y-12655476D02*
X7441286Y-12665000D01*
X7441286Y-12665000D02*
X7422238Y-12674524D01*
X7422238Y-12674524D02*
X7403191Y-12674524D01*
X7403191Y-12674524D02*
X7384143Y-12665000D01*
X7384143Y-12665000D02*
X7374619Y-12655476D01*
X7374619Y-12655476D02*
X7365095Y-12636428D01*
X7365095Y-12636428D02*
X7355572Y-12598333D01*
X7355572Y-12598333D02*
X7355572Y-12550714D01*
X7355572Y-12550714D02*
X7365095Y-12512619D01*
X7365095Y-12512619D02*
X7374619Y-12493571D01*
X7374619Y-12493571D02*
X7384143Y-12484048D01*
X7384143Y-12484048D02*
X7403191Y-12474524D01*
X7660333Y-12674524D02*
X7546048Y-12674524D01*
X7603191Y-12674524D02*
X7603191Y-12474524D01*
X7603191Y-12474524D02*
X7584143Y-12503095D01*
X7584143Y-12503095D02*
X7565095Y-12522143D01*
X7565095Y-12522143D02*
X7546048Y-12531667D01*
X7841286Y-12474524D02*
X7746048Y-12474524D01*
X7746048Y-12474524D02*
X7736524Y-12569762D01*
X7736524Y-12569762D02*
X7746048Y-12560238D01*
X7746048Y-12560238D02*
X7765095Y-12550714D01*
X7765095Y-12550714D02*
X7812714Y-12550714D01*
X7812714Y-12550714D02*
X7831762Y-12560238D01*
X7831762Y-12560238D02*
X7841286Y-12569762D01*
X7841286Y-12569762D02*
X7850810Y-12588809D01*
X7850810Y-12588809D02*
X7850810Y-12636428D01*
X7850810Y-12636428D02*
X7841286Y-12655476D01*
X7841286Y-12655476D02*
X7831762Y-12665000D01*
X7831762Y-12665000D02*
X7812714Y-12674524D01*
X7812714Y-12674524D02*
X7765095Y-12674524D01*
X7765095Y-12674524D02*
X7746048Y-12665000D01*
X7746048Y-12665000D02*
X7736524Y-12655476D01*
X7917476Y-12474524D02*
X8050810Y-12474524D01*
X8050810Y-12474524D02*
X7965095Y-12674524D01*
X8117476Y-12474524D02*
X8117476Y-12512619D01*
X8193667Y-12474524D02*
X8193667Y-12512619D01*
X8488905Y-12750714D02*
X8479381Y-12741190D01*
X8479381Y-12741190D02*
X8460334Y-12712619D01*
X8460334Y-12712619D02*
X8450810Y-12693571D01*
X8450810Y-12693571D02*
X8441286Y-12665000D01*
X8441286Y-12665000D02*
X8431762Y-12617381D01*
X8431762Y-12617381D02*
X8431762Y-12579286D01*
X8431762Y-12579286D02*
X8441286Y-12531667D01*
X8441286Y-12531667D02*
X8450810Y-12503095D01*
X8450810Y-12503095D02*
X8460334Y-12484048D01*
X8460334Y-12484048D02*
X8479381Y-12455476D01*
X8479381Y-12455476D02*
X8488905Y-12445952D01*
X8650810Y-12541190D02*
X8650810Y-12674524D01*
X8603191Y-12465000D02*
X8555572Y-12607857D01*
X8555572Y-12607857D02*
X8679381Y-12607857D01*
X8736524Y-12474524D02*
X8860334Y-12474524D01*
X8860334Y-12474524D02*
X8793667Y-12550714D01*
X8793667Y-12550714D02*
X8822238Y-12550714D01*
X8822238Y-12550714D02*
X8841286Y-12560238D01*
X8841286Y-12560238D02*
X8850810Y-12569762D01*
X8850810Y-12569762D02*
X8860334Y-12588809D01*
X8860334Y-12588809D02*
X8860334Y-12636428D01*
X8860334Y-12636428D02*
X8850810Y-12655476D01*
X8850810Y-12655476D02*
X8841286Y-12665000D01*
X8841286Y-12665000D02*
X8822238Y-12674524D01*
X8822238Y-12674524D02*
X8765096Y-12674524D01*
X8765096Y-12674524D02*
X8746048Y-12665000D01*
X8746048Y-12665000D02*
X8736524Y-12655476D01*
X9031762Y-12474524D02*
X8993667Y-12474524D01*
X8993667Y-12474524D02*
X8974619Y-12484048D01*
X8974619Y-12484048D02*
X8965096Y-12493571D01*
X8965096Y-12493571D02*
X8946048Y-12522143D01*
X8946048Y-12522143D02*
X8936524Y-12560238D01*
X8936524Y-12560238D02*
X8936524Y-12636428D01*
X8936524Y-12636428D02*
X8946048Y-12655476D01*
X8946048Y-12655476D02*
X8955572Y-12665000D01*
X8955572Y-12665000D02*
X8974619Y-12674524D01*
X8974619Y-12674524D02*
X9012715Y-12674524D01*
X9012715Y-12674524D02*
X9031762Y-12665000D01*
X9031762Y-12665000D02*
X9041286Y-12655476D01*
X9041286Y-12655476D02*
X9050810Y-12636428D01*
X9050810Y-12636428D02*
X9050810Y-12588809D01*
X9050810Y-12588809D02*
X9041286Y-12569762D01*
X9041286Y-12569762D02*
X9031762Y-12560238D01*
X9031762Y-12560238D02*
X9012715Y-12550714D01*
X9012715Y-12550714D02*
X8974619Y-12550714D01*
X8974619Y-12550714D02*
X8955572Y-12560238D01*
X8955572Y-12560238D02*
X8946048Y-12569762D01*
X8946048Y-12569762D02*
X8936524Y-12588809D01*
X9288905Y-12674524D02*
X9288905Y-12474524D01*
X9374619Y-12674524D02*
X9374619Y-12569762D01*
X9374619Y-12569762D02*
X9365096Y-12550714D01*
X9365096Y-12550714D02*
X9346048Y-12541190D01*
X9346048Y-12541190D02*
X9317477Y-12541190D01*
X9317477Y-12541190D02*
X9298429Y-12550714D01*
X9298429Y-12550714D02*
X9288905Y-12560238D01*
X9498429Y-12674524D02*
X9479381Y-12665000D01*
X9479381Y-12665000D02*
X9469858Y-12655476D01*
X9469858Y-12655476D02*
X9460334Y-12636428D01*
X9460334Y-12636428D02*
X9460334Y-12579286D01*
X9460334Y-12579286D02*
X9469858Y-12560238D01*
X9469858Y-12560238D02*
X9479381Y-12550714D01*
X9479381Y-12550714D02*
X9498429Y-12541190D01*
X9498429Y-12541190D02*
X9527000Y-12541190D01*
X9527000Y-12541190D02*
X9546048Y-12550714D01*
X9546048Y-12550714D02*
X9555572Y-12560238D01*
X9555572Y-12560238D02*
X9565096Y-12579286D01*
X9565096Y-12579286D02*
X9565096Y-12636428D01*
X9565096Y-12636428D02*
X9555572Y-12655476D01*
X9555572Y-12655476D02*
X9546048Y-12665000D01*
X9546048Y-12665000D02*
X9527000Y-12674524D01*
X9527000Y-12674524D02*
X9498429Y-12674524D01*
X9679381Y-12674524D02*
X9660334Y-12665000D01*
X9660334Y-12665000D02*
X9650810Y-12645952D01*
X9650810Y-12645952D02*
X9650810Y-12474524D01*
X9831762Y-12665000D02*
X9812715Y-12674524D01*
X9812715Y-12674524D02*
X9774619Y-12674524D01*
X9774619Y-12674524D02*
X9755572Y-12665000D01*
X9755572Y-12665000D02*
X9746048Y-12645952D01*
X9746048Y-12645952D02*
X9746048Y-12569762D01*
X9746048Y-12569762D02*
X9755572Y-12550714D01*
X9755572Y-12550714D02*
X9774619Y-12541190D01*
X9774619Y-12541190D02*
X9812715Y-12541190D01*
X9812715Y-12541190D02*
X9831762Y-12550714D01*
X9831762Y-12550714D02*
X9841286Y-12569762D01*
X9841286Y-12569762D02*
X9841286Y-12588809D01*
X9841286Y-12588809D02*
X9746048Y-12607857D01*
X9917477Y-12665000D02*
X9936524Y-12674524D01*
X9936524Y-12674524D02*
X9974619Y-12674524D01*
X9974619Y-12674524D02*
X9993667Y-12665000D01*
X9993667Y-12665000D02*
X10003191Y-12645952D01*
X10003191Y-12645952D02*
X10003191Y-12636428D01*
X10003191Y-12636428D02*
X9993667Y-12617381D01*
X9993667Y-12617381D02*
X9974619Y-12607857D01*
X9974619Y-12607857D02*
X9946048Y-12607857D01*
X9946048Y-12607857D02*
X9927000Y-12598333D01*
X9927000Y-12598333D02*
X9917477Y-12579286D01*
X9917477Y-12579286D02*
X9917477Y-12569762D01*
X9917477Y-12569762D02*
X9927000Y-12550714D01*
X9927000Y-12550714D02*
X9946048Y-12541190D01*
X9946048Y-12541190D02*
X9974619Y-12541190D01*
X9974619Y-12541190D02*
X9993667Y-12550714D01*
X10069858Y-12750714D02*
X10079381Y-12741190D01*
X10079381Y-12741190D02*
X10098429Y-12712619D01*
X10098429Y-12712619D02*
X10107953Y-12693571D01*
X10107953Y-12693571D02*
X10117477Y-12665000D01*
X10117477Y-12665000D02*
X10127000Y-12617381D01*
X10127000Y-12617381D02*
X10127000Y-12579286D01*
X10127000Y-12579286D02*
X10117477Y-12531667D01*
X10117477Y-12531667D02*
X10107953Y-12503095D01*
X10107953Y-12503095D02*
X10098429Y-12484048D01*
X10098429Y-12484048D02*
X10079381Y-12455476D01*
X10079381Y-12455476D02*
X10069858Y-12445952D01*
D13*
X4927000Y-12846000D02*
G75*
G03*
X4927000Y-12846000I-30000J0D01*
G01*
D11*
X5212714Y-12738524D02*
X5231762Y-12738524D01*
X5231762Y-12738524D02*
X5250810Y-12748048D01*
X5250810Y-12748048D02*
X5260333Y-12757571D01*
X5260333Y-12757571D02*
X5269857Y-12776619D01*
X5269857Y-12776619D02*
X5279381Y-12814714D01*
X5279381Y-12814714D02*
X5279381Y-12862333D01*
X5279381Y-12862333D02*
X5269857Y-12900428D01*
X5269857Y-12900428D02*
X5260333Y-12919476D01*
X5260333Y-12919476D02*
X5250810Y-12929000D01*
X5250810Y-12929000D02*
X5231762Y-12938524D01*
X5231762Y-12938524D02*
X5212714Y-12938524D01*
X5212714Y-12938524D02*
X5193667Y-12929000D01*
X5193667Y-12929000D02*
X5184143Y-12919476D01*
X5184143Y-12919476D02*
X5174619Y-12900428D01*
X5174619Y-12900428D02*
X5165095Y-12862333D01*
X5165095Y-12862333D02*
X5165095Y-12814714D01*
X5165095Y-12814714D02*
X5174619Y-12776619D01*
X5174619Y-12776619D02*
X5184143Y-12757571D01*
X5184143Y-12757571D02*
X5193667Y-12748048D01*
X5193667Y-12748048D02*
X5212714Y-12738524D01*
X5365095Y-12919476D02*
X5374619Y-12929000D01*
X5374619Y-12929000D02*
X5365095Y-12938524D01*
X5365095Y-12938524D02*
X5355571Y-12929000D01*
X5355571Y-12929000D02*
X5365095Y-12919476D01*
X5365095Y-12919476D02*
X5365095Y-12938524D01*
X5546048Y-12738524D02*
X5507952Y-12738524D01*
X5507952Y-12738524D02*
X5488905Y-12748048D01*
X5488905Y-12748048D02*
X5479381Y-12757571D01*
X5479381Y-12757571D02*
X5460333Y-12786143D01*
X5460333Y-12786143D02*
X5450810Y-12824238D01*
X5450810Y-12824238D02*
X5450810Y-12900428D01*
X5450810Y-12900428D02*
X5460333Y-12919476D01*
X5460333Y-12919476D02*
X5469857Y-12929000D01*
X5469857Y-12929000D02*
X5488905Y-12938524D01*
X5488905Y-12938524D02*
X5527000Y-12938524D01*
X5527000Y-12938524D02*
X5546048Y-12929000D01*
X5546048Y-12929000D02*
X5555571Y-12919476D01*
X5555571Y-12919476D02*
X5565095Y-12900428D01*
X5565095Y-12900428D02*
X5565095Y-12852809D01*
X5565095Y-12852809D02*
X5555571Y-12833762D01*
X5555571Y-12833762D02*
X5546048Y-12824238D01*
X5546048Y-12824238D02*
X5527000Y-12814714D01*
X5527000Y-12814714D02*
X5488905Y-12814714D01*
X5488905Y-12814714D02*
X5469857Y-12824238D01*
X5469857Y-12824238D02*
X5460333Y-12833762D01*
X5460333Y-12833762D02*
X5450810Y-12852809D01*
X5688905Y-12738524D02*
X5707952Y-12738524D01*
X5707952Y-12738524D02*
X5727000Y-12748048D01*
X5727000Y-12748048D02*
X5736524Y-12757571D01*
X5736524Y-12757571D02*
X5746048Y-12776619D01*
X5746048Y-12776619D02*
X5755571Y-12814714D01*
X5755571Y-12814714D02*
X5755571Y-12862333D01*
X5755571Y-12862333D02*
X5746048Y-12900428D01*
X5746048Y-12900428D02*
X5736524Y-12919476D01*
X5736524Y-12919476D02*
X5727000Y-12929000D01*
X5727000Y-12929000D02*
X5707952Y-12938524D01*
X5707952Y-12938524D02*
X5688905Y-12938524D01*
X5688905Y-12938524D02*
X5669857Y-12929000D01*
X5669857Y-12929000D02*
X5660333Y-12919476D01*
X5660333Y-12919476D02*
X5650809Y-12900428D01*
X5650809Y-12900428D02*
X5641286Y-12862333D01*
X5641286Y-12862333D02*
X5641286Y-12814714D01*
X5641286Y-12814714D02*
X5650809Y-12776619D01*
X5650809Y-12776619D02*
X5660333Y-12757571D01*
X5660333Y-12757571D02*
X5669857Y-12748048D01*
X5669857Y-12748048D02*
X5688905Y-12738524D01*
X5879381Y-12738524D02*
X5898429Y-12738524D01*
X5898429Y-12738524D02*
X5917476Y-12748048D01*
X5917476Y-12748048D02*
X5927000Y-12757571D01*
X5927000Y-12757571D02*
X5936524Y-12776619D01*
X5936524Y-12776619D02*
X5946048Y-12814714D01*
X5946048Y-12814714D02*
X5946048Y-12862333D01*
X5946048Y-12862333D02*
X5936524Y-12900428D01*
X5936524Y-12900428D02*
X5927000Y-12919476D01*
X5927000Y-12919476D02*
X5917476Y-12929000D01*
X5917476Y-12929000D02*
X5898429Y-12938524D01*
X5898429Y-12938524D02*
X5879381Y-12938524D01*
X5879381Y-12938524D02*
X5860333Y-12929000D01*
X5860333Y-12929000D02*
X5850809Y-12919476D01*
X5850809Y-12919476D02*
X5841286Y-12900428D01*
X5841286Y-12900428D02*
X5831762Y-12862333D01*
X5831762Y-12862333D02*
X5831762Y-12814714D01*
X5831762Y-12814714D02*
X5841286Y-12776619D01*
X5841286Y-12776619D02*
X5850809Y-12757571D01*
X5850809Y-12757571D02*
X5860333Y-12748048D01*
X5860333Y-12748048D02*
X5879381Y-12738524D01*
X6031762Y-12938524D02*
X6031762Y-12805190D01*
X6031762Y-12824238D02*
X6041286Y-12814714D01*
X6041286Y-12814714D02*
X6060333Y-12805190D01*
X6060333Y-12805190D02*
X6088905Y-12805190D01*
X6088905Y-12805190D02*
X6107952Y-12814714D01*
X6107952Y-12814714D02*
X6117476Y-12833762D01*
X6117476Y-12833762D02*
X6117476Y-12938524D01*
X6117476Y-12833762D02*
X6127000Y-12814714D01*
X6127000Y-12814714D02*
X6146048Y-12805190D01*
X6146048Y-12805190D02*
X6174619Y-12805190D01*
X6174619Y-12805190D02*
X6193667Y-12814714D01*
X6193667Y-12814714D02*
X6203190Y-12833762D01*
X6203190Y-12833762D02*
X6203190Y-12938524D01*
X6298429Y-12938524D02*
X6298429Y-12805190D01*
X6298429Y-12824238D02*
X6307952Y-12814714D01*
X6307952Y-12814714D02*
X6327000Y-12805190D01*
X6327000Y-12805190D02*
X6355571Y-12805190D01*
X6355571Y-12805190D02*
X6374619Y-12814714D01*
X6374619Y-12814714D02*
X6384143Y-12833762D01*
X6384143Y-12833762D02*
X6384143Y-12938524D01*
X6384143Y-12833762D02*
X6393667Y-12814714D01*
X6393667Y-12814714D02*
X6412714Y-12805190D01*
X6412714Y-12805190D02*
X6441286Y-12805190D01*
X6441286Y-12805190D02*
X6460333Y-12814714D01*
X6460333Y-12814714D02*
X6469857Y-12833762D01*
X6469857Y-12833762D02*
X6469857Y-12938524D01*
X6860333Y-12729000D02*
X6688905Y-12986143D01*
X7117476Y-12738524D02*
X7136524Y-12738524D01*
X7136524Y-12738524D02*
X7155572Y-12748048D01*
X7155572Y-12748048D02*
X7165095Y-12757571D01*
X7165095Y-12757571D02*
X7174619Y-12776619D01*
X7174619Y-12776619D02*
X7184143Y-12814714D01*
X7184143Y-12814714D02*
X7184143Y-12862333D01*
X7184143Y-12862333D02*
X7174619Y-12900428D01*
X7174619Y-12900428D02*
X7165095Y-12919476D01*
X7165095Y-12919476D02*
X7155572Y-12929000D01*
X7155572Y-12929000D02*
X7136524Y-12938524D01*
X7136524Y-12938524D02*
X7117476Y-12938524D01*
X7117476Y-12938524D02*
X7098429Y-12929000D01*
X7098429Y-12929000D02*
X7088905Y-12919476D01*
X7088905Y-12919476D02*
X7079381Y-12900428D01*
X7079381Y-12900428D02*
X7069857Y-12862333D01*
X7069857Y-12862333D02*
X7069857Y-12814714D01*
X7069857Y-12814714D02*
X7079381Y-12776619D01*
X7079381Y-12776619D02*
X7088905Y-12757571D01*
X7088905Y-12757571D02*
X7098429Y-12748048D01*
X7098429Y-12748048D02*
X7117476Y-12738524D01*
X7269857Y-12919476D02*
X7279381Y-12929000D01*
X7279381Y-12929000D02*
X7269857Y-12938524D01*
X7269857Y-12938524D02*
X7260333Y-12929000D01*
X7260333Y-12929000D02*
X7269857Y-12919476D01*
X7269857Y-12919476D02*
X7269857Y-12938524D01*
X7403191Y-12738524D02*
X7422238Y-12738524D01*
X7422238Y-12738524D02*
X7441286Y-12748048D01*
X7441286Y-12748048D02*
X7450810Y-12757571D01*
X7450810Y-12757571D02*
X7460333Y-12776619D01*
X7460333Y-12776619D02*
X7469857Y-12814714D01*
X7469857Y-12814714D02*
X7469857Y-12862333D01*
X7469857Y-12862333D02*
X7460333Y-12900428D01*
X7460333Y-12900428D02*
X7450810Y-12919476D01*
X7450810Y-12919476D02*
X7441286Y-12929000D01*
X7441286Y-12929000D02*
X7422238Y-12938524D01*
X7422238Y-12938524D02*
X7403191Y-12938524D01*
X7403191Y-12938524D02*
X7384143Y-12929000D01*
X7384143Y-12929000D02*
X7374619Y-12919476D01*
X7374619Y-12919476D02*
X7365095Y-12900428D01*
X7365095Y-12900428D02*
X7355572Y-12862333D01*
X7355572Y-12862333D02*
X7355572Y-12814714D01*
X7355572Y-12814714D02*
X7365095Y-12776619D01*
X7365095Y-12776619D02*
X7374619Y-12757571D01*
X7374619Y-12757571D02*
X7384143Y-12748048D01*
X7384143Y-12748048D02*
X7403191Y-12738524D01*
X7546048Y-12757571D02*
X7555572Y-12748048D01*
X7555572Y-12748048D02*
X7574619Y-12738524D01*
X7574619Y-12738524D02*
X7622238Y-12738524D01*
X7622238Y-12738524D02*
X7641286Y-12748048D01*
X7641286Y-12748048D02*
X7650810Y-12757571D01*
X7650810Y-12757571D02*
X7660333Y-12776619D01*
X7660333Y-12776619D02*
X7660333Y-12795667D01*
X7660333Y-12795667D02*
X7650810Y-12824238D01*
X7650810Y-12824238D02*
X7536524Y-12938524D01*
X7536524Y-12938524D02*
X7660333Y-12938524D01*
X7727000Y-12738524D02*
X7850810Y-12738524D01*
X7850810Y-12738524D02*
X7784143Y-12814714D01*
X7784143Y-12814714D02*
X7812714Y-12814714D01*
X7812714Y-12814714D02*
X7831762Y-12824238D01*
X7831762Y-12824238D02*
X7841286Y-12833762D01*
X7841286Y-12833762D02*
X7850810Y-12852809D01*
X7850810Y-12852809D02*
X7850810Y-12900428D01*
X7850810Y-12900428D02*
X7841286Y-12919476D01*
X7841286Y-12919476D02*
X7831762Y-12929000D01*
X7831762Y-12929000D02*
X7812714Y-12938524D01*
X7812714Y-12938524D02*
X7755572Y-12938524D01*
X7755572Y-12938524D02*
X7736524Y-12929000D01*
X7736524Y-12929000D02*
X7727000Y-12919476D01*
X8022238Y-12738524D02*
X7984143Y-12738524D01*
X7984143Y-12738524D02*
X7965095Y-12748048D01*
X7965095Y-12748048D02*
X7955572Y-12757571D01*
X7955572Y-12757571D02*
X7936524Y-12786143D01*
X7936524Y-12786143D02*
X7927000Y-12824238D01*
X7927000Y-12824238D02*
X7927000Y-12900428D01*
X7927000Y-12900428D02*
X7936524Y-12919476D01*
X7936524Y-12919476D02*
X7946048Y-12929000D01*
X7946048Y-12929000D02*
X7965095Y-12938524D01*
X7965095Y-12938524D02*
X8003191Y-12938524D01*
X8003191Y-12938524D02*
X8022238Y-12929000D01*
X8022238Y-12929000D02*
X8031762Y-12919476D01*
X8031762Y-12919476D02*
X8041286Y-12900428D01*
X8041286Y-12900428D02*
X8041286Y-12852809D01*
X8041286Y-12852809D02*
X8031762Y-12833762D01*
X8031762Y-12833762D02*
X8022238Y-12824238D01*
X8022238Y-12824238D02*
X8003191Y-12814714D01*
X8003191Y-12814714D02*
X7965095Y-12814714D01*
X7965095Y-12814714D02*
X7946048Y-12824238D01*
X7946048Y-12824238D02*
X7936524Y-12833762D01*
X7936524Y-12833762D02*
X7927000Y-12852809D01*
X8117476Y-12738524D02*
X8117476Y-12776619D01*
X8193667Y-12738524D02*
X8193667Y-12776619D01*
X8488905Y-13014714D02*
X8479381Y-13005190D01*
X8479381Y-13005190D02*
X8460334Y-12976619D01*
X8460334Y-12976619D02*
X8450810Y-12957571D01*
X8450810Y-12957571D02*
X8441286Y-12929000D01*
X8441286Y-12929000D02*
X8431762Y-12881381D01*
X8431762Y-12881381D02*
X8431762Y-12843286D01*
X8431762Y-12843286D02*
X8441286Y-12795667D01*
X8441286Y-12795667D02*
X8450810Y-12767095D01*
X8450810Y-12767095D02*
X8460334Y-12748048D01*
X8460334Y-12748048D02*
X8479381Y-12719476D01*
X8479381Y-12719476D02*
X8488905Y-12709952D01*
X8603191Y-12738524D02*
X8622238Y-12738524D01*
X8622238Y-12738524D02*
X8641286Y-12748048D01*
X8641286Y-12748048D02*
X8650810Y-12757571D01*
X8650810Y-12757571D02*
X8660334Y-12776619D01*
X8660334Y-12776619D02*
X8669857Y-12814714D01*
X8669857Y-12814714D02*
X8669857Y-12862333D01*
X8669857Y-12862333D02*
X8660334Y-12900428D01*
X8660334Y-12900428D02*
X8650810Y-12919476D01*
X8650810Y-12919476D02*
X8641286Y-12929000D01*
X8641286Y-12929000D02*
X8622238Y-12938524D01*
X8622238Y-12938524D02*
X8603191Y-12938524D01*
X8603191Y-12938524D02*
X8584143Y-12929000D01*
X8584143Y-12929000D02*
X8574619Y-12919476D01*
X8574619Y-12919476D02*
X8565096Y-12900428D01*
X8565096Y-12900428D02*
X8555572Y-12862333D01*
X8555572Y-12862333D02*
X8555572Y-12814714D01*
X8555572Y-12814714D02*
X8565096Y-12776619D01*
X8565096Y-12776619D02*
X8574619Y-12757571D01*
X8574619Y-12757571D02*
X8584143Y-12748048D01*
X8584143Y-12748048D02*
X8603191Y-12738524D01*
X8907953Y-12938524D02*
X8907953Y-12738524D01*
X8993667Y-12938524D02*
X8993667Y-12833762D01*
X8993667Y-12833762D02*
X8984143Y-12814714D01*
X8984143Y-12814714D02*
X8965096Y-12805190D01*
X8965096Y-12805190D02*
X8936524Y-12805190D01*
X8936524Y-12805190D02*
X8917477Y-12814714D01*
X8917477Y-12814714D02*
X8907953Y-12824238D01*
X9117477Y-12938524D02*
X9098429Y-12929000D01*
X9098429Y-12929000D02*
X9088905Y-12919476D01*
X9088905Y-12919476D02*
X9079381Y-12900428D01*
X9079381Y-12900428D02*
X9079381Y-12843286D01*
X9079381Y-12843286D02*
X9088905Y-12824238D01*
X9088905Y-12824238D02*
X9098429Y-12814714D01*
X9098429Y-12814714D02*
X9117477Y-12805190D01*
X9117477Y-12805190D02*
X9146048Y-12805190D01*
X9146048Y-12805190D02*
X9165096Y-12814714D01*
X9165096Y-12814714D02*
X9174619Y-12824238D01*
X9174619Y-12824238D02*
X9184143Y-12843286D01*
X9184143Y-12843286D02*
X9184143Y-12900428D01*
X9184143Y-12900428D02*
X9174619Y-12919476D01*
X9174619Y-12919476D02*
X9165096Y-12929000D01*
X9165096Y-12929000D02*
X9146048Y-12938524D01*
X9146048Y-12938524D02*
X9117477Y-12938524D01*
X9298429Y-12938524D02*
X9279381Y-12929000D01*
X9279381Y-12929000D02*
X9269858Y-12909952D01*
X9269858Y-12909952D02*
X9269858Y-12738524D01*
X9450810Y-12929000D02*
X9431762Y-12938524D01*
X9431762Y-12938524D02*
X9393667Y-12938524D01*
X9393667Y-12938524D02*
X9374619Y-12929000D01*
X9374619Y-12929000D02*
X9365096Y-12909952D01*
X9365096Y-12909952D02*
X9365096Y-12833762D01*
X9365096Y-12833762D02*
X9374619Y-12814714D01*
X9374619Y-12814714D02*
X9393667Y-12805190D01*
X9393667Y-12805190D02*
X9431762Y-12805190D01*
X9431762Y-12805190D02*
X9450810Y-12814714D01*
X9450810Y-12814714D02*
X9460334Y-12833762D01*
X9460334Y-12833762D02*
X9460334Y-12852809D01*
X9460334Y-12852809D02*
X9365096Y-12871857D01*
X9536524Y-12929000D02*
X9555572Y-12938524D01*
X9555572Y-12938524D02*
X9593667Y-12938524D01*
X9593667Y-12938524D02*
X9612715Y-12929000D01*
X9612715Y-12929000D02*
X9622239Y-12909952D01*
X9622239Y-12909952D02*
X9622239Y-12900428D01*
X9622239Y-12900428D02*
X9612715Y-12881381D01*
X9612715Y-12881381D02*
X9593667Y-12871857D01*
X9593667Y-12871857D02*
X9565096Y-12871857D01*
X9565096Y-12871857D02*
X9546048Y-12862333D01*
X9546048Y-12862333D02*
X9536524Y-12843286D01*
X9536524Y-12843286D02*
X9536524Y-12833762D01*
X9536524Y-12833762D02*
X9546048Y-12814714D01*
X9546048Y-12814714D02*
X9565096Y-12805190D01*
X9565096Y-12805190D02*
X9593667Y-12805190D01*
X9593667Y-12805190D02*
X9612715Y-12814714D01*
X9860334Y-12862333D02*
X10012715Y-12862333D01*
X9936524Y-12938524D02*
X9936524Y-12786143D01*
X10346048Y-12805190D02*
X10346048Y-12938524D01*
X10298429Y-12729000D02*
X10250810Y-12871857D01*
X10250810Y-12871857D02*
X10374620Y-12871857D01*
X10593667Y-12929000D02*
X10612715Y-12938524D01*
X10612715Y-12938524D02*
X10650810Y-12938524D01*
X10650810Y-12938524D02*
X10669858Y-12929000D01*
X10669858Y-12929000D02*
X10679382Y-12909952D01*
X10679382Y-12909952D02*
X10679382Y-12900428D01*
X10679382Y-12900428D02*
X10669858Y-12881381D01*
X10669858Y-12881381D02*
X10650810Y-12871857D01*
X10650810Y-12871857D02*
X10622239Y-12871857D01*
X10622239Y-12871857D02*
X10603191Y-12862333D01*
X10603191Y-12862333D02*
X10593667Y-12843286D01*
X10593667Y-12843286D02*
X10593667Y-12833762D01*
X10593667Y-12833762D02*
X10603191Y-12814714D01*
X10603191Y-12814714D02*
X10622239Y-12805190D01*
X10622239Y-12805190D02*
X10650810Y-12805190D01*
X10650810Y-12805190D02*
X10669858Y-12814714D01*
X10793667Y-12938524D02*
X10774620Y-12929000D01*
X10774620Y-12929000D02*
X10765096Y-12909952D01*
X10765096Y-12909952D02*
X10765096Y-12738524D01*
X10898429Y-12938524D02*
X10879382Y-12929000D01*
X10879382Y-12929000D02*
X10869858Y-12919476D01*
X10869858Y-12919476D02*
X10860334Y-12900428D01*
X10860334Y-12900428D02*
X10860334Y-12843286D01*
X10860334Y-12843286D02*
X10869858Y-12824238D01*
X10869858Y-12824238D02*
X10879382Y-12814714D01*
X10879382Y-12814714D02*
X10898429Y-12805190D01*
X10898429Y-12805190D02*
X10927001Y-12805190D01*
X10927001Y-12805190D02*
X10946048Y-12814714D01*
X10946048Y-12814714D02*
X10955572Y-12824238D01*
X10955572Y-12824238D02*
X10965096Y-12843286D01*
X10965096Y-12843286D02*
X10965096Y-12900428D01*
X10965096Y-12900428D02*
X10955572Y-12919476D01*
X10955572Y-12919476D02*
X10946048Y-12929000D01*
X10946048Y-12929000D02*
X10927001Y-12938524D01*
X10927001Y-12938524D02*
X10898429Y-12938524D01*
X11022239Y-12805190D02*
X11098429Y-12805190D01*
X11050810Y-12738524D02*
X11050810Y-12909952D01*
X11050810Y-12909952D02*
X11060334Y-12929000D01*
X11060334Y-12929000D02*
X11079382Y-12938524D01*
X11079382Y-12938524D02*
X11098429Y-12938524D01*
X11155572Y-12929000D02*
X11174620Y-12938524D01*
X11174620Y-12938524D02*
X11212715Y-12938524D01*
X11212715Y-12938524D02*
X11231762Y-12929000D01*
X11231762Y-12929000D02*
X11241286Y-12909952D01*
X11241286Y-12909952D02*
X11241286Y-12900428D01*
X11241286Y-12900428D02*
X11231762Y-12881381D01*
X11231762Y-12881381D02*
X11212715Y-12871857D01*
X11212715Y-12871857D02*
X11184143Y-12871857D01*
X11184143Y-12871857D02*
X11165096Y-12862333D01*
X11165096Y-12862333D02*
X11155572Y-12843286D01*
X11155572Y-12843286D02*
X11155572Y-12833762D01*
X11155572Y-12833762D02*
X11165096Y-12814714D01*
X11165096Y-12814714D02*
X11184143Y-12805190D01*
X11184143Y-12805190D02*
X11212715Y-12805190D01*
X11212715Y-12805190D02*
X11231762Y-12814714D01*
X11307953Y-13014714D02*
X11317477Y-13005190D01*
X11317477Y-13005190D02*
X11336524Y-12976619D01*
X11336524Y-12976619D02*
X11346048Y-12957571D01*
X11346048Y-12957571D02*
X11355572Y-12929000D01*
X11355572Y-12929000D02*
X11365096Y-12881381D01*
X11365096Y-12881381D02*
X11365096Y-12843286D01*
X11365096Y-12843286D02*
X11355572Y-12795667D01*
X11355572Y-12795667D02*
X11346048Y-12767095D01*
X11346048Y-12767095D02*
X11336524Y-12748048D01*
X11336524Y-12748048D02*
X11317477Y-12719476D01*
X11317477Y-12719476D02*
X11307953Y-12709952D01*
D10*
X4877000Y-13060000D02*
X4877000Y-13160000D01*
X4827000Y-13110000D02*
X4927000Y-13110000D01*
D11*
X5279381Y-13202524D02*
X5165095Y-13202524D01*
X5222238Y-13202524D02*
X5222238Y-13002524D01*
X5222238Y-13002524D02*
X5203190Y-13031095D01*
X5203190Y-13031095D02*
X5184143Y-13050143D01*
X5184143Y-13050143D02*
X5165095Y-13059667D01*
X5365095Y-13183476D02*
X5374619Y-13193000D01*
X5374619Y-13193000D02*
X5365095Y-13202524D01*
X5365095Y-13202524D02*
X5355571Y-13193000D01*
X5355571Y-13193000D02*
X5365095Y-13183476D01*
X5365095Y-13183476D02*
X5365095Y-13202524D01*
X5498429Y-13002524D02*
X5517476Y-13002524D01*
X5517476Y-13002524D02*
X5536524Y-13012048D01*
X5536524Y-13012048D02*
X5546048Y-13021571D01*
X5546048Y-13021571D02*
X5555571Y-13040619D01*
X5555571Y-13040619D02*
X5565095Y-13078714D01*
X5565095Y-13078714D02*
X5565095Y-13126333D01*
X5565095Y-13126333D02*
X5555571Y-13164428D01*
X5555571Y-13164428D02*
X5546048Y-13183476D01*
X5546048Y-13183476D02*
X5536524Y-13193000D01*
X5536524Y-13193000D02*
X5517476Y-13202524D01*
X5517476Y-13202524D02*
X5498429Y-13202524D01*
X5498429Y-13202524D02*
X5479381Y-13193000D01*
X5479381Y-13193000D02*
X5469857Y-13183476D01*
X5469857Y-13183476D02*
X5460333Y-13164428D01*
X5460333Y-13164428D02*
X5450810Y-13126333D01*
X5450810Y-13126333D02*
X5450810Y-13078714D01*
X5450810Y-13078714D02*
X5460333Y-13040619D01*
X5460333Y-13040619D02*
X5469857Y-13021571D01*
X5469857Y-13021571D02*
X5479381Y-13012048D01*
X5479381Y-13012048D02*
X5498429Y-13002524D01*
X5688905Y-13002524D02*
X5707952Y-13002524D01*
X5707952Y-13002524D02*
X5727000Y-13012048D01*
X5727000Y-13012048D02*
X5736524Y-13021571D01*
X5736524Y-13021571D02*
X5746048Y-13040619D01*
X5746048Y-13040619D02*
X5755571Y-13078714D01*
X5755571Y-13078714D02*
X5755571Y-13126333D01*
X5755571Y-13126333D02*
X5746048Y-13164428D01*
X5746048Y-13164428D02*
X5736524Y-13183476D01*
X5736524Y-13183476D02*
X5727000Y-13193000D01*
X5727000Y-13193000D02*
X5707952Y-13202524D01*
X5707952Y-13202524D02*
X5688905Y-13202524D01*
X5688905Y-13202524D02*
X5669857Y-13193000D01*
X5669857Y-13193000D02*
X5660333Y-13183476D01*
X5660333Y-13183476D02*
X5650809Y-13164428D01*
X5650809Y-13164428D02*
X5641286Y-13126333D01*
X5641286Y-13126333D02*
X5641286Y-13078714D01*
X5641286Y-13078714D02*
X5650809Y-13040619D01*
X5650809Y-13040619D02*
X5660333Y-13021571D01*
X5660333Y-13021571D02*
X5669857Y-13012048D01*
X5669857Y-13012048D02*
X5688905Y-13002524D01*
X5879381Y-13002524D02*
X5898429Y-13002524D01*
X5898429Y-13002524D02*
X5917476Y-13012048D01*
X5917476Y-13012048D02*
X5927000Y-13021571D01*
X5927000Y-13021571D02*
X5936524Y-13040619D01*
X5936524Y-13040619D02*
X5946048Y-13078714D01*
X5946048Y-13078714D02*
X5946048Y-13126333D01*
X5946048Y-13126333D02*
X5936524Y-13164428D01*
X5936524Y-13164428D02*
X5927000Y-13183476D01*
X5927000Y-13183476D02*
X5917476Y-13193000D01*
X5917476Y-13193000D02*
X5898429Y-13202524D01*
X5898429Y-13202524D02*
X5879381Y-13202524D01*
X5879381Y-13202524D02*
X5860333Y-13193000D01*
X5860333Y-13193000D02*
X5850809Y-13183476D01*
X5850809Y-13183476D02*
X5841286Y-13164428D01*
X5841286Y-13164428D02*
X5831762Y-13126333D01*
X5831762Y-13126333D02*
X5831762Y-13078714D01*
X5831762Y-13078714D02*
X5841286Y-13040619D01*
X5841286Y-13040619D02*
X5850809Y-13021571D01*
X5850809Y-13021571D02*
X5860333Y-13012048D01*
X5860333Y-13012048D02*
X5879381Y-13002524D01*
X6031762Y-13202524D02*
X6031762Y-13069190D01*
X6031762Y-13088238D02*
X6041286Y-13078714D01*
X6041286Y-13078714D02*
X6060333Y-13069190D01*
X6060333Y-13069190D02*
X6088905Y-13069190D01*
X6088905Y-13069190D02*
X6107952Y-13078714D01*
X6107952Y-13078714D02*
X6117476Y-13097762D01*
X6117476Y-13097762D02*
X6117476Y-13202524D01*
X6117476Y-13097762D02*
X6127000Y-13078714D01*
X6127000Y-13078714D02*
X6146048Y-13069190D01*
X6146048Y-13069190D02*
X6174619Y-13069190D01*
X6174619Y-13069190D02*
X6193667Y-13078714D01*
X6193667Y-13078714D02*
X6203190Y-13097762D01*
X6203190Y-13097762D02*
X6203190Y-13202524D01*
X6298429Y-13202524D02*
X6298429Y-13069190D01*
X6298429Y-13088238D02*
X6307952Y-13078714D01*
X6307952Y-13078714D02*
X6327000Y-13069190D01*
X6327000Y-13069190D02*
X6355571Y-13069190D01*
X6355571Y-13069190D02*
X6374619Y-13078714D01*
X6374619Y-13078714D02*
X6384143Y-13097762D01*
X6384143Y-13097762D02*
X6384143Y-13202524D01*
X6384143Y-13097762D02*
X6393667Y-13078714D01*
X6393667Y-13078714D02*
X6412714Y-13069190D01*
X6412714Y-13069190D02*
X6441286Y-13069190D01*
X6441286Y-13069190D02*
X6460333Y-13078714D01*
X6460333Y-13078714D02*
X6469857Y-13097762D01*
X6469857Y-13097762D02*
X6469857Y-13202524D01*
X6860333Y-12993000D02*
X6688905Y-13250143D01*
X7117476Y-13002524D02*
X7136524Y-13002524D01*
X7136524Y-13002524D02*
X7155572Y-13012048D01*
X7155572Y-13012048D02*
X7165095Y-13021571D01*
X7165095Y-13021571D02*
X7174619Y-13040619D01*
X7174619Y-13040619D02*
X7184143Y-13078714D01*
X7184143Y-13078714D02*
X7184143Y-13126333D01*
X7184143Y-13126333D02*
X7174619Y-13164428D01*
X7174619Y-13164428D02*
X7165095Y-13183476D01*
X7165095Y-13183476D02*
X7155572Y-13193000D01*
X7155572Y-13193000D02*
X7136524Y-13202524D01*
X7136524Y-13202524D02*
X7117476Y-13202524D01*
X7117476Y-13202524D02*
X7098429Y-13193000D01*
X7098429Y-13193000D02*
X7088905Y-13183476D01*
X7088905Y-13183476D02*
X7079381Y-13164428D01*
X7079381Y-13164428D02*
X7069857Y-13126333D01*
X7069857Y-13126333D02*
X7069857Y-13078714D01*
X7069857Y-13078714D02*
X7079381Y-13040619D01*
X7079381Y-13040619D02*
X7088905Y-13021571D01*
X7088905Y-13021571D02*
X7098429Y-13012048D01*
X7098429Y-13012048D02*
X7117476Y-13002524D01*
X7269857Y-13183476D02*
X7279381Y-13193000D01*
X7279381Y-13193000D02*
X7269857Y-13202524D01*
X7269857Y-13202524D02*
X7260333Y-13193000D01*
X7260333Y-13193000D02*
X7269857Y-13183476D01*
X7269857Y-13183476D02*
X7269857Y-13202524D01*
X7403191Y-13002524D02*
X7422238Y-13002524D01*
X7422238Y-13002524D02*
X7441286Y-13012048D01*
X7441286Y-13012048D02*
X7450810Y-13021571D01*
X7450810Y-13021571D02*
X7460333Y-13040619D01*
X7460333Y-13040619D02*
X7469857Y-13078714D01*
X7469857Y-13078714D02*
X7469857Y-13126333D01*
X7469857Y-13126333D02*
X7460333Y-13164428D01*
X7460333Y-13164428D02*
X7450810Y-13183476D01*
X7450810Y-13183476D02*
X7441286Y-13193000D01*
X7441286Y-13193000D02*
X7422238Y-13202524D01*
X7422238Y-13202524D02*
X7403191Y-13202524D01*
X7403191Y-13202524D02*
X7384143Y-13193000D01*
X7384143Y-13193000D02*
X7374619Y-13183476D01*
X7374619Y-13183476D02*
X7365095Y-13164428D01*
X7365095Y-13164428D02*
X7355572Y-13126333D01*
X7355572Y-13126333D02*
X7355572Y-13078714D01*
X7355572Y-13078714D02*
X7365095Y-13040619D01*
X7365095Y-13040619D02*
X7374619Y-13021571D01*
X7374619Y-13021571D02*
X7384143Y-13012048D01*
X7384143Y-13012048D02*
X7403191Y-13002524D01*
X7536524Y-13002524D02*
X7660333Y-13002524D01*
X7660333Y-13002524D02*
X7593667Y-13078714D01*
X7593667Y-13078714D02*
X7622238Y-13078714D01*
X7622238Y-13078714D02*
X7641286Y-13088238D01*
X7641286Y-13088238D02*
X7650810Y-13097762D01*
X7650810Y-13097762D02*
X7660333Y-13116809D01*
X7660333Y-13116809D02*
X7660333Y-13164428D01*
X7660333Y-13164428D02*
X7650810Y-13183476D01*
X7650810Y-13183476D02*
X7641286Y-13193000D01*
X7641286Y-13193000D02*
X7622238Y-13202524D01*
X7622238Y-13202524D02*
X7565095Y-13202524D01*
X7565095Y-13202524D02*
X7546048Y-13193000D01*
X7546048Y-13193000D02*
X7536524Y-13183476D01*
X7755572Y-13202524D02*
X7793667Y-13202524D01*
X7793667Y-13202524D02*
X7812714Y-13193000D01*
X7812714Y-13193000D02*
X7822238Y-13183476D01*
X7822238Y-13183476D02*
X7841286Y-13154905D01*
X7841286Y-13154905D02*
X7850810Y-13116809D01*
X7850810Y-13116809D02*
X7850810Y-13040619D01*
X7850810Y-13040619D02*
X7841286Y-13021571D01*
X7841286Y-13021571D02*
X7831762Y-13012048D01*
X7831762Y-13012048D02*
X7812714Y-13002524D01*
X7812714Y-13002524D02*
X7774619Y-13002524D01*
X7774619Y-13002524D02*
X7755572Y-13012048D01*
X7755572Y-13012048D02*
X7746048Y-13021571D01*
X7746048Y-13021571D02*
X7736524Y-13040619D01*
X7736524Y-13040619D02*
X7736524Y-13088238D01*
X7736524Y-13088238D02*
X7746048Y-13107286D01*
X7746048Y-13107286D02*
X7755572Y-13116809D01*
X7755572Y-13116809D02*
X7774619Y-13126333D01*
X7774619Y-13126333D02*
X7812714Y-13126333D01*
X7812714Y-13126333D02*
X7831762Y-13116809D01*
X7831762Y-13116809D02*
X7841286Y-13107286D01*
X7841286Y-13107286D02*
X7850810Y-13088238D01*
X8022238Y-13069190D02*
X8022238Y-13202524D01*
X7974619Y-12993000D02*
X7927000Y-13135857D01*
X7927000Y-13135857D02*
X8050810Y-13135857D01*
X8117476Y-13002524D02*
X8117476Y-13040619D01*
X8193667Y-13002524D02*
X8193667Y-13040619D01*
X8488905Y-13278714D02*
X8479381Y-13269190D01*
X8479381Y-13269190D02*
X8460334Y-13240619D01*
X8460334Y-13240619D02*
X8450810Y-13221571D01*
X8450810Y-13221571D02*
X8441286Y-13193000D01*
X8441286Y-13193000D02*
X8431762Y-13145381D01*
X8431762Y-13145381D02*
X8431762Y-13107286D01*
X8431762Y-13107286D02*
X8441286Y-13059667D01*
X8441286Y-13059667D02*
X8450810Y-13031095D01*
X8450810Y-13031095D02*
X8460334Y-13012048D01*
X8460334Y-13012048D02*
X8479381Y-12983476D01*
X8479381Y-12983476D02*
X8488905Y-12973952D01*
X8555572Y-13021571D02*
X8565096Y-13012048D01*
X8565096Y-13012048D02*
X8584143Y-13002524D01*
X8584143Y-13002524D02*
X8631762Y-13002524D01*
X8631762Y-13002524D02*
X8650810Y-13012048D01*
X8650810Y-13012048D02*
X8660334Y-13021571D01*
X8660334Y-13021571D02*
X8669857Y-13040619D01*
X8669857Y-13040619D02*
X8669857Y-13059667D01*
X8669857Y-13059667D02*
X8660334Y-13088238D01*
X8660334Y-13088238D02*
X8546048Y-13202524D01*
X8546048Y-13202524D02*
X8669857Y-13202524D01*
X8736524Y-13002524D02*
X8860334Y-13002524D01*
X8860334Y-13002524D02*
X8793667Y-13078714D01*
X8793667Y-13078714D02*
X8822238Y-13078714D01*
X8822238Y-13078714D02*
X8841286Y-13088238D01*
X8841286Y-13088238D02*
X8850810Y-13097762D01*
X8850810Y-13097762D02*
X8860334Y-13116809D01*
X8860334Y-13116809D02*
X8860334Y-13164428D01*
X8860334Y-13164428D02*
X8850810Y-13183476D01*
X8850810Y-13183476D02*
X8841286Y-13193000D01*
X8841286Y-13193000D02*
X8822238Y-13202524D01*
X8822238Y-13202524D02*
X8765096Y-13202524D01*
X8765096Y-13202524D02*
X8746048Y-13193000D01*
X8746048Y-13193000D02*
X8736524Y-13183476D01*
X9098429Y-13202524D02*
X9098429Y-13002524D01*
X9184143Y-13202524D02*
X9184143Y-13097762D01*
X9184143Y-13097762D02*
X9174619Y-13078714D01*
X9174619Y-13078714D02*
X9155572Y-13069190D01*
X9155572Y-13069190D02*
X9127000Y-13069190D01*
X9127000Y-13069190D02*
X9107953Y-13078714D01*
X9107953Y-13078714D02*
X9098429Y-13088238D01*
X9307953Y-13202524D02*
X9288905Y-13193000D01*
X9288905Y-13193000D02*
X9279381Y-13183476D01*
X9279381Y-13183476D02*
X9269858Y-13164428D01*
X9269858Y-13164428D02*
X9269858Y-13107286D01*
X9269858Y-13107286D02*
X9279381Y-13088238D01*
X9279381Y-13088238D02*
X9288905Y-13078714D01*
X9288905Y-13078714D02*
X9307953Y-13069190D01*
X9307953Y-13069190D02*
X9336524Y-13069190D01*
X9336524Y-13069190D02*
X9355572Y-13078714D01*
X9355572Y-13078714D02*
X9365096Y-13088238D01*
X9365096Y-13088238D02*
X9374619Y-13107286D01*
X9374619Y-13107286D02*
X9374619Y-13164428D01*
X9374619Y-13164428D02*
X9365096Y-13183476D01*
X9365096Y-13183476D02*
X9355572Y-13193000D01*
X9355572Y-13193000D02*
X9336524Y-13202524D01*
X9336524Y-13202524D02*
X9307953Y-13202524D01*
X9488905Y-13202524D02*
X9469858Y-13193000D01*
X9469858Y-13193000D02*
X9460334Y-13173952D01*
X9460334Y-13173952D02*
X9460334Y-13002524D01*
X9641286Y-13193000D02*
X9622239Y-13202524D01*
X9622239Y-13202524D02*
X9584143Y-13202524D01*
X9584143Y-13202524D02*
X9565096Y-13193000D01*
X9565096Y-13193000D02*
X9555572Y-13173952D01*
X9555572Y-13173952D02*
X9555572Y-13097762D01*
X9555572Y-13097762D02*
X9565096Y-13078714D01*
X9565096Y-13078714D02*
X9584143Y-13069190D01*
X9584143Y-13069190D02*
X9622239Y-13069190D01*
X9622239Y-13069190D02*
X9641286Y-13078714D01*
X9641286Y-13078714D02*
X9650810Y-13097762D01*
X9650810Y-13097762D02*
X9650810Y-13116809D01*
X9650810Y-13116809D02*
X9555572Y-13135857D01*
X9727000Y-13193000D02*
X9746048Y-13202524D01*
X9746048Y-13202524D02*
X9784143Y-13202524D01*
X9784143Y-13202524D02*
X9803191Y-13193000D01*
X9803191Y-13193000D02*
X9812715Y-13173952D01*
X9812715Y-13173952D02*
X9812715Y-13164428D01*
X9812715Y-13164428D02*
X9803191Y-13145381D01*
X9803191Y-13145381D02*
X9784143Y-13135857D01*
X9784143Y-13135857D02*
X9755572Y-13135857D01*
X9755572Y-13135857D02*
X9736524Y-13126333D01*
X9736524Y-13126333D02*
X9727000Y-13107286D01*
X9727000Y-13107286D02*
X9727000Y-13097762D01*
X9727000Y-13097762D02*
X9736524Y-13078714D01*
X9736524Y-13078714D02*
X9755572Y-13069190D01*
X9755572Y-13069190D02*
X9784143Y-13069190D01*
X9784143Y-13069190D02*
X9803191Y-13078714D01*
X9879381Y-13278714D02*
X9888905Y-13269190D01*
X9888905Y-13269190D02*
X9907953Y-13240619D01*
X9907953Y-13240619D02*
X9917477Y-13221571D01*
X9917477Y-13221571D02*
X9927000Y-13193000D01*
X9927000Y-13193000D02*
X9936524Y-13145381D01*
X9936524Y-13145381D02*
X9936524Y-13107286D01*
X9936524Y-13107286D02*
X9927000Y-13059667D01*
X9927000Y-13059667D02*
X9917477Y-13031095D01*
X9917477Y-13031095D02*
X9907953Y-13012048D01*
X9907953Y-13012048D02*
X9888905Y-12983476D01*
X9888905Y-12983476D02*
X9879381Y-12973952D01*
D14*
X4909427Y-13416427D02*
X4909427Y-13331573D01*
X4824573Y-13331573D01*
X4824573Y-13416427D01*
X4909427Y-13416427D01*
D11*
X5279381Y-13466524D02*
X5165095Y-13466524D01*
X5222238Y-13466524D02*
X5222238Y-13266524D01*
X5222238Y-13266524D02*
X5203190Y-13295095D01*
X5203190Y-13295095D02*
X5184143Y-13314143D01*
X5184143Y-13314143D02*
X5165095Y-13323667D01*
X5365095Y-13447476D02*
X5374619Y-13457000D01*
X5374619Y-13457000D02*
X5365095Y-13466524D01*
X5365095Y-13466524D02*
X5355571Y-13457000D01*
X5355571Y-13457000D02*
X5365095Y-13447476D01*
X5365095Y-13447476D02*
X5365095Y-13466524D01*
X5450810Y-13285571D02*
X5460333Y-13276048D01*
X5460333Y-13276048D02*
X5479381Y-13266524D01*
X5479381Y-13266524D02*
X5527000Y-13266524D01*
X5527000Y-13266524D02*
X5546048Y-13276048D01*
X5546048Y-13276048D02*
X5555571Y-13285571D01*
X5555571Y-13285571D02*
X5565095Y-13304619D01*
X5565095Y-13304619D02*
X5565095Y-13323667D01*
X5565095Y-13323667D02*
X5555571Y-13352238D01*
X5555571Y-13352238D02*
X5441286Y-13466524D01*
X5441286Y-13466524D02*
X5565095Y-13466524D01*
X5688905Y-13266524D02*
X5707952Y-13266524D01*
X5707952Y-13266524D02*
X5727000Y-13276048D01*
X5727000Y-13276048D02*
X5736524Y-13285571D01*
X5736524Y-13285571D02*
X5746048Y-13304619D01*
X5746048Y-13304619D02*
X5755571Y-13342714D01*
X5755571Y-13342714D02*
X5755571Y-13390333D01*
X5755571Y-13390333D02*
X5746048Y-13428428D01*
X5746048Y-13428428D02*
X5736524Y-13447476D01*
X5736524Y-13447476D02*
X5727000Y-13457000D01*
X5727000Y-13457000D02*
X5707952Y-13466524D01*
X5707952Y-13466524D02*
X5688905Y-13466524D01*
X5688905Y-13466524D02*
X5669857Y-13457000D01*
X5669857Y-13457000D02*
X5660333Y-13447476D01*
X5660333Y-13447476D02*
X5650809Y-13428428D01*
X5650809Y-13428428D02*
X5641286Y-13390333D01*
X5641286Y-13390333D02*
X5641286Y-13342714D01*
X5641286Y-13342714D02*
X5650809Y-13304619D01*
X5650809Y-13304619D02*
X5660333Y-13285571D01*
X5660333Y-13285571D02*
X5669857Y-13276048D01*
X5669857Y-13276048D02*
X5688905Y-13266524D01*
X5879381Y-13266524D02*
X5898429Y-13266524D01*
X5898429Y-13266524D02*
X5917476Y-13276048D01*
X5917476Y-13276048D02*
X5927000Y-13285571D01*
X5927000Y-13285571D02*
X5936524Y-13304619D01*
X5936524Y-13304619D02*
X5946048Y-13342714D01*
X5946048Y-13342714D02*
X5946048Y-13390333D01*
X5946048Y-13390333D02*
X5936524Y-13428428D01*
X5936524Y-13428428D02*
X5927000Y-13447476D01*
X5927000Y-13447476D02*
X5917476Y-13457000D01*
X5917476Y-13457000D02*
X5898429Y-13466524D01*
X5898429Y-13466524D02*
X5879381Y-13466524D01*
X5879381Y-13466524D02*
X5860333Y-13457000D01*
X5860333Y-13457000D02*
X5850809Y-13447476D01*
X5850809Y-13447476D02*
X5841286Y-13428428D01*
X5841286Y-13428428D02*
X5831762Y-13390333D01*
X5831762Y-13390333D02*
X5831762Y-13342714D01*
X5831762Y-13342714D02*
X5841286Y-13304619D01*
X5841286Y-13304619D02*
X5850809Y-13285571D01*
X5850809Y-13285571D02*
X5860333Y-13276048D01*
X5860333Y-13276048D02*
X5879381Y-13266524D01*
X6031762Y-13466524D02*
X6031762Y-13333190D01*
X6031762Y-13352238D02*
X6041286Y-13342714D01*
X6041286Y-13342714D02*
X6060333Y-13333190D01*
X6060333Y-13333190D02*
X6088905Y-13333190D01*
X6088905Y-13333190D02*
X6107952Y-13342714D01*
X6107952Y-13342714D02*
X6117476Y-13361762D01*
X6117476Y-13361762D02*
X6117476Y-13466524D01*
X6117476Y-13361762D02*
X6127000Y-13342714D01*
X6127000Y-13342714D02*
X6146048Y-13333190D01*
X6146048Y-13333190D02*
X6174619Y-13333190D01*
X6174619Y-13333190D02*
X6193667Y-13342714D01*
X6193667Y-13342714D02*
X6203190Y-13361762D01*
X6203190Y-13361762D02*
X6203190Y-13466524D01*
X6298429Y-13466524D02*
X6298429Y-13333190D01*
X6298429Y-13352238D02*
X6307952Y-13342714D01*
X6307952Y-13342714D02*
X6327000Y-13333190D01*
X6327000Y-13333190D02*
X6355571Y-13333190D01*
X6355571Y-13333190D02*
X6374619Y-13342714D01*
X6374619Y-13342714D02*
X6384143Y-13361762D01*
X6384143Y-13361762D02*
X6384143Y-13466524D01*
X6384143Y-13361762D02*
X6393667Y-13342714D01*
X6393667Y-13342714D02*
X6412714Y-13333190D01*
X6412714Y-13333190D02*
X6441286Y-13333190D01*
X6441286Y-13333190D02*
X6460333Y-13342714D01*
X6460333Y-13342714D02*
X6469857Y-13361762D01*
X6469857Y-13361762D02*
X6469857Y-13466524D01*
X6860333Y-13257000D02*
X6688905Y-13514143D01*
X7117476Y-13266524D02*
X7136524Y-13266524D01*
X7136524Y-13266524D02*
X7155572Y-13276048D01*
X7155572Y-13276048D02*
X7165095Y-13285571D01*
X7165095Y-13285571D02*
X7174619Y-13304619D01*
X7174619Y-13304619D02*
X7184143Y-13342714D01*
X7184143Y-13342714D02*
X7184143Y-13390333D01*
X7184143Y-13390333D02*
X7174619Y-13428428D01*
X7174619Y-13428428D02*
X7165095Y-13447476D01*
X7165095Y-13447476D02*
X7155572Y-13457000D01*
X7155572Y-13457000D02*
X7136524Y-13466524D01*
X7136524Y-13466524D02*
X7117476Y-13466524D01*
X7117476Y-13466524D02*
X7098429Y-13457000D01*
X7098429Y-13457000D02*
X7088905Y-13447476D01*
X7088905Y-13447476D02*
X7079381Y-13428428D01*
X7079381Y-13428428D02*
X7069857Y-13390333D01*
X7069857Y-13390333D02*
X7069857Y-13342714D01*
X7069857Y-13342714D02*
X7079381Y-13304619D01*
X7079381Y-13304619D02*
X7088905Y-13285571D01*
X7088905Y-13285571D02*
X7098429Y-13276048D01*
X7098429Y-13276048D02*
X7117476Y-13266524D01*
X7269857Y-13447476D02*
X7279381Y-13457000D01*
X7279381Y-13457000D02*
X7269857Y-13466524D01*
X7269857Y-13466524D02*
X7260333Y-13457000D01*
X7260333Y-13457000D02*
X7269857Y-13447476D01*
X7269857Y-13447476D02*
X7269857Y-13466524D01*
X7403191Y-13266524D02*
X7422238Y-13266524D01*
X7422238Y-13266524D02*
X7441286Y-13276048D01*
X7441286Y-13276048D02*
X7450810Y-13285571D01*
X7450810Y-13285571D02*
X7460333Y-13304619D01*
X7460333Y-13304619D02*
X7469857Y-13342714D01*
X7469857Y-13342714D02*
X7469857Y-13390333D01*
X7469857Y-13390333D02*
X7460333Y-13428428D01*
X7460333Y-13428428D02*
X7450810Y-13447476D01*
X7450810Y-13447476D02*
X7441286Y-13457000D01*
X7441286Y-13457000D02*
X7422238Y-13466524D01*
X7422238Y-13466524D02*
X7403191Y-13466524D01*
X7403191Y-13466524D02*
X7384143Y-13457000D01*
X7384143Y-13457000D02*
X7374619Y-13447476D01*
X7374619Y-13447476D02*
X7365095Y-13428428D01*
X7365095Y-13428428D02*
X7355572Y-13390333D01*
X7355572Y-13390333D02*
X7355572Y-13342714D01*
X7355572Y-13342714D02*
X7365095Y-13304619D01*
X7365095Y-13304619D02*
X7374619Y-13285571D01*
X7374619Y-13285571D02*
X7384143Y-13276048D01*
X7384143Y-13276048D02*
X7403191Y-13266524D01*
X7641286Y-13333190D02*
X7641286Y-13466524D01*
X7593667Y-13257000D02*
X7546048Y-13399857D01*
X7546048Y-13399857D02*
X7669857Y-13399857D01*
X7727000Y-13266524D02*
X7860333Y-13266524D01*
X7860333Y-13266524D02*
X7774619Y-13466524D01*
X7927000Y-13285571D02*
X7936524Y-13276048D01*
X7936524Y-13276048D02*
X7955572Y-13266524D01*
X7955572Y-13266524D02*
X8003191Y-13266524D01*
X8003191Y-13266524D02*
X8022238Y-13276048D01*
X8022238Y-13276048D02*
X8031762Y-13285571D01*
X8031762Y-13285571D02*
X8041286Y-13304619D01*
X8041286Y-13304619D02*
X8041286Y-13323667D01*
X8041286Y-13323667D02*
X8031762Y-13352238D01*
X8031762Y-13352238D02*
X7917476Y-13466524D01*
X7917476Y-13466524D02*
X8041286Y-13466524D01*
X8117476Y-13266524D02*
X8117476Y-13304619D01*
X8193667Y-13266524D02*
X8193667Y-13304619D01*
X8488905Y-13542714D02*
X8479381Y-13533190D01*
X8479381Y-13533190D02*
X8460334Y-13504619D01*
X8460334Y-13504619D02*
X8450810Y-13485571D01*
X8450810Y-13485571D02*
X8441286Y-13457000D01*
X8441286Y-13457000D02*
X8431762Y-13409381D01*
X8431762Y-13409381D02*
X8431762Y-13371286D01*
X8431762Y-13371286D02*
X8441286Y-13323667D01*
X8441286Y-13323667D02*
X8450810Y-13295095D01*
X8450810Y-13295095D02*
X8460334Y-13276048D01*
X8460334Y-13276048D02*
X8479381Y-13247476D01*
X8479381Y-13247476D02*
X8488905Y-13237952D01*
X8555572Y-13285571D02*
X8565096Y-13276048D01*
X8565096Y-13276048D02*
X8584143Y-13266524D01*
X8584143Y-13266524D02*
X8631762Y-13266524D01*
X8631762Y-13266524D02*
X8650810Y-13276048D01*
X8650810Y-13276048D02*
X8660334Y-13285571D01*
X8660334Y-13285571D02*
X8669857Y-13304619D01*
X8669857Y-13304619D02*
X8669857Y-13323667D01*
X8669857Y-13323667D02*
X8660334Y-13352238D01*
X8660334Y-13352238D02*
X8546048Y-13466524D01*
X8546048Y-13466524D02*
X8669857Y-13466524D01*
X8907953Y-13466524D02*
X8907953Y-13266524D01*
X8993667Y-13466524D02*
X8993667Y-13361762D01*
X8993667Y-13361762D02*
X8984143Y-13342714D01*
X8984143Y-13342714D02*
X8965096Y-13333190D01*
X8965096Y-13333190D02*
X8936524Y-13333190D01*
X8936524Y-13333190D02*
X8917477Y-13342714D01*
X8917477Y-13342714D02*
X8907953Y-13352238D01*
X9117477Y-13466524D02*
X9098429Y-13457000D01*
X9098429Y-13457000D02*
X9088905Y-13447476D01*
X9088905Y-13447476D02*
X9079381Y-13428428D01*
X9079381Y-13428428D02*
X9079381Y-13371286D01*
X9079381Y-13371286D02*
X9088905Y-13352238D01*
X9088905Y-13352238D02*
X9098429Y-13342714D01*
X9098429Y-13342714D02*
X9117477Y-13333190D01*
X9117477Y-13333190D02*
X9146048Y-13333190D01*
X9146048Y-13333190D02*
X9165096Y-13342714D01*
X9165096Y-13342714D02*
X9174619Y-13352238D01*
X9174619Y-13352238D02*
X9184143Y-13371286D01*
X9184143Y-13371286D02*
X9184143Y-13428428D01*
X9184143Y-13428428D02*
X9174619Y-13447476D01*
X9174619Y-13447476D02*
X9165096Y-13457000D01*
X9165096Y-13457000D02*
X9146048Y-13466524D01*
X9146048Y-13466524D02*
X9117477Y-13466524D01*
X9298429Y-13466524D02*
X9279381Y-13457000D01*
X9279381Y-13457000D02*
X9269858Y-13437952D01*
X9269858Y-13437952D02*
X9269858Y-13266524D01*
X9450810Y-13457000D02*
X9431762Y-13466524D01*
X9431762Y-13466524D02*
X9393667Y-13466524D01*
X9393667Y-13466524D02*
X9374619Y-13457000D01*
X9374619Y-13457000D02*
X9365096Y-13437952D01*
X9365096Y-13437952D02*
X9365096Y-13361762D01*
X9365096Y-13361762D02*
X9374619Y-13342714D01*
X9374619Y-13342714D02*
X9393667Y-13333190D01*
X9393667Y-13333190D02*
X9431762Y-13333190D01*
X9431762Y-13333190D02*
X9450810Y-13342714D01*
X9450810Y-13342714D02*
X9460334Y-13361762D01*
X9460334Y-13361762D02*
X9460334Y-13380809D01*
X9460334Y-13380809D02*
X9365096Y-13399857D01*
X9536524Y-13457000D02*
X9555572Y-13466524D01*
X9555572Y-13466524D02*
X9593667Y-13466524D01*
X9593667Y-13466524D02*
X9612715Y-13457000D01*
X9612715Y-13457000D02*
X9622239Y-13437952D01*
X9622239Y-13437952D02*
X9622239Y-13428428D01*
X9622239Y-13428428D02*
X9612715Y-13409381D01*
X9612715Y-13409381D02*
X9593667Y-13399857D01*
X9593667Y-13399857D02*
X9565096Y-13399857D01*
X9565096Y-13399857D02*
X9546048Y-13390333D01*
X9546048Y-13390333D02*
X9536524Y-13371286D01*
X9536524Y-13371286D02*
X9536524Y-13361762D01*
X9536524Y-13361762D02*
X9546048Y-13342714D01*
X9546048Y-13342714D02*
X9565096Y-13333190D01*
X9565096Y-13333190D02*
X9593667Y-13333190D01*
X9593667Y-13333190D02*
X9612715Y-13342714D01*
X9688905Y-13542714D02*
X9698429Y-13533190D01*
X9698429Y-13533190D02*
X9717477Y-13504619D01*
X9717477Y-13504619D02*
X9727000Y-13485571D01*
X9727000Y-13485571D02*
X9736524Y-13457000D01*
X9736524Y-13457000D02*
X9746048Y-13409381D01*
X9746048Y-13409381D02*
X9746048Y-13371286D01*
X9746048Y-13371286D02*
X9736524Y-13323667D01*
X9736524Y-13323667D02*
X9727000Y-13295095D01*
X9727000Y-13295095D02*
X9717477Y-13276048D01*
X9717477Y-13276048D02*
X9698429Y-13247476D01*
X9698429Y-13247476D02*
X9688905Y-13237952D01*
X4827000Y-13738000D02*
X4927000Y-13638000D01*
X4827000Y-13538000D01*
X4727000Y-13638000D01*
X4827000Y-13738000D01*
X5165095Y-13549571D02*
X5174619Y-13540048D01*
X5174619Y-13540048D02*
X5193667Y-13530524D01*
X5193667Y-13530524D02*
X5241286Y-13530524D01*
X5241286Y-13530524D02*
X5260333Y-13540048D01*
X5260333Y-13540048D02*
X5269857Y-13549571D01*
X5269857Y-13549571D02*
X5279381Y-13568619D01*
X5279381Y-13568619D02*
X5279381Y-13587667D01*
X5279381Y-13587667D02*
X5269857Y-13616238D01*
X5269857Y-13616238D02*
X5155571Y-13730524D01*
X5155571Y-13730524D02*
X5279381Y-13730524D01*
X5365095Y-13711476D02*
X5374619Y-13721000D01*
X5374619Y-13721000D02*
X5365095Y-13730524D01*
X5365095Y-13730524D02*
X5355571Y-13721000D01*
X5355571Y-13721000D02*
X5365095Y-13711476D01*
X5365095Y-13711476D02*
X5365095Y-13730524D01*
X5441286Y-13530524D02*
X5574619Y-13530524D01*
X5574619Y-13530524D02*
X5488905Y-13730524D01*
X5688905Y-13530524D02*
X5707952Y-13530524D01*
X5707952Y-13530524D02*
X5727000Y-13540048D01*
X5727000Y-13540048D02*
X5736524Y-13549571D01*
X5736524Y-13549571D02*
X5746048Y-13568619D01*
X5746048Y-13568619D02*
X5755571Y-13606714D01*
X5755571Y-13606714D02*
X5755571Y-13654333D01*
X5755571Y-13654333D02*
X5746048Y-13692428D01*
X5746048Y-13692428D02*
X5736524Y-13711476D01*
X5736524Y-13711476D02*
X5727000Y-13721000D01*
X5727000Y-13721000D02*
X5707952Y-13730524D01*
X5707952Y-13730524D02*
X5688905Y-13730524D01*
X5688905Y-13730524D02*
X5669857Y-13721000D01*
X5669857Y-13721000D02*
X5660333Y-13711476D01*
X5660333Y-13711476D02*
X5650809Y-13692428D01*
X5650809Y-13692428D02*
X5641286Y-13654333D01*
X5641286Y-13654333D02*
X5641286Y-13606714D01*
X5641286Y-13606714D02*
X5650809Y-13568619D01*
X5650809Y-13568619D02*
X5660333Y-13549571D01*
X5660333Y-13549571D02*
X5669857Y-13540048D01*
X5669857Y-13540048D02*
X5688905Y-13530524D01*
X5879381Y-13530524D02*
X5898429Y-13530524D01*
X5898429Y-13530524D02*
X5917476Y-13540048D01*
X5917476Y-13540048D02*
X5927000Y-13549571D01*
X5927000Y-13549571D02*
X5936524Y-13568619D01*
X5936524Y-13568619D02*
X5946048Y-13606714D01*
X5946048Y-13606714D02*
X5946048Y-13654333D01*
X5946048Y-13654333D02*
X5936524Y-13692428D01*
X5936524Y-13692428D02*
X5927000Y-13711476D01*
X5927000Y-13711476D02*
X5917476Y-13721000D01*
X5917476Y-13721000D02*
X5898429Y-13730524D01*
X5898429Y-13730524D02*
X5879381Y-13730524D01*
X5879381Y-13730524D02*
X5860333Y-13721000D01*
X5860333Y-13721000D02*
X5850809Y-13711476D01*
X5850809Y-13711476D02*
X5841286Y-13692428D01*
X5841286Y-13692428D02*
X5831762Y-13654333D01*
X5831762Y-13654333D02*
X5831762Y-13606714D01*
X5831762Y-13606714D02*
X5841286Y-13568619D01*
X5841286Y-13568619D02*
X5850809Y-13549571D01*
X5850809Y-13549571D02*
X5860333Y-13540048D01*
X5860333Y-13540048D02*
X5879381Y-13530524D01*
X6031762Y-13730524D02*
X6031762Y-13597190D01*
X6031762Y-13616238D02*
X6041286Y-13606714D01*
X6041286Y-13606714D02*
X6060333Y-13597190D01*
X6060333Y-13597190D02*
X6088905Y-13597190D01*
X6088905Y-13597190D02*
X6107952Y-13606714D01*
X6107952Y-13606714D02*
X6117476Y-13625762D01*
X6117476Y-13625762D02*
X6117476Y-13730524D01*
X6117476Y-13625762D02*
X6127000Y-13606714D01*
X6127000Y-13606714D02*
X6146048Y-13597190D01*
X6146048Y-13597190D02*
X6174619Y-13597190D01*
X6174619Y-13597190D02*
X6193667Y-13606714D01*
X6193667Y-13606714D02*
X6203190Y-13625762D01*
X6203190Y-13625762D02*
X6203190Y-13730524D01*
X6298429Y-13730524D02*
X6298429Y-13597190D01*
X6298429Y-13616238D02*
X6307952Y-13606714D01*
X6307952Y-13606714D02*
X6327000Y-13597190D01*
X6327000Y-13597190D02*
X6355571Y-13597190D01*
X6355571Y-13597190D02*
X6374619Y-13606714D01*
X6374619Y-13606714D02*
X6384143Y-13625762D01*
X6384143Y-13625762D02*
X6384143Y-13730524D01*
X6384143Y-13625762D02*
X6393667Y-13606714D01*
X6393667Y-13606714D02*
X6412714Y-13597190D01*
X6412714Y-13597190D02*
X6441286Y-13597190D01*
X6441286Y-13597190D02*
X6460333Y-13606714D01*
X6460333Y-13606714D02*
X6469857Y-13625762D01*
X6469857Y-13625762D02*
X6469857Y-13730524D01*
X6860333Y-13521000D02*
X6688905Y-13778143D01*
X7117476Y-13530524D02*
X7136524Y-13530524D01*
X7136524Y-13530524D02*
X7155572Y-13540048D01*
X7155572Y-13540048D02*
X7165095Y-13549571D01*
X7165095Y-13549571D02*
X7174619Y-13568619D01*
X7174619Y-13568619D02*
X7184143Y-13606714D01*
X7184143Y-13606714D02*
X7184143Y-13654333D01*
X7184143Y-13654333D02*
X7174619Y-13692428D01*
X7174619Y-13692428D02*
X7165095Y-13711476D01*
X7165095Y-13711476D02*
X7155572Y-13721000D01*
X7155572Y-13721000D02*
X7136524Y-13730524D01*
X7136524Y-13730524D02*
X7117476Y-13730524D01*
X7117476Y-13730524D02*
X7098429Y-13721000D01*
X7098429Y-13721000D02*
X7088905Y-13711476D01*
X7088905Y-13711476D02*
X7079381Y-13692428D01*
X7079381Y-13692428D02*
X7069857Y-13654333D01*
X7069857Y-13654333D02*
X7069857Y-13606714D01*
X7069857Y-13606714D02*
X7079381Y-13568619D01*
X7079381Y-13568619D02*
X7088905Y-13549571D01*
X7088905Y-13549571D02*
X7098429Y-13540048D01*
X7098429Y-13540048D02*
X7117476Y-13530524D01*
X7269857Y-13711476D02*
X7279381Y-13721000D01*
X7279381Y-13721000D02*
X7269857Y-13730524D01*
X7269857Y-13730524D02*
X7260333Y-13721000D01*
X7260333Y-13721000D02*
X7269857Y-13711476D01*
X7269857Y-13711476D02*
X7269857Y-13730524D01*
X7469857Y-13730524D02*
X7355572Y-13730524D01*
X7412714Y-13730524D02*
X7412714Y-13530524D01*
X7412714Y-13530524D02*
X7393667Y-13559095D01*
X7393667Y-13559095D02*
X7374619Y-13578143D01*
X7374619Y-13578143D02*
X7355572Y-13587667D01*
X7593667Y-13530524D02*
X7612714Y-13530524D01*
X7612714Y-13530524D02*
X7631762Y-13540048D01*
X7631762Y-13540048D02*
X7641286Y-13549571D01*
X7641286Y-13549571D02*
X7650810Y-13568619D01*
X7650810Y-13568619D02*
X7660333Y-13606714D01*
X7660333Y-13606714D02*
X7660333Y-13654333D01*
X7660333Y-13654333D02*
X7650810Y-13692428D01*
X7650810Y-13692428D02*
X7641286Y-13711476D01*
X7641286Y-13711476D02*
X7631762Y-13721000D01*
X7631762Y-13721000D02*
X7612714Y-13730524D01*
X7612714Y-13730524D02*
X7593667Y-13730524D01*
X7593667Y-13730524D02*
X7574619Y-13721000D01*
X7574619Y-13721000D02*
X7565095Y-13711476D01*
X7565095Y-13711476D02*
X7555572Y-13692428D01*
X7555572Y-13692428D02*
X7546048Y-13654333D01*
X7546048Y-13654333D02*
X7546048Y-13606714D01*
X7546048Y-13606714D02*
X7555572Y-13568619D01*
X7555572Y-13568619D02*
X7565095Y-13549571D01*
X7565095Y-13549571D02*
X7574619Y-13540048D01*
X7574619Y-13540048D02*
X7593667Y-13530524D01*
X7831762Y-13530524D02*
X7793667Y-13530524D01*
X7793667Y-13530524D02*
X7774619Y-13540048D01*
X7774619Y-13540048D02*
X7765095Y-13549571D01*
X7765095Y-13549571D02*
X7746048Y-13578143D01*
X7746048Y-13578143D02*
X7736524Y-13616238D01*
X7736524Y-13616238D02*
X7736524Y-13692428D01*
X7736524Y-13692428D02*
X7746048Y-13711476D01*
X7746048Y-13711476D02*
X7755572Y-13721000D01*
X7755572Y-13721000D02*
X7774619Y-13730524D01*
X7774619Y-13730524D02*
X7812714Y-13730524D01*
X7812714Y-13730524D02*
X7831762Y-13721000D01*
X7831762Y-13721000D02*
X7841286Y-13711476D01*
X7841286Y-13711476D02*
X7850810Y-13692428D01*
X7850810Y-13692428D02*
X7850810Y-13644809D01*
X7850810Y-13644809D02*
X7841286Y-13625762D01*
X7841286Y-13625762D02*
X7831762Y-13616238D01*
X7831762Y-13616238D02*
X7812714Y-13606714D01*
X7812714Y-13606714D02*
X7774619Y-13606714D01*
X7774619Y-13606714D02*
X7755572Y-13616238D01*
X7755572Y-13616238D02*
X7746048Y-13625762D01*
X7746048Y-13625762D02*
X7736524Y-13644809D01*
X7917476Y-13530524D02*
X8041286Y-13530524D01*
X8041286Y-13530524D02*
X7974619Y-13606714D01*
X7974619Y-13606714D02*
X8003191Y-13606714D01*
X8003191Y-13606714D02*
X8022238Y-13616238D01*
X8022238Y-13616238D02*
X8031762Y-13625762D01*
X8031762Y-13625762D02*
X8041286Y-13644809D01*
X8041286Y-13644809D02*
X8041286Y-13692428D01*
X8041286Y-13692428D02*
X8031762Y-13711476D01*
X8031762Y-13711476D02*
X8022238Y-13721000D01*
X8022238Y-13721000D02*
X8003191Y-13730524D01*
X8003191Y-13730524D02*
X7946048Y-13730524D01*
X7946048Y-13730524D02*
X7927000Y-13721000D01*
X7927000Y-13721000D02*
X7917476Y-13711476D01*
X8117476Y-13530524D02*
X8117476Y-13568619D01*
X8193667Y-13530524D02*
X8193667Y-13568619D01*
X8488905Y-13806714D02*
X8479381Y-13797190D01*
X8479381Y-13797190D02*
X8460334Y-13768619D01*
X8460334Y-13768619D02*
X8450810Y-13749571D01*
X8450810Y-13749571D02*
X8441286Y-13721000D01*
X8441286Y-13721000D02*
X8431762Y-13673381D01*
X8431762Y-13673381D02*
X8431762Y-13635286D01*
X8431762Y-13635286D02*
X8441286Y-13587667D01*
X8441286Y-13587667D02*
X8450810Y-13559095D01*
X8450810Y-13559095D02*
X8460334Y-13540048D01*
X8460334Y-13540048D02*
X8479381Y-13511476D01*
X8479381Y-13511476D02*
X8488905Y-13501952D01*
X8650810Y-13597190D02*
X8650810Y-13730524D01*
X8603191Y-13521000D02*
X8555572Y-13663857D01*
X8555572Y-13663857D02*
X8679381Y-13663857D01*
X8907953Y-13730524D02*
X8907953Y-13530524D01*
X8993667Y-13730524D02*
X8993667Y-13625762D01*
X8993667Y-13625762D02*
X8984143Y-13606714D01*
X8984143Y-13606714D02*
X8965096Y-13597190D01*
X8965096Y-13597190D02*
X8936524Y-13597190D01*
X8936524Y-13597190D02*
X8917477Y-13606714D01*
X8917477Y-13606714D02*
X8907953Y-13616238D01*
X9117477Y-13730524D02*
X9098429Y-13721000D01*
X9098429Y-13721000D02*
X9088905Y-13711476D01*
X9088905Y-13711476D02*
X9079381Y-13692428D01*
X9079381Y-13692428D02*
X9079381Y-13635286D01*
X9079381Y-13635286D02*
X9088905Y-13616238D01*
X9088905Y-13616238D02*
X9098429Y-13606714D01*
X9098429Y-13606714D02*
X9117477Y-13597190D01*
X9117477Y-13597190D02*
X9146048Y-13597190D01*
X9146048Y-13597190D02*
X9165096Y-13606714D01*
X9165096Y-13606714D02*
X9174619Y-13616238D01*
X9174619Y-13616238D02*
X9184143Y-13635286D01*
X9184143Y-13635286D02*
X9184143Y-13692428D01*
X9184143Y-13692428D02*
X9174619Y-13711476D01*
X9174619Y-13711476D02*
X9165096Y-13721000D01*
X9165096Y-13721000D02*
X9146048Y-13730524D01*
X9146048Y-13730524D02*
X9117477Y-13730524D01*
X9298429Y-13730524D02*
X9279381Y-13721000D01*
X9279381Y-13721000D02*
X9269858Y-13701952D01*
X9269858Y-13701952D02*
X9269858Y-13530524D01*
X9450810Y-13721000D02*
X9431762Y-13730524D01*
X9431762Y-13730524D02*
X9393667Y-13730524D01*
X9393667Y-13730524D02*
X9374619Y-13721000D01*
X9374619Y-13721000D02*
X9365096Y-13701952D01*
X9365096Y-13701952D02*
X9365096Y-13625762D01*
X9365096Y-13625762D02*
X9374619Y-13606714D01*
X9374619Y-13606714D02*
X9393667Y-13597190D01*
X9393667Y-13597190D02*
X9431762Y-13597190D01*
X9431762Y-13597190D02*
X9450810Y-13606714D01*
X9450810Y-13606714D02*
X9460334Y-13625762D01*
X9460334Y-13625762D02*
X9460334Y-13644809D01*
X9460334Y-13644809D02*
X9365096Y-13663857D01*
X9536524Y-13721000D02*
X9555572Y-13730524D01*
X9555572Y-13730524D02*
X9593667Y-13730524D01*
X9593667Y-13730524D02*
X9612715Y-13721000D01*
X9612715Y-13721000D02*
X9622239Y-13701952D01*
X9622239Y-13701952D02*
X9622239Y-13692428D01*
X9622239Y-13692428D02*
X9612715Y-13673381D01*
X9612715Y-13673381D02*
X9593667Y-13663857D01*
X9593667Y-13663857D02*
X9565096Y-13663857D01*
X9565096Y-13663857D02*
X9546048Y-13654333D01*
X9546048Y-13654333D02*
X9536524Y-13635286D01*
X9536524Y-13635286D02*
X9536524Y-13625762D01*
X9536524Y-13625762D02*
X9546048Y-13606714D01*
X9546048Y-13606714D02*
X9565096Y-13597190D01*
X9565096Y-13597190D02*
X9593667Y-13597190D01*
X9593667Y-13597190D02*
X9612715Y-13606714D01*
X9688905Y-13806714D02*
X9698429Y-13797190D01*
X9698429Y-13797190D02*
X9717477Y-13768619D01*
X9717477Y-13768619D02*
X9727000Y-13749571D01*
X9727000Y-13749571D02*
X9736524Y-13721000D01*
X9736524Y-13721000D02*
X9746048Y-13673381D01*
X9746048Y-13673381D02*
X9746048Y-13635286D01*
X9746048Y-13635286D02*
X9736524Y-13587667D01*
X9736524Y-13587667D02*
X9727000Y-13559095D01*
X9727000Y-13559095D02*
X9717477Y-13540048D01*
X9717477Y-13540048D02*
X9698429Y-13511476D01*
X9698429Y-13511476D02*
X9688905Y-13501952D01*
M02*
