%TF.GenerationSoftware,KiCad,Pcbnew,7.0.1*%
%TF.CreationDate,2023-07-10T14:28:22-04:00*%
%TF.ProjectId,FlightComputer,466c6967-6874-4436-9f6d-70757465722e,rev?*%
%TF.SameCoordinates,Original*%
%TF.FileFunction,Drillmap*%
%TF.FilePolarity,Positive*%
%FSLAX45Y45*%
G04 Gerber Fmt 4.5, Leading zero omitted, Abs format (unit mm)*
G04 Created by KiCad (PCBNEW 7.0.1) date 2023-07-10 14:28:22*
%MOMM*%
%LPD*%
G01*
G04 APERTURE LIST*
%ADD10C,0.100000*%
%ADD11C,0.200000*%
%ADD12C,0.065000*%
G04 APERTURE END LIST*
D10*
X5282000Y-5737000D02*
G75*
G03*
X4932000Y-6087000I0J-350000D01*
G01*
X13232000Y-6087000D02*
G75*
G03*
X12882000Y-5737000I-350000J0D01*
G01*
X5282000Y-5737000D02*
X12882000Y-5737000D01*
X4932000Y-11587000D02*
X4932000Y-6087000D01*
X12882000Y-11937000D02*
G75*
G03*
X13232000Y-11587000I0J350000D01*
G01*
X13232000Y-6087000D02*
X13232000Y-11587000D01*
X5282000Y-11937000D02*
X12882000Y-11937000D01*
X4932000Y-11587000D02*
G75*
G03*
X5282000Y-11937000I350000J0D01*
G01*
D11*
D12*
X12666395Y-8530500D02*
X12731395Y-8595500D01*
X12731395Y-8530500D02*
X12666395Y-8595500D01*
X12666395Y-9108500D02*
X12731395Y-9173500D01*
X12731395Y-9108500D02*
X12666395Y-9173500D01*
D11*
X5174619Y-12254524D02*
X5174619Y-12054524D01*
X5174619Y-12054524D02*
X5222238Y-12054524D01*
X5222238Y-12054524D02*
X5250810Y-12064048D01*
X5250810Y-12064048D02*
X5269857Y-12083095D01*
X5269857Y-12083095D02*
X5279381Y-12102143D01*
X5279381Y-12102143D02*
X5288905Y-12140238D01*
X5288905Y-12140238D02*
X5288905Y-12168809D01*
X5288905Y-12168809D02*
X5279381Y-12206905D01*
X5279381Y-12206905D02*
X5269857Y-12225952D01*
X5269857Y-12225952D02*
X5250810Y-12245000D01*
X5250810Y-12245000D02*
X5222238Y-12254524D01*
X5222238Y-12254524D02*
X5174619Y-12254524D01*
X5374619Y-12254524D02*
X5374619Y-12121190D01*
X5374619Y-12159286D02*
X5384143Y-12140238D01*
X5384143Y-12140238D02*
X5393667Y-12130714D01*
X5393667Y-12130714D02*
X5412714Y-12121190D01*
X5412714Y-12121190D02*
X5431762Y-12121190D01*
X5498429Y-12254524D02*
X5498429Y-12121190D01*
X5498429Y-12054524D02*
X5488905Y-12064048D01*
X5488905Y-12064048D02*
X5498429Y-12073571D01*
X5498429Y-12073571D02*
X5507952Y-12064048D01*
X5507952Y-12064048D02*
X5498429Y-12054524D01*
X5498429Y-12054524D02*
X5498429Y-12073571D01*
X5622238Y-12254524D02*
X5603190Y-12245000D01*
X5603190Y-12245000D02*
X5593667Y-12225952D01*
X5593667Y-12225952D02*
X5593667Y-12054524D01*
X5727000Y-12254524D02*
X5707952Y-12245000D01*
X5707952Y-12245000D02*
X5698428Y-12225952D01*
X5698428Y-12225952D02*
X5698428Y-12054524D01*
X5955571Y-12254524D02*
X5955571Y-12054524D01*
X5955571Y-12054524D02*
X6022238Y-12197381D01*
X6022238Y-12197381D02*
X6088905Y-12054524D01*
X6088905Y-12054524D02*
X6088905Y-12254524D01*
X6269857Y-12254524D02*
X6269857Y-12149762D01*
X6269857Y-12149762D02*
X6260333Y-12130714D01*
X6260333Y-12130714D02*
X6241286Y-12121190D01*
X6241286Y-12121190D02*
X6203190Y-12121190D01*
X6203190Y-12121190D02*
X6184143Y-12130714D01*
X6269857Y-12245000D02*
X6250809Y-12254524D01*
X6250809Y-12254524D02*
X6203190Y-12254524D01*
X6203190Y-12254524D02*
X6184143Y-12245000D01*
X6184143Y-12245000D02*
X6174619Y-12225952D01*
X6174619Y-12225952D02*
X6174619Y-12206905D01*
X6174619Y-12206905D02*
X6184143Y-12187857D01*
X6184143Y-12187857D02*
X6203190Y-12178333D01*
X6203190Y-12178333D02*
X6250809Y-12178333D01*
X6250809Y-12178333D02*
X6269857Y-12168809D01*
X6365095Y-12121190D02*
X6365095Y-12321190D01*
X6365095Y-12130714D02*
X6384143Y-12121190D01*
X6384143Y-12121190D02*
X6422238Y-12121190D01*
X6422238Y-12121190D02*
X6441286Y-12130714D01*
X6441286Y-12130714D02*
X6450809Y-12140238D01*
X6450809Y-12140238D02*
X6460333Y-12159286D01*
X6460333Y-12159286D02*
X6460333Y-12216428D01*
X6460333Y-12216428D02*
X6450809Y-12235476D01*
X6450809Y-12235476D02*
X6441286Y-12245000D01*
X6441286Y-12245000D02*
X6422238Y-12254524D01*
X6422238Y-12254524D02*
X6384143Y-12254524D01*
X6384143Y-12254524D02*
X6365095Y-12245000D01*
X6546048Y-12235476D02*
X6555571Y-12245000D01*
X6555571Y-12245000D02*
X6546048Y-12254524D01*
X6546048Y-12254524D02*
X6536524Y-12245000D01*
X6536524Y-12245000D02*
X6546048Y-12235476D01*
X6546048Y-12235476D02*
X6546048Y-12254524D01*
X6546048Y-12130714D02*
X6555571Y-12140238D01*
X6555571Y-12140238D02*
X6546048Y-12149762D01*
X6546048Y-12149762D02*
X6536524Y-12140238D01*
X6536524Y-12140238D02*
X6546048Y-12130714D01*
X6546048Y-12130714D02*
X6546048Y-12149762D01*
D12*
X4862000Y-12549500D02*
X4927000Y-12614500D01*
X4927000Y-12549500D02*
X4862000Y-12614500D01*
D11*
X5212714Y-12474524D02*
X5231762Y-12474524D01*
X5231762Y-12474524D02*
X5250810Y-12484048D01*
X5250810Y-12484048D02*
X5260333Y-12493571D01*
X5260333Y-12493571D02*
X5269857Y-12512619D01*
X5269857Y-12512619D02*
X5279381Y-12550714D01*
X5279381Y-12550714D02*
X5279381Y-12598333D01*
X5279381Y-12598333D02*
X5269857Y-12636428D01*
X5269857Y-12636428D02*
X5260333Y-12655476D01*
X5260333Y-12655476D02*
X5250810Y-12665000D01*
X5250810Y-12665000D02*
X5231762Y-12674524D01*
X5231762Y-12674524D02*
X5212714Y-12674524D01*
X5212714Y-12674524D02*
X5193667Y-12665000D01*
X5193667Y-12665000D02*
X5184143Y-12655476D01*
X5184143Y-12655476D02*
X5174619Y-12636428D01*
X5174619Y-12636428D02*
X5165095Y-12598333D01*
X5165095Y-12598333D02*
X5165095Y-12550714D01*
X5165095Y-12550714D02*
X5174619Y-12512619D01*
X5174619Y-12512619D02*
X5184143Y-12493571D01*
X5184143Y-12493571D02*
X5193667Y-12484048D01*
X5193667Y-12484048D02*
X5212714Y-12474524D01*
X5365095Y-12655476D02*
X5374619Y-12665000D01*
X5374619Y-12665000D02*
X5365095Y-12674524D01*
X5365095Y-12674524D02*
X5355571Y-12665000D01*
X5355571Y-12665000D02*
X5365095Y-12655476D01*
X5365095Y-12655476D02*
X5365095Y-12674524D01*
X5546048Y-12474524D02*
X5507952Y-12474524D01*
X5507952Y-12474524D02*
X5488905Y-12484048D01*
X5488905Y-12484048D02*
X5479381Y-12493571D01*
X5479381Y-12493571D02*
X5460333Y-12522143D01*
X5460333Y-12522143D02*
X5450810Y-12560238D01*
X5450810Y-12560238D02*
X5450810Y-12636428D01*
X5450810Y-12636428D02*
X5460333Y-12655476D01*
X5460333Y-12655476D02*
X5469857Y-12665000D01*
X5469857Y-12665000D02*
X5488905Y-12674524D01*
X5488905Y-12674524D02*
X5527000Y-12674524D01*
X5527000Y-12674524D02*
X5546048Y-12665000D01*
X5546048Y-12665000D02*
X5555571Y-12655476D01*
X5555571Y-12655476D02*
X5565095Y-12636428D01*
X5565095Y-12636428D02*
X5565095Y-12588809D01*
X5565095Y-12588809D02*
X5555571Y-12569762D01*
X5555571Y-12569762D02*
X5546048Y-12560238D01*
X5546048Y-12560238D02*
X5527000Y-12550714D01*
X5527000Y-12550714D02*
X5488905Y-12550714D01*
X5488905Y-12550714D02*
X5469857Y-12560238D01*
X5469857Y-12560238D02*
X5460333Y-12569762D01*
X5460333Y-12569762D02*
X5450810Y-12588809D01*
X5746048Y-12474524D02*
X5650809Y-12474524D01*
X5650809Y-12474524D02*
X5641286Y-12569762D01*
X5641286Y-12569762D02*
X5650809Y-12560238D01*
X5650809Y-12560238D02*
X5669857Y-12550714D01*
X5669857Y-12550714D02*
X5717476Y-12550714D01*
X5717476Y-12550714D02*
X5736524Y-12560238D01*
X5736524Y-12560238D02*
X5746048Y-12569762D01*
X5746048Y-12569762D02*
X5755571Y-12588809D01*
X5755571Y-12588809D02*
X5755571Y-12636428D01*
X5755571Y-12636428D02*
X5746048Y-12655476D01*
X5746048Y-12655476D02*
X5736524Y-12665000D01*
X5736524Y-12665000D02*
X5717476Y-12674524D01*
X5717476Y-12674524D02*
X5669857Y-12674524D01*
X5669857Y-12674524D02*
X5650809Y-12665000D01*
X5650809Y-12665000D02*
X5641286Y-12655476D01*
X5879381Y-12474524D02*
X5898429Y-12474524D01*
X5898429Y-12474524D02*
X5917476Y-12484048D01*
X5917476Y-12484048D02*
X5927000Y-12493571D01*
X5927000Y-12493571D02*
X5936524Y-12512619D01*
X5936524Y-12512619D02*
X5946048Y-12550714D01*
X5946048Y-12550714D02*
X5946048Y-12598333D01*
X5946048Y-12598333D02*
X5936524Y-12636428D01*
X5936524Y-12636428D02*
X5927000Y-12655476D01*
X5927000Y-12655476D02*
X5917476Y-12665000D01*
X5917476Y-12665000D02*
X5898429Y-12674524D01*
X5898429Y-12674524D02*
X5879381Y-12674524D01*
X5879381Y-12674524D02*
X5860333Y-12665000D01*
X5860333Y-12665000D02*
X5850809Y-12655476D01*
X5850809Y-12655476D02*
X5841286Y-12636428D01*
X5841286Y-12636428D02*
X5831762Y-12598333D01*
X5831762Y-12598333D02*
X5831762Y-12550714D01*
X5831762Y-12550714D02*
X5841286Y-12512619D01*
X5841286Y-12512619D02*
X5850809Y-12493571D01*
X5850809Y-12493571D02*
X5860333Y-12484048D01*
X5860333Y-12484048D02*
X5879381Y-12474524D01*
X6031762Y-12674524D02*
X6031762Y-12541190D01*
X6031762Y-12560238D02*
X6041286Y-12550714D01*
X6041286Y-12550714D02*
X6060333Y-12541190D01*
X6060333Y-12541190D02*
X6088905Y-12541190D01*
X6088905Y-12541190D02*
X6107952Y-12550714D01*
X6107952Y-12550714D02*
X6117476Y-12569762D01*
X6117476Y-12569762D02*
X6117476Y-12674524D01*
X6117476Y-12569762D02*
X6127000Y-12550714D01*
X6127000Y-12550714D02*
X6146048Y-12541190D01*
X6146048Y-12541190D02*
X6174619Y-12541190D01*
X6174619Y-12541190D02*
X6193667Y-12550714D01*
X6193667Y-12550714D02*
X6203190Y-12569762D01*
X6203190Y-12569762D02*
X6203190Y-12674524D01*
X6298429Y-12674524D02*
X6298429Y-12541190D01*
X6298429Y-12560238D02*
X6307952Y-12550714D01*
X6307952Y-12550714D02*
X6327000Y-12541190D01*
X6327000Y-12541190D02*
X6355571Y-12541190D01*
X6355571Y-12541190D02*
X6374619Y-12550714D01*
X6374619Y-12550714D02*
X6384143Y-12569762D01*
X6384143Y-12569762D02*
X6384143Y-12674524D01*
X6384143Y-12569762D02*
X6393667Y-12550714D01*
X6393667Y-12550714D02*
X6412714Y-12541190D01*
X6412714Y-12541190D02*
X6441286Y-12541190D01*
X6441286Y-12541190D02*
X6460333Y-12550714D01*
X6460333Y-12550714D02*
X6469857Y-12569762D01*
X6469857Y-12569762D02*
X6469857Y-12674524D01*
X6860333Y-12465000D02*
X6688905Y-12722143D01*
X7117476Y-12474524D02*
X7136524Y-12474524D01*
X7136524Y-12474524D02*
X7155572Y-12484048D01*
X7155572Y-12484048D02*
X7165095Y-12493571D01*
X7165095Y-12493571D02*
X7174619Y-12512619D01*
X7174619Y-12512619D02*
X7184143Y-12550714D01*
X7184143Y-12550714D02*
X7184143Y-12598333D01*
X7184143Y-12598333D02*
X7174619Y-12636428D01*
X7174619Y-12636428D02*
X7165095Y-12655476D01*
X7165095Y-12655476D02*
X7155572Y-12665000D01*
X7155572Y-12665000D02*
X7136524Y-12674524D01*
X7136524Y-12674524D02*
X7117476Y-12674524D01*
X7117476Y-12674524D02*
X7098429Y-12665000D01*
X7098429Y-12665000D02*
X7088905Y-12655476D01*
X7088905Y-12655476D02*
X7079381Y-12636428D01*
X7079381Y-12636428D02*
X7069857Y-12598333D01*
X7069857Y-12598333D02*
X7069857Y-12550714D01*
X7069857Y-12550714D02*
X7079381Y-12512619D01*
X7079381Y-12512619D02*
X7088905Y-12493571D01*
X7088905Y-12493571D02*
X7098429Y-12484048D01*
X7098429Y-12484048D02*
X7117476Y-12474524D01*
X7269857Y-12655476D02*
X7279381Y-12665000D01*
X7279381Y-12665000D02*
X7269857Y-12674524D01*
X7269857Y-12674524D02*
X7260333Y-12665000D01*
X7260333Y-12665000D02*
X7269857Y-12655476D01*
X7269857Y-12655476D02*
X7269857Y-12674524D01*
X7403191Y-12474524D02*
X7422238Y-12474524D01*
X7422238Y-12474524D02*
X7441286Y-12484048D01*
X7441286Y-12484048D02*
X7450810Y-12493571D01*
X7450810Y-12493571D02*
X7460333Y-12512619D01*
X7460333Y-12512619D02*
X7469857Y-12550714D01*
X7469857Y-12550714D02*
X7469857Y-12598333D01*
X7469857Y-12598333D02*
X7460333Y-12636428D01*
X7460333Y-12636428D02*
X7450810Y-12655476D01*
X7450810Y-12655476D02*
X7441286Y-12665000D01*
X7441286Y-12665000D02*
X7422238Y-12674524D01*
X7422238Y-12674524D02*
X7403191Y-12674524D01*
X7403191Y-12674524D02*
X7384143Y-12665000D01*
X7384143Y-12665000D02*
X7374619Y-12655476D01*
X7374619Y-12655476D02*
X7365095Y-12636428D01*
X7365095Y-12636428D02*
X7355572Y-12598333D01*
X7355572Y-12598333D02*
X7355572Y-12550714D01*
X7355572Y-12550714D02*
X7365095Y-12512619D01*
X7365095Y-12512619D02*
X7374619Y-12493571D01*
X7374619Y-12493571D02*
X7384143Y-12484048D01*
X7384143Y-12484048D02*
X7403191Y-12474524D01*
X7546048Y-12493571D02*
X7555572Y-12484048D01*
X7555572Y-12484048D02*
X7574619Y-12474524D01*
X7574619Y-12474524D02*
X7622238Y-12474524D01*
X7622238Y-12474524D02*
X7641286Y-12484048D01*
X7641286Y-12484048D02*
X7650810Y-12493571D01*
X7650810Y-12493571D02*
X7660333Y-12512619D01*
X7660333Y-12512619D02*
X7660333Y-12531667D01*
X7660333Y-12531667D02*
X7650810Y-12560238D01*
X7650810Y-12560238D02*
X7536524Y-12674524D01*
X7536524Y-12674524D02*
X7660333Y-12674524D01*
X7841286Y-12474524D02*
X7746048Y-12474524D01*
X7746048Y-12474524D02*
X7736524Y-12569762D01*
X7736524Y-12569762D02*
X7746048Y-12560238D01*
X7746048Y-12560238D02*
X7765095Y-12550714D01*
X7765095Y-12550714D02*
X7812714Y-12550714D01*
X7812714Y-12550714D02*
X7831762Y-12560238D01*
X7831762Y-12560238D02*
X7841286Y-12569762D01*
X7841286Y-12569762D02*
X7850810Y-12588809D01*
X7850810Y-12588809D02*
X7850810Y-12636428D01*
X7850810Y-12636428D02*
X7841286Y-12655476D01*
X7841286Y-12655476D02*
X7831762Y-12665000D01*
X7831762Y-12665000D02*
X7812714Y-12674524D01*
X7812714Y-12674524D02*
X7765095Y-12674524D01*
X7765095Y-12674524D02*
X7746048Y-12665000D01*
X7746048Y-12665000D02*
X7736524Y-12655476D01*
X8022238Y-12474524D02*
X7984143Y-12474524D01*
X7984143Y-12474524D02*
X7965095Y-12484048D01*
X7965095Y-12484048D02*
X7955572Y-12493571D01*
X7955572Y-12493571D02*
X7936524Y-12522143D01*
X7936524Y-12522143D02*
X7927000Y-12560238D01*
X7927000Y-12560238D02*
X7927000Y-12636428D01*
X7927000Y-12636428D02*
X7936524Y-12655476D01*
X7936524Y-12655476D02*
X7946048Y-12665000D01*
X7946048Y-12665000D02*
X7965095Y-12674524D01*
X7965095Y-12674524D02*
X8003191Y-12674524D01*
X8003191Y-12674524D02*
X8022238Y-12665000D01*
X8022238Y-12665000D02*
X8031762Y-12655476D01*
X8031762Y-12655476D02*
X8041286Y-12636428D01*
X8041286Y-12636428D02*
X8041286Y-12588809D01*
X8041286Y-12588809D02*
X8031762Y-12569762D01*
X8031762Y-12569762D02*
X8022238Y-12560238D01*
X8022238Y-12560238D02*
X8003191Y-12550714D01*
X8003191Y-12550714D02*
X7965095Y-12550714D01*
X7965095Y-12550714D02*
X7946048Y-12560238D01*
X7946048Y-12560238D02*
X7936524Y-12569762D01*
X7936524Y-12569762D02*
X7927000Y-12588809D01*
X8117476Y-12474524D02*
X8117476Y-12512619D01*
X8193667Y-12474524D02*
X8193667Y-12512619D01*
X8488905Y-12750714D02*
X8479381Y-12741190D01*
X8479381Y-12741190D02*
X8460334Y-12712619D01*
X8460334Y-12712619D02*
X8450810Y-12693571D01*
X8450810Y-12693571D02*
X8441286Y-12665000D01*
X8441286Y-12665000D02*
X8431762Y-12617381D01*
X8431762Y-12617381D02*
X8431762Y-12579286D01*
X8431762Y-12579286D02*
X8441286Y-12531667D01*
X8441286Y-12531667D02*
X8450810Y-12503095D01*
X8450810Y-12503095D02*
X8460334Y-12484048D01*
X8460334Y-12484048D02*
X8479381Y-12455476D01*
X8479381Y-12455476D02*
X8488905Y-12445952D01*
X8555572Y-12493571D02*
X8565096Y-12484048D01*
X8565096Y-12484048D02*
X8584143Y-12474524D01*
X8584143Y-12474524D02*
X8631762Y-12474524D01*
X8631762Y-12474524D02*
X8650810Y-12484048D01*
X8650810Y-12484048D02*
X8660334Y-12493571D01*
X8660334Y-12493571D02*
X8669857Y-12512619D01*
X8669857Y-12512619D02*
X8669857Y-12531667D01*
X8669857Y-12531667D02*
X8660334Y-12560238D01*
X8660334Y-12560238D02*
X8546048Y-12674524D01*
X8546048Y-12674524D02*
X8669857Y-12674524D01*
X8907953Y-12674524D02*
X8907953Y-12474524D01*
X8993667Y-12674524D02*
X8993667Y-12569762D01*
X8993667Y-12569762D02*
X8984143Y-12550714D01*
X8984143Y-12550714D02*
X8965096Y-12541190D01*
X8965096Y-12541190D02*
X8936524Y-12541190D01*
X8936524Y-12541190D02*
X8917477Y-12550714D01*
X8917477Y-12550714D02*
X8907953Y-12560238D01*
X9117477Y-12674524D02*
X9098429Y-12665000D01*
X9098429Y-12665000D02*
X9088905Y-12655476D01*
X9088905Y-12655476D02*
X9079381Y-12636428D01*
X9079381Y-12636428D02*
X9079381Y-12579286D01*
X9079381Y-12579286D02*
X9088905Y-12560238D01*
X9088905Y-12560238D02*
X9098429Y-12550714D01*
X9098429Y-12550714D02*
X9117477Y-12541190D01*
X9117477Y-12541190D02*
X9146048Y-12541190D01*
X9146048Y-12541190D02*
X9165096Y-12550714D01*
X9165096Y-12550714D02*
X9174619Y-12560238D01*
X9174619Y-12560238D02*
X9184143Y-12579286D01*
X9184143Y-12579286D02*
X9184143Y-12636428D01*
X9184143Y-12636428D02*
X9174619Y-12655476D01*
X9174619Y-12655476D02*
X9165096Y-12665000D01*
X9165096Y-12665000D02*
X9146048Y-12674524D01*
X9146048Y-12674524D02*
X9117477Y-12674524D01*
X9298429Y-12674524D02*
X9279381Y-12665000D01*
X9279381Y-12665000D02*
X9269858Y-12645952D01*
X9269858Y-12645952D02*
X9269858Y-12474524D01*
X9450810Y-12665000D02*
X9431762Y-12674524D01*
X9431762Y-12674524D02*
X9393667Y-12674524D01*
X9393667Y-12674524D02*
X9374619Y-12665000D01*
X9374619Y-12665000D02*
X9365096Y-12645952D01*
X9365096Y-12645952D02*
X9365096Y-12569762D01*
X9365096Y-12569762D02*
X9374619Y-12550714D01*
X9374619Y-12550714D02*
X9393667Y-12541190D01*
X9393667Y-12541190D02*
X9431762Y-12541190D01*
X9431762Y-12541190D02*
X9450810Y-12550714D01*
X9450810Y-12550714D02*
X9460334Y-12569762D01*
X9460334Y-12569762D02*
X9460334Y-12588809D01*
X9460334Y-12588809D02*
X9365096Y-12607857D01*
X9536524Y-12665000D02*
X9555572Y-12674524D01*
X9555572Y-12674524D02*
X9593667Y-12674524D01*
X9593667Y-12674524D02*
X9612715Y-12665000D01*
X9612715Y-12665000D02*
X9622239Y-12645952D01*
X9622239Y-12645952D02*
X9622239Y-12636428D01*
X9622239Y-12636428D02*
X9612715Y-12617381D01*
X9612715Y-12617381D02*
X9593667Y-12607857D01*
X9593667Y-12607857D02*
X9565096Y-12607857D01*
X9565096Y-12607857D02*
X9546048Y-12598333D01*
X9546048Y-12598333D02*
X9536524Y-12579286D01*
X9536524Y-12579286D02*
X9536524Y-12569762D01*
X9536524Y-12569762D02*
X9546048Y-12550714D01*
X9546048Y-12550714D02*
X9565096Y-12541190D01*
X9565096Y-12541190D02*
X9593667Y-12541190D01*
X9593667Y-12541190D02*
X9612715Y-12550714D01*
X9688905Y-12750714D02*
X9698429Y-12741190D01*
X9698429Y-12741190D02*
X9717477Y-12712619D01*
X9717477Y-12712619D02*
X9727000Y-12693571D01*
X9727000Y-12693571D02*
X9736524Y-12665000D01*
X9736524Y-12665000D02*
X9746048Y-12617381D01*
X9746048Y-12617381D02*
X9746048Y-12579286D01*
X9746048Y-12579286D02*
X9736524Y-12531667D01*
X9736524Y-12531667D02*
X9727000Y-12503095D01*
X9727000Y-12503095D02*
X9717477Y-12484048D01*
X9717477Y-12484048D02*
X9698429Y-12455476D01*
X9698429Y-12455476D02*
X9688905Y-12445952D01*
X10050810Y-12750714D02*
X10041286Y-12741190D01*
X10041286Y-12741190D02*
X10022239Y-12712619D01*
X10022239Y-12712619D02*
X10012715Y-12693571D01*
X10012715Y-12693571D02*
X10003191Y-12665000D01*
X10003191Y-12665000D02*
X9993667Y-12617381D01*
X9993667Y-12617381D02*
X9993667Y-12579286D01*
X9993667Y-12579286D02*
X10003191Y-12531667D01*
X10003191Y-12531667D02*
X10012715Y-12503095D01*
X10012715Y-12503095D02*
X10022239Y-12484048D01*
X10022239Y-12484048D02*
X10041286Y-12455476D01*
X10041286Y-12455476D02*
X10050810Y-12445952D01*
X10127000Y-12541190D02*
X10127000Y-12674524D01*
X10127000Y-12560238D02*
X10136524Y-12550714D01*
X10136524Y-12550714D02*
X10155572Y-12541190D01*
X10155572Y-12541190D02*
X10184143Y-12541190D01*
X10184143Y-12541190D02*
X10203191Y-12550714D01*
X10203191Y-12550714D02*
X10212715Y-12569762D01*
X10212715Y-12569762D02*
X10212715Y-12674524D01*
X10336524Y-12674524D02*
X10317477Y-12665000D01*
X10317477Y-12665000D02*
X10307953Y-12655476D01*
X10307953Y-12655476D02*
X10298429Y-12636428D01*
X10298429Y-12636428D02*
X10298429Y-12579286D01*
X10298429Y-12579286D02*
X10307953Y-12560238D01*
X10307953Y-12560238D02*
X10317477Y-12550714D01*
X10317477Y-12550714D02*
X10336524Y-12541190D01*
X10336524Y-12541190D02*
X10365096Y-12541190D01*
X10365096Y-12541190D02*
X10384143Y-12550714D01*
X10384143Y-12550714D02*
X10393667Y-12560238D01*
X10393667Y-12560238D02*
X10403191Y-12579286D01*
X10403191Y-12579286D02*
X10403191Y-12636428D01*
X10403191Y-12636428D02*
X10393667Y-12655476D01*
X10393667Y-12655476D02*
X10384143Y-12665000D01*
X10384143Y-12665000D02*
X10365096Y-12674524D01*
X10365096Y-12674524D02*
X10336524Y-12674524D01*
X10460334Y-12541190D02*
X10536524Y-12541190D01*
X10488905Y-12474524D02*
X10488905Y-12645952D01*
X10488905Y-12645952D02*
X10498429Y-12665000D01*
X10498429Y-12665000D02*
X10517477Y-12674524D01*
X10517477Y-12674524D02*
X10536524Y-12674524D01*
X10755572Y-12541190D02*
X10755572Y-12741190D01*
X10755572Y-12550714D02*
X10774620Y-12541190D01*
X10774620Y-12541190D02*
X10812715Y-12541190D01*
X10812715Y-12541190D02*
X10831762Y-12550714D01*
X10831762Y-12550714D02*
X10841286Y-12560238D01*
X10841286Y-12560238D02*
X10850810Y-12579286D01*
X10850810Y-12579286D02*
X10850810Y-12636428D01*
X10850810Y-12636428D02*
X10841286Y-12655476D01*
X10841286Y-12655476D02*
X10831762Y-12665000D01*
X10831762Y-12665000D02*
X10812715Y-12674524D01*
X10812715Y-12674524D02*
X10774620Y-12674524D01*
X10774620Y-12674524D02*
X10755572Y-12665000D01*
X10965096Y-12674524D02*
X10946048Y-12665000D01*
X10946048Y-12665000D02*
X10936524Y-12645952D01*
X10936524Y-12645952D02*
X10936524Y-12474524D01*
X11127001Y-12674524D02*
X11127001Y-12569762D01*
X11127001Y-12569762D02*
X11117477Y-12550714D01*
X11117477Y-12550714D02*
X11098429Y-12541190D01*
X11098429Y-12541190D02*
X11060334Y-12541190D01*
X11060334Y-12541190D02*
X11041286Y-12550714D01*
X11127001Y-12665000D02*
X11107953Y-12674524D01*
X11107953Y-12674524D02*
X11060334Y-12674524D01*
X11060334Y-12674524D02*
X11041286Y-12665000D01*
X11041286Y-12665000D02*
X11031762Y-12645952D01*
X11031762Y-12645952D02*
X11031762Y-12626905D01*
X11031762Y-12626905D02*
X11041286Y-12607857D01*
X11041286Y-12607857D02*
X11060334Y-12598333D01*
X11060334Y-12598333D02*
X11107953Y-12598333D01*
X11107953Y-12598333D02*
X11127001Y-12588809D01*
X11193667Y-12541190D02*
X11269858Y-12541190D01*
X11222239Y-12474524D02*
X11222239Y-12645952D01*
X11222239Y-12645952D02*
X11231762Y-12665000D01*
X11231762Y-12665000D02*
X11250810Y-12674524D01*
X11250810Y-12674524D02*
X11269858Y-12674524D01*
X11412715Y-12665000D02*
X11393667Y-12674524D01*
X11393667Y-12674524D02*
X11355572Y-12674524D01*
X11355572Y-12674524D02*
X11336524Y-12665000D01*
X11336524Y-12665000D02*
X11327000Y-12645952D01*
X11327000Y-12645952D02*
X11327000Y-12569762D01*
X11327000Y-12569762D02*
X11336524Y-12550714D01*
X11336524Y-12550714D02*
X11355572Y-12541190D01*
X11355572Y-12541190D02*
X11393667Y-12541190D01*
X11393667Y-12541190D02*
X11412715Y-12550714D01*
X11412715Y-12550714D02*
X11422239Y-12569762D01*
X11422239Y-12569762D02*
X11422239Y-12588809D01*
X11422239Y-12588809D02*
X11327000Y-12607857D01*
X11593667Y-12674524D02*
X11593667Y-12474524D01*
X11593667Y-12665000D02*
X11574620Y-12674524D01*
X11574620Y-12674524D02*
X11536524Y-12674524D01*
X11536524Y-12674524D02*
X11517477Y-12665000D01*
X11517477Y-12665000D02*
X11507953Y-12655476D01*
X11507953Y-12655476D02*
X11498429Y-12636428D01*
X11498429Y-12636428D02*
X11498429Y-12579286D01*
X11498429Y-12579286D02*
X11507953Y-12560238D01*
X11507953Y-12560238D02*
X11517477Y-12550714D01*
X11517477Y-12550714D02*
X11536524Y-12541190D01*
X11536524Y-12541190D02*
X11574620Y-12541190D01*
X11574620Y-12541190D02*
X11593667Y-12550714D01*
X11669858Y-12750714D02*
X11679381Y-12741190D01*
X11679381Y-12741190D02*
X11698429Y-12712619D01*
X11698429Y-12712619D02*
X11707953Y-12693571D01*
X11707953Y-12693571D02*
X11717477Y-12665000D01*
X11717477Y-12665000D02*
X11727000Y-12617381D01*
X11727000Y-12617381D02*
X11727000Y-12579286D01*
X11727000Y-12579286D02*
X11717477Y-12531667D01*
X11717477Y-12531667D02*
X11707953Y-12503095D01*
X11707953Y-12503095D02*
X11698429Y-12484048D01*
X11698429Y-12484048D02*
X11679381Y-12455476D01*
X11679381Y-12455476D02*
X11669858Y-12445952D01*
M02*
