M48
; DRILL file {KiCad 7.0.1} date Mon Jul 10 14:28:22 2023
; FORMAT={-:-/ absolute / inch / decimal}
; #@! TF.CreationDate,2023-07-10T14:28:22-04:00
; #@! TF.GenerationSoftware,Kicad,Pcbnew,7.0.1
; #@! TF.FileFunction,Plated,1,4,PTH
FMAT,2
INCH
; #@! TA.AperFunction,Plated,PTH,ViaDrill
T1C0.0157
; #@! TA.AperFunction,Plated,PTH,ComponentDrill
T2C0.0236
; #@! TA.AperFunction,Plated,PTH,ComponentDrill
T3C0.0394
; #@! TA.AperFunction,Plated,PTH,ComponentDrill
T4C0.0472
; #@! TA.AperFunction,Plated,PTH,ComponentDrill
T5C0.1063
%
G90
G05
T1
X1.9961Y-2.5433
X2.0Y-2.7756
X2.0Y-3.0827
X2.0Y-4.4055
X2.002Y-3.9764
X2.0059Y-3.4154
X2.0059Y-3.5177
X2.0059Y-3.6201
X2.0374Y-2.6142
X2.0374Y-2.937
X2.0374Y-3.2559
X2.0728Y-3.4154
X2.0728Y-3.4823
X2.0925Y-3.6713
X2.0965Y-3.6142
X2.1004Y-2.6142
X2.1112Y-4.2677
X2.1161Y-2.937
X2.1161Y-3.2559
X2.124Y-3.9331
X2.1457Y-3.9813
X2.1457Y-4.3465
X2.1678Y-2.7205
X2.1762Y-3.0315
X2.187Y-2.6575
X2.1949Y-2.937
X2.1949Y-3.2559
X2.2067Y-3.7264
X2.2067Y-3.7697
X2.2087Y-3.9803
X2.2214Y-3.3327
X2.2283Y-4.6339
X2.2382Y-2.6575
X2.2382Y-2.7008
X2.2382Y-3.6614
X2.2402Y-3.0039
X2.2469Y-2.497
X2.2539Y-3.7264
X2.2539Y-3.7697
X2.2559Y-4.2008
X2.2677Y-2.3307
X2.2894Y-3.6614
X2.3406Y-3.6102
X2.3406Y-3.6614
X2.3524Y-2.874
X2.3524Y-3.1811
X2.3583Y-2.7874
X2.3602Y-3.4075
X2.3602Y-3.441
X2.3701Y-3.0669
X2.3819Y-2.3976
X2.3863Y-3.8465
X2.3917Y-3.6102
X2.3917Y-3.6614
X2.3965Y-2.4606
X2.3965Y-2.5
X2.4123Y-2.5591
X2.4123Y-2.6024
X2.4398Y-2.4606
X2.4398Y-2.5
X2.4429Y-3.6102
X2.4429Y-3.6614
X2.4429Y-4.622
X2.4493Y-3.8465
X2.4587Y-2.5591
X2.4587Y-2.6024
X2.4705Y-4.437
X2.4768Y-2.9011
X2.4768Y-3.0364
X2.4986Y-3.0758
X2.5059Y-2.5591
X2.5059Y-2.6024
X2.5123Y-3.8465
X2.5256Y-3.4173
X2.531Y-2.803
X2.5374Y-4.622
X2.5571Y-2.3898
X2.5571Y-2.4311
X2.5571Y-2.4705
X2.5579Y-2.6831
X2.5983Y-2.8901
X2.6004Y-4.5354
X2.6013Y-2.6831
X2.6043Y-2.3898
X2.6043Y-2.4311
X2.6043Y-2.4705
X2.6043Y-3.4173
X2.6097Y-2.803
X2.6201Y-4.437
X2.6373Y-3.0236
X2.6402Y-3.0758
X2.6713Y-2.3193
X2.6752Y-2.9229
X2.6791Y-4.437
X2.6831Y-2.6063
X2.6831Y-3.4173
X2.687Y-4.4724
X2.7224Y-4.3317
X2.7461Y-2.6374
X2.7539Y-2.4961
X2.7549Y-4.6378
X2.7616Y-3.0659
X2.7712Y-3.0049
X2.7854Y-2.8268
X2.7854Y-2.9094
X2.813Y-2.3154
X2.813Y-2.6811
X2.8332Y-2.9099
X2.8445Y-2.8268
X2.8548Y-2.5315
X2.876Y-2.8858
X2.8878Y-2.9744
X2.8996Y-4.6339
X2.9114Y-3.902
X2.9114Y-3.9394
X2.9114Y-3.9768
X2.9193Y-3.1063
X2.9311Y-4.0748
X2.9433Y-2.3154
X2.9508Y-3.902
X2.9508Y-3.9394
X2.9508Y-3.9768
X2.9587Y-2.7992
X2.9587Y-4.2835
X2.9665Y-4.3937
X2.9862Y-4.4606
X2.9941Y-2.6299
X2.9941Y-2.6811
X3.0271Y-3.0079
X3.0354Y-4.2484
X3.0374Y-2.5
X3.0452Y-2.9132
X3.0453Y-2.8425
X3.0689Y-3.0433
X3.0801Y-2.7165
X3.0801Y-2.811
X3.0866Y-3.4173
X3.0974Y-4.4321
X3.1122Y-3.0433
X3.128Y-2.6142
X3.1318Y-2.9134
X3.1358Y-2.7953
X3.1622Y-4.0185
X3.1634Y-4.6417
X3.1654Y-3.4173
X3.177Y-3.9138
X3.1778Y-3.0432
X3.1796Y-4.4257
X3.1949Y-3.1614
X3.1988Y-4.2756
X3.2028Y-2.6407
X3.2067Y-2.4882
X3.2106Y-4.2323
X3.2191Y-2.9441
X3.2222Y-3.9492
X3.2222Y-3.9965
X3.2335Y-3.6772
X3.2335Y-3.7323
X3.2343Y-3.7874
X3.2441Y-3.4173
X3.2697Y-2.6811
X3.2933Y-2.9252
X3.2933Y-3.7323
X3.2933Y-3.7874
X3.296Y-4.33
X3.3051Y-2.5315
X3.3406Y-4.6378
X3.3524Y-3.2362
X3.3563Y-3.2953
X3.3602Y-3.4606
X3.374Y-3.6429
X3.3745Y-3.6035
X3.376Y-3.5327
X3.3819Y-3.7264
X3.3858Y-2.7874
X3.3858Y-3.0748
X3.4035Y-4.0866
X3.4173Y-4.2835
X3.4193Y-3.1929
X3.4193Y-3.8898
X3.4232Y-4.3504
X3.4232Y-4.3976
X3.4252Y-4.4646
X3.4429Y-2.6811
X3.45Y-2.6228
X3.4547Y-2.9409
X3.4567Y-4.6378
X3.4902Y-2.4961
X3.502Y-3.6575
X3.502Y-4.2835
X3.5138Y-3.315
X3.5197Y-3.5169
X3.5217Y-3.372
X3.5453Y-4.2835
X3.5689Y-2.5709
X3.5748Y-4.0893
X3.5827Y-3.0482
X3.5827Y-3.5169
X3.6083Y-3.7874
X3.6122Y-2.7835
X3.6122Y-3.1378
X3.6201Y-3.8622
X3.6437Y-3.3228
X3.6457Y-2.6412
X3.6516Y-3.2756
X3.6555Y-4.0886
X3.6594Y-2.4882
X3.6614Y-4.4291
X3.6673Y-3.1417
X3.7008Y-2.9449
X3.7165Y-4.2461
X3.7185Y-2.6811
X3.7224Y-3.1417
X3.7244Y-3.2244
X3.7362Y-4.4306
X3.7401Y-3.8346
X3.7402Y-2.9449
X3.7539Y-3.3563
X3.7539Y-3.3956
X3.7539Y-3.5925
X3.7539Y-4.6339
X3.7544Y-2.533
X3.7618Y-3.4842
X3.7618Y-3.5433
X3.7776Y-3.0354
X3.7776Y-3.1417
X3.7785Y-4.2431
X3.7835Y-2.9449
X3.7874Y-4.2874
X3.8051Y-3.8622
X3.8051Y-3.9134
X3.813Y-3.6417
X3.8445Y-3.561
X3.8602Y-4.2126
X3.8642Y-4.3278
X3.8701Y-4.4685
X3.872Y-2.8307
X3.876Y-3.3268
X3.876Y-4.626
X3.8839Y-3.9628
X3.8917Y-2.6811
X3.8976Y-2.624
X3.9052Y-2.7851
X3.9213Y-3.3799
X3.939Y-2.5079
X3.9448Y-3.9133
X3.9469Y-2.6102
X3.9469Y-2.7244
X3.9472Y-3.626
X3.9508Y-4.1142
X3.9587Y-4.2441
X3.9783Y-3.0
X3.9823Y-2.8583
X3.9862Y-3.435
X3.9865Y-3.626
X3.9941Y-3.1417
X4.0226Y-4.1102
X4.0256Y-3.0
X4.0262Y-4.4055
X4.0264Y-2.8583
X4.0335Y-3.1634
X4.0335Y-3.6417
X4.0596Y-4.5197
X4.0728Y-3.6417
X4.0807Y-3.1654
X4.0886Y-3.7256
X4.1043Y-4.1102
X4.1161Y-2.7717
X4.124Y-2.8898
X4.1266Y-4.626
X4.128Y-2.8268
X4.1391Y-3.0945
X4.146Y-3.7874
X4.1482Y-4.3465
X4.1555Y-3.2913
X4.1594Y-2.315
X4.1902Y-4.1496
X4.1909Y-3.0472
X4.1909Y-3.7655
X4.1909Y-4.2047
X4.1949Y-3.3504
X4.2106Y-3.2283
X4.2185Y-3.8346
X4.2224Y-2.3976
X4.2382Y-2.689
X4.2542Y-2.5276
X4.2545Y-4.4055
X4.2697Y-2.689
X4.2697Y-4.6256
X4.2776Y-3.8346
X4.2854Y-4.0669
X4.2894Y-2.3976
X4.3064Y-3.2913
X4.3091Y-4.2835
X4.3445Y-4.1654
X4.3524Y-2.315
X4.3642Y-2.7402
X4.3681Y-4.6256
X4.376Y-2.8898
X4.4006Y-4.2795
X4.4146Y-3.0472
X4.4146Y-3.1654
X4.4154Y-3.2205
X4.4154Y-3.2756
X4.4272Y-3.9213
X4.4429Y-3.4567
X4.4744Y-3.0472
X4.4744Y-3.1654
X4.4744Y-3.2205
X4.4744Y-3.2756
X4.4803Y-4.6339
X4.4902Y-2.5197
X4.4902Y-2.5669
X4.498Y-2.6181
X4.498Y-2.6644
X4.498Y-2.7116
X4.498Y-2.7589
X4.498Y-2.8031
X4.5118Y-2.3081
X4.5118Y-2.3543
X4.5118Y-2.4016
X4.5118Y-2.4449
X4.5118Y-2.4843
X4.5256Y-4.2756
X4.5354Y-2.6024
X4.5367Y-3.5394
X4.5374Y-3.5945
X4.5399Y-4.4252
X4.5453Y-4.0394
X4.5512Y-2.3081
X4.5512Y-2.3533
X4.5512Y-2.4006
X4.5512Y-2.4449
X4.5512Y-2.4843
X4.565Y-4.2244
X4.5689Y-4.5394
X4.5689Y-4.5709
X4.5768Y-3.1732
X4.5787Y-2.7116
X4.5787Y-2.9439
X4.5787Y-3.0522
X4.5788Y-2.7589
X4.5788Y-2.8051
X4.5886Y-4.4291
X4.5906Y-2.4843
X4.5945Y-2.3081
X4.5965Y-3.5394
X4.5965Y-3.5945
X4.6077Y-4.2717
X4.6161Y-4.2165
X4.622Y-2.7136
X4.622Y-3.1841
X4.6221Y-2.7608
X4.6221Y-2.8071
X4.624Y-3.2953
X4.628Y-4.5591
X4.6372Y-4.4252
X4.6378Y-2.3071
X4.6457Y-2.878
X4.6457Y-3.0039
X4.649Y-3.9134
X4.6634Y-3.7795
X4.6654Y-2.7136
X4.6655Y-2.7608
X4.6655Y-2.8071
X4.6772Y-2.3071
X4.6791Y-3.9449
X4.6791Y-4.6339
X4.6818Y-4.0013
X4.6909Y-3.878
X4.6909Y-4.2835
X4.7008Y-2.4803
X4.7042Y-4.1811
X4.7065Y-4.1372
X4.7067Y-3.9636
X4.7126Y-2.8061
X4.7126Y-2.9439
X4.7205Y-2.3071
X4.7224Y-3.7795
X4.7283Y-2.4606
X4.7382Y-4.4331
X4.75Y-3.4478
X4.7598Y-2.3071
X4.7598Y-2.3533
X4.7598Y-2.3976
X4.7598Y-2.4449
X4.7756Y-2.7431
X4.7756Y-2.877
X4.7756Y-3.0069
X4.7776Y-3.6417
X4.7805Y-3.2953
X4.7815Y-3.7795
X4.7815Y-4.2677
X4.7972Y-2.4439
X4.7972Y-4.5157
X4.8012Y-2.3071
X4.8012Y-2.3533
X4.8012Y-2.3976
X4.8012Y-2.4911
X4.8366Y-2.4439
X4.8366Y-2.4911
X4.8366Y-4.3898
X4.8425Y-2.8061
X4.8425Y-2.9439
X4.8563Y-3.9646
X4.87Y-2.6995
X4.8878Y-3.6024
X4.8917Y-3.3504
X4.8917Y-3.6378
X4.8996Y-3.3189
X4.9055Y-2.7431
X4.9055Y-2.877
X4.9055Y-3.0069
X4.9127Y-3.2442
X4.939Y-4.3898
X4.9508Y-2.5591
X4.9566Y-3.0463
X4.9705Y-4.6614
X4.9724Y-2.8061
X4.9724Y-2.9439
X4.9999Y-3.0463
X5.0177Y-3.4222
X5.0177Y-3.5364
X5.0315Y-3.2008
X5.0394Y-2.7431
X5.0394Y-2.877
X5.0394Y-3.0069
X5.0787Y-3.2008
X5.0865Y-2.5659
X5.1063Y-2.8061
X5.1063Y-2.9439
X5.1298Y-3.0541
X5.1417Y-3.1762
X5.1614Y-2.562
X5.1713Y-3.4222
X5.1713Y-3.5364
T3
X2.4173Y-4.0709
X2.4862Y-3.2835
X2.7835Y-3.2835
X3.0807Y-3.2835
X4.876Y-4.5394
X4.923Y-3.8134
X4.9232Y-3.9134
X4.9232Y-4.0134
X4.9232Y-4.1134
X4.9232Y-4.2134
X4.9232Y-4.3134
X5.023Y-3.8134
X5.0232Y-3.9134
X5.0232Y-4.0134
X5.0232Y-4.1134
X5.0232Y-4.2134
X5.0232Y-4.3134
X5.123Y-3.8134
X5.1232Y-3.9134
X5.1232Y-4.0134
X5.1232Y-4.1134
X5.1232Y-4.2134
X5.1232Y-4.3134
T4
X2.3484Y-4.5236
X2.4862Y-4.5236
T5
X2.0795Y-2.3965
X2.0795Y-4.5618
X5.0717Y-2.3965
X5.0717Y-4.5618
T2
G00X4.957Y-3.315
M15
G01X5.0004Y-3.315
M16
G05
G00X4.957Y-3.6551
M15
G01X5.0004Y-3.6551
M16
G05
G00X5.1315Y-3.315
M15
G01X5.1551Y-3.315
M16
G05
G00X5.1315Y-3.6551
M15
G01X5.1551Y-3.6551
M16
G05
T0
M30
