%TF.GenerationSoftware,KiCad,Pcbnew,7.0.1*%
%TF.CreationDate,2023-07-10T14:28:26-04:00*%
%TF.ProjectId,FlightComputer,466c6967-6874-4436-9f6d-70757465722e,rev?*%
%TF.SameCoordinates,Original*%
%TF.FileFunction,Legend,Bot*%
%TF.FilePolarity,Positive*%
%FSLAX46Y46*%
G04 Gerber Fmt 4.6, Leading zero omitted, Abs format (unit mm)*
G04 Created by KiCad (PCBNEW 7.0.1) date 2023-07-10 14:28:26*
%MOMM*%
%LPD*%
G01*
G04 APERTURE LIST*
%ADD10C,0.150000*%
G04 APERTURE END LIST*
D10*
X77504761Y-61465714D02*
X77552380Y-61560952D01*
X77552380Y-61560952D02*
X77552380Y-61703809D01*
X77552380Y-61703809D02*
X77504761Y-61846666D01*
X77504761Y-61846666D02*
X77409523Y-61941904D01*
X77409523Y-61941904D02*
X77314285Y-61989523D01*
X77314285Y-61989523D02*
X77123809Y-62037142D01*
X77123809Y-62037142D02*
X76980952Y-62037142D01*
X76980952Y-62037142D02*
X76790476Y-61989523D01*
X76790476Y-61989523D02*
X76695238Y-61941904D01*
X76695238Y-61941904D02*
X76600000Y-61846666D01*
X76600000Y-61846666D02*
X76552380Y-61703809D01*
X76552380Y-61703809D02*
X76552380Y-61608571D01*
X76552380Y-61608571D02*
X76600000Y-61465714D01*
X76600000Y-61465714D02*
X76647619Y-61418095D01*
X76647619Y-61418095D02*
X76980952Y-61418095D01*
X76980952Y-61418095D02*
X76980952Y-61608571D01*
X76552380Y-60989523D02*
X77552380Y-60989523D01*
X77552380Y-60989523D02*
X76552380Y-60418095D01*
X76552380Y-60418095D02*
X77552380Y-60418095D01*
X76552380Y-59941904D02*
X77552380Y-59941904D01*
X77552380Y-59941904D02*
X77552380Y-59703809D01*
X77552380Y-59703809D02*
X77504761Y-59560952D01*
X77504761Y-59560952D02*
X77409523Y-59465714D01*
X77409523Y-59465714D02*
X77314285Y-59418095D01*
X77314285Y-59418095D02*
X77123809Y-59370476D01*
X77123809Y-59370476D02*
X76980952Y-59370476D01*
X76980952Y-59370476D02*
X76790476Y-59418095D01*
X76790476Y-59418095D02*
X76695238Y-59465714D01*
X76695238Y-59465714D02*
X76600000Y-59560952D01*
X76600000Y-59560952D02*
X76552380Y-59703809D01*
X76552380Y-59703809D02*
X76552380Y-59941904D01*
X74932380Y-61227618D02*
X75932380Y-61227618D01*
X74932380Y-60751428D02*
X75932380Y-60751428D01*
X75932380Y-60751428D02*
X74932380Y-60180000D01*
X74932380Y-60180000D02*
X75932380Y-60180000D01*
X75932380Y-59846666D02*
X75932380Y-59275238D01*
X74932380Y-59560952D02*
X75932380Y-59560952D01*
X73360000Y-61799047D02*
X73312380Y-61656190D01*
X73312380Y-61656190D02*
X73312380Y-61418095D01*
X73312380Y-61418095D02*
X73360000Y-61322857D01*
X73360000Y-61322857D02*
X73407619Y-61275238D01*
X73407619Y-61275238D02*
X73502857Y-61227619D01*
X73502857Y-61227619D02*
X73598095Y-61227619D01*
X73598095Y-61227619D02*
X73693333Y-61275238D01*
X73693333Y-61275238D02*
X73740952Y-61322857D01*
X73740952Y-61322857D02*
X73788571Y-61418095D01*
X73788571Y-61418095D02*
X73836190Y-61608571D01*
X73836190Y-61608571D02*
X73883809Y-61703809D01*
X73883809Y-61703809D02*
X73931428Y-61751428D01*
X73931428Y-61751428D02*
X74026666Y-61799047D01*
X74026666Y-61799047D02*
X74121904Y-61799047D01*
X74121904Y-61799047D02*
X74217142Y-61751428D01*
X74217142Y-61751428D02*
X74264761Y-61703809D01*
X74264761Y-61703809D02*
X74312380Y-61608571D01*
X74312380Y-61608571D02*
X74312380Y-61370476D01*
X74312380Y-61370476D02*
X74264761Y-61227619D01*
X73312380Y-60799047D02*
X74312380Y-60799047D01*
X74312380Y-60799047D02*
X74312380Y-60560952D01*
X74312380Y-60560952D02*
X74264761Y-60418095D01*
X74264761Y-60418095D02*
X74169523Y-60322857D01*
X74169523Y-60322857D02*
X74074285Y-60275238D01*
X74074285Y-60275238D02*
X73883809Y-60227619D01*
X73883809Y-60227619D02*
X73740952Y-60227619D01*
X73740952Y-60227619D02*
X73550476Y-60275238D01*
X73550476Y-60275238D02*
X73455238Y-60322857D01*
X73455238Y-60322857D02*
X73360000Y-60418095D01*
X73360000Y-60418095D02*
X73312380Y-60560952D01*
X73312380Y-60560952D02*
X73312380Y-60799047D01*
X73598095Y-59846666D02*
X73598095Y-59370476D01*
X73312380Y-59941904D02*
X74312380Y-59608571D01*
X74312380Y-59608571D02*
X73312380Y-59275238D01*
X71740000Y-61751428D02*
X71692380Y-61608571D01*
X71692380Y-61608571D02*
X71692380Y-61370476D01*
X71692380Y-61370476D02*
X71740000Y-61275238D01*
X71740000Y-61275238D02*
X71787619Y-61227619D01*
X71787619Y-61227619D02*
X71882857Y-61180000D01*
X71882857Y-61180000D02*
X71978095Y-61180000D01*
X71978095Y-61180000D02*
X72073333Y-61227619D01*
X72073333Y-61227619D02*
X72120952Y-61275238D01*
X72120952Y-61275238D02*
X72168571Y-61370476D01*
X72168571Y-61370476D02*
X72216190Y-61560952D01*
X72216190Y-61560952D02*
X72263809Y-61656190D01*
X72263809Y-61656190D02*
X72311428Y-61703809D01*
X72311428Y-61703809D02*
X72406666Y-61751428D01*
X72406666Y-61751428D02*
X72501904Y-61751428D01*
X72501904Y-61751428D02*
X72597142Y-61703809D01*
X72597142Y-61703809D02*
X72644761Y-61656190D01*
X72644761Y-61656190D02*
X72692380Y-61560952D01*
X72692380Y-61560952D02*
X72692380Y-61322857D01*
X72692380Y-61322857D02*
X72644761Y-61180000D01*
X71787619Y-60180000D02*
X71740000Y-60227619D01*
X71740000Y-60227619D02*
X71692380Y-60370476D01*
X71692380Y-60370476D02*
X71692380Y-60465714D01*
X71692380Y-60465714D02*
X71740000Y-60608571D01*
X71740000Y-60608571D02*
X71835238Y-60703809D01*
X71835238Y-60703809D02*
X71930476Y-60751428D01*
X71930476Y-60751428D02*
X72120952Y-60799047D01*
X72120952Y-60799047D02*
X72263809Y-60799047D01*
X72263809Y-60799047D02*
X72454285Y-60751428D01*
X72454285Y-60751428D02*
X72549523Y-60703809D01*
X72549523Y-60703809D02*
X72644761Y-60608571D01*
X72644761Y-60608571D02*
X72692380Y-60465714D01*
X72692380Y-60465714D02*
X72692380Y-60370476D01*
X72692380Y-60370476D02*
X72644761Y-60227619D01*
X72644761Y-60227619D02*
X72597142Y-60180000D01*
X71692380Y-59275238D02*
X71692380Y-59751428D01*
X71692380Y-59751428D02*
X72692380Y-59751428D01*
X71072380Y-61799047D02*
X71072380Y-61180000D01*
X71072380Y-61180000D02*
X70691428Y-61513333D01*
X70691428Y-61513333D02*
X70691428Y-61370476D01*
X70691428Y-61370476D02*
X70643809Y-61275238D01*
X70643809Y-61275238D02*
X70596190Y-61227619D01*
X70596190Y-61227619D02*
X70500952Y-61180000D01*
X70500952Y-61180000D02*
X70262857Y-61180000D01*
X70262857Y-61180000D02*
X70167619Y-61227619D01*
X70167619Y-61227619D02*
X70120000Y-61275238D01*
X70120000Y-61275238D02*
X70072380Y-61370476D01*
X70072380Y-61370476D02*
X70072380Y-61656190D01*
X70072380Y-61656190D02*
X70120000Y-61751428D01*
X70120000Y-61751428D02*
X70167619Y-61799047D01*
X71072380Y-60894285D02*
X70072380Y-60560952D01*
X70072380Y-60560952D02*
X71072380Y-60227619D01*
X71072380Y-59989523D02*
X71072380Y-59370476D01*
X71072380Y-59370476D02*
X70691428Y-59703809D01*
X70691428Y-59703809D02*
X70691428Y-59560952D01*
X70691428Y-59560952D02*
X70643809Y-59465714D01*
X70643809Y-59465714D02*
X70596190Y-59418095D01*
X70596190Y-59418095D02*
X70500952Y-59370476D01*
X70500952Y-59370476D02*
X70262857Y-59370476D01*
X70262857Y-59370476D02*
X70167619Y-59418095D01*
X70167619Y-59418095D02*
X70120000Y-59465714D01*
X70120000Y-59465714D02*
X70072380Y-59560952D01*
X70072380Y-59560952D02*
X70072380Y-59846666D01*
X70072380Y-59846666D02*
X70120000Y-59941904D01*
X70120000Y-59941904D02*
X70167619Y-59989523D01*
X71028095Y-117309523D02*
X71028095Y-116833333D01*
X70742380Y-117404761D02*
X71742380Y-117071428D01*
X71742380Y-117071428D02*
X70742380Y-116738095D01*
X70742380Y-116404761D02*
X71742380Y-116404761D01*
X71742380Y-116404761D02*
X71742380Y-116166666D01*
X71742380Y-116166666D02*
X71694761Y-116023809D01*
X71694761Y-116023809D02*
X71599523Y-115928571D01*
X71599523Y-115928571D02*
X71504285Y-115880952D01*
X71504285Y-115880952D02*
X71313809Y-115833333D01*
X71313809Y-115833333D02*
X71170952Y-115833333D01*
X71170952Y-115833333D02*
X70980476Y-115880952D01*
X70980476Y-115880952D02*
X70885238Y-115928571D01*
X70885238Y-115928571D02*
X70790000Y-116023809D01*
X70790000Y-116023809D02*
X70742380Y-116166666D01*
X70742380Y-116166666D02*
X70742380Y-116404761D01*
X70837619Y-114833333D02*
X70790000Y-114880952D01*
X70790000Y-114880952D02*
X70742380Y-115023809D01*
X70742380Y-115023809D02*
X70742380Y-115119047D01*
X70742380Y-115119047D02*
X70790000Y-115261904D01*
X70790000Y-115261904D02*
X70885238Y-115357142D01*
X70885238Y-115357142D02*
X70980476Y-115404761D01*
X70980476Y-115404761D02*
X71170952Y-115452380D01*
X71170952Y-115452380D02*
X71313809Y-115452380D01*
X71313809Y-115452380D02*
X71504285Y-115404761D01*
X71504285Y-115404761D02*
X71599523Y-115357142D01*
X71599523Y-115357142D02*
X71694761Y-115261904D01*
X71694761Y-115261904D02*
X71742380Y-115119047D01*
X71742380Y-115119047D02*
X71742380Y-115023809D01*
X71742380Y-115023809D02*
X71694761Y-114880952D01*
X71694761Y-114880952D02*
X71647142Y-114833333D01*
X71409047Y-113214285D02*
X70742380Y-113214285D01*
X71790000Y-113452380D02*
X71075714Y-113690475D01*
X71075714Y-113690475D02*
X71075714Y-113071428D01*
X70837619Y-112690475D02*
X70790000Y-112642856D01*
X70790000Y-112642856D02*
X70742380Y-112690475D01*
X70742380Y-112690475D02*
X70790000Y-112738094D01*
X70790000Y-112738094D02*
X70837619Y-112690475D01*
X70837619Y-112690475D02*
X70742380Y-112690475D01*
X71647142Y-112261904D02*
X71694761Y-112214285D01*
X71694761Y-112214285D02*
X71742380Y-112119047D01*
X71742380Y-112119047D02*
X71742380Y-111880952D01*
X71742380Y-111880952D02*
X71694761Y-111785714D01*
X71694761Y-111785714D02*
X71647142Y-111738095D01*
X71647142Y-111738095D02*
X71551904Y-111690476D01*
X71551904Y-111690476D02*
X71456666Y-111690476D01*
X71456666Y-111690476D02*
X71313809Y-111738095D01*
X71313809Y-111738095D02*
X70742380Y-112309523D01*
X70742380Y-112309523D02*
X70742380Y-111690476D01*
X71742380Y-111404761D02*
X70742380Y-111071428D01*
X70742380Y-111071428D02*
X71742380Y-110738095D01*
X70074761Y-116738095D02*
X70122380Y-116833333D01*
X70122380Y-116833333D02*
X70122380Y-116976190D01*
X70122380Y-116976190D02*
X70074761Y-117119047D01*
X70074761Y-117119047D02*
X69979523Y-117214285D01*
X69979523Y-117214285D02*
X69884285Y-117261904D01*
X69884285Y-117261904D02*
X69693809Y-117309523D01*
X69693809Y-117309523D02*
X69550952Y-117309523D01*
X69550952Y-117309523D02*
X69360476Y-117261904D01*
X69360476Y-117261904D02*
X69265238Y-117214285D01*
X69265238Y-117214285D02*
X69170000Y-117119047D01*
X69170000Y-117119047D02*
X69122380Y-116976190D01*
X69122380Y-116976190D02*
X69122380Y-116880952D01*
X69122380Y-116880952D02*
X69170000Y-116738095D01*
X69170000Y-116738095D02*
X69217619Y-116690476D01*
X69217619Y-116690476D02*
X69550952Y-116690476D01*
X69550952Y-116690476D02*
X69550952Y-116880952D01*
X69122380Y-116261904D02*
X70122380Y-116261904D01*
X70122380Y-116261904D02*
X69122380Y-115690476D01*
X69122380Y-115690476D02*
X70122380Y-115690476D01*
X69122380Y-115214285D02*
X70122380Y-115214285D01*
X70122380Y-115214285D02*
X70122380Y-114976190D01*
X70122380Y-114976190D02*
X70074761Y-114833333D01*
X70074761Y-114833333D02*
X69979523Y-114738095D01*
X69979523Y-114738095D02*
X69884285Y-114690476D01*
X69884285Y-114690476D02*
X69693809Y-114642857D01*
X69693809Y-114642857D02*
X69550952Y-114642857D01*
X69550952Y-114642857D02*
X69360476Y-114690476D01*
X69360476Y-114690476D02*
X69265238Y-114738095D01*
X69265238Y-114738095D02*
X69170000Y-114833333D01*
X69170000Y-114833333D02*
X69122380Y-114976190D01*
X69122380Y-114976190D02*
X69122380Y-115214285D01*
X110900000Y-63864285D02*
X110852380Y-63721428D01*
X110852380Y-63721428D02*
X110852380Y-63483333D01*
X110852380Y-63483333D02*
X110900000Y-63388095D01*
X110900000Y-63388095D02*
X110947619Y-63340476D01*
X110947619Y-63340476D02*
X111042857Y-63292857D01*
X111042857Y-63292857D02*
X111138095Y-63292857D01*
X111138095Y-63292857D02*
X111233333Y-63340476D01*
X111233333Y-63340476D02*
X111280952Y-63388095D01*
X111280952Y-63388095D02*
X111328571Y-63483333D01*
X111328571Y-63483333D02*
X111376190Y-63673809D01*
X111376190Y-63673809D02*
X111423809Y-63769047D01*
X111423809Y-63769047D02*
X111471428Y-63816666D01*
X111471428Y-63816666D02*
X111566666Y-63864285D01*
X111566666Y-63864285D02*
X111661904Y-63864285D01*
X111661904Y-63864285D02*
X111757142Y-63816666D01*
X111757142Y-63816666D02*
X111804761Y-63769047D01*
X111804761Y-63769047D02*
X111852380Y-63673809D01*
X111852380Y-63673809D02*
X111852380Y-63435714D01*
X111852380Y-63435714D02*
X111804761Y-63292857D01*
X111852380Y-62959523D02*
X110852380Y-62721428D01*
X110852380Y-62721428D02*
X111566666Y-62530952D01*
X111566666Y-62530952D02*
X110852380Y-62340476D01*
X110852380Y-62340476D02*
X111852380Y-62102381D01*
X110947619Y-61150000D02*
X110900000Y-61197619D01*
X110900000Y-61197619D02*
X110852380Y-61340476D01*
X110852380Y-61340476D02*
X110852380Y-61435714D01*
X110852380Y-61435714D02*
X110900000Y-61578571D01*
X110900000Y-61578571D02*
X110995238Y-61673809D01*
X110995238Y-61673809D02*
X111090476Y-61721428D01*
X111090476Y-61721428D02*
X111280952Y-61769047D01*
X111280952Y-61769047D02*
X111423809Y-61769047D01*
X111423809Y-61769047D02*
X111614285Y-61721428D01*
X111614285Y-61721428D02*
X111709523Y-61673809D01*
X111709523Y-61673809D02*
X111804761Y-61578571D01*
X111804761Y-61578571D02*
X111852380Y-61435714D01*
X111852380Y-61435714D02*
X111852380Y-61340476D01*
X111852380Y-61340476D02*
X111804761Y-61197619D01*
X111804761Y-61197619D02*
X111757142Y-61150000D01*
X110852380Y-60245238D02*
X110852380Y-60721428D01*
X110852380Y-60721428D02*
X111852380Y-60721428D01*
X110852380Y-59911904D02*
X111852380Y-59911904D01*
X110852380Y-59340476D02*
X111423809Y-59769047D01*
X111852380Y-59340476D02*
X111280952Y-59911904D01*
X109280000Y-63578570D02*
X109232380Y-63435713D01*
X109232380Y-63435713D02*
X109232380Y-63197618D01*
X109232380Y-63197618D02*
X109280000Y-63102380D01*
X109280000Y-63102380D02*
X109327619Y-63054761D01*
X109327619Y-63054761D02*
X109422857Y-63007142D01*
X109422857Y-63007142D02*
X109518095Y-63007142D01*
X109518095Y-63007142D02*
X109613333Y-63054761D01*
X109613333Y-63054761D02*
X109660952Y-63102380D01*
X109660952Y-63102380D02*
X109708571Y-63197618D01*
X109708571Y-63197618D02*
X109756190Y-63388094D01*
X109756190Y-63388094D02*
X109803809Y-63483332D01*
X109803809Y-63483332D02*
X109851428Y-63530951D01*
X109851428Y-63530951D02*
X109946666Y-63578570D01*
X109946666Y-63578570D02*
X110041904Y-63578570D01*
X110041904Y-63578570D02*
X110137142Y-63530951D01*
X110137142Y-63530951D02*
X110184761Y-63483332D01*
X110184761Y-63483332D02*
X110232380Y-63388094D01*
X110232380Y-63388094D02*
X110232380Y-63149999D01*
X110232380Y-63149999D02*
X110184761Y-63007142D01*
X110232380Y-62673808D02*
X109232380Y-62435713D01*
X109232380Y-62435713D02*
X109946666Y-62245237D01*
X109946666Y-62245237D02*
X109232380Y-62054761D01*
X109232380Y-62054761D02*
X110232380Y-61816666D01*
X109232380Y-61435713D02*
X110232380Y-61435713D01*
X110232380Y-61435713D02*
X110232380Y-61197618D01*
X110232380Y-61197618D02*
X110184761Y-61054761D01*
X110184761Y-61054761D02*
X110089523Y-60959523D01*
X110089523Y-60959523D02*
X109994285Y-60911904D01*
X109994285Y-60911904D02*
X109803809Y-60864285D01*
X109803809Y-60864285D02*
X109660952Y-60864285D01*
X109660952Y-60864285D02*
X109470476Y-60911904D01*
X109470476Y-60911904D02*
X109375238Y-60959523D01*
X109375238Y-60959523D02*
X109280000Y-61054761D01*
X109280000Y-61054761D02*
X109232380Y-61197618D01*
X109232380Y-61197618D02*
X109232380Y-61435713D01*
X109232380Y-60435713D02*
X110232380Y-60435713D01*
X110232380Y-59769047D02*
X110232380Y-59578571D01*
X110232380Y-59578571D02*
X110184761Y-59483333D01*
X110184761Y-59483333D02*
X110089523Y-59388095D01*
X110089523Y-59388095D02*
X109899047Y-59340476D01*
X109899047Y-59340476D02*
X109565714Y-59340476D01*
X109565714Y-59340476D02*
X109375238Y-59388095D01*
X109375238Y-59388095D02*
X109280000Y-59483333D01*
X109280000Y-59483333D02*
X109232380Y-59578571D01*
X109232380Y-59578571D02*
X109232380Y-59769047D01*
X109232380Y-59769047D02*
X109280000Y-59864285D01*
X109280000Y-59864285D02*
X109375238Y-59959523D01*
X109375238Y-59959523D02*
X109565714Y-60007142D01*
X109565714Y-60007142D02*
X109899047Y-60007142D01*
X109899047Y-60007142D02*
X110089523Y-59959523D01*
X110089523Y-59959523D02*
X110184761Y-59864285D01*
X110184761Y-59864285D02*
X110232380Y-59769047D01*
X108564761Y-61435714D02*
X108612380Y-61530952D01*
X108612380Y-61530952D02*
X108612380Y-61673809D01*
X108612380Y-61673809D02*
X108564761Y-61816666D01*
X108564761Y-61816666D02*
X108469523Y-61911904D01*
X108469523Y-61911904D02*
X108374285Y-61959523D01*
X108374285Y-61959523D02*
X108183809Y-62007142D01*
X108183809Y-62007142D02*
X108040952Y-62007142D01*
X108040952Y-62007142D02*
X107850476Y-61959523D01*
X107850476Y-61959523D02*
X107755238Y-61911904D01*
X107755238Y-61911904D02*
X107660000Y-61816666D01*
X107660000Y-61816666D02*
X107612380Y-61673809D01*
X107612380Y-61673809D02*
X107612380Y-61578571D01*
X107612380Y-61578571D02*
X107660000Y-61435714D01*
X107660000Y-61435714D02*
X107707619Y-61388095D01*
X107707619Y-61388095D02*
X108040952Y-61388095D01*
X108040952Y-61388095D02*
X108040952Y-61578571D01*
X107612380Y-60959523D02*
X108612380Y-60959523D01*
X108612380Y-60959523D02*
X107612380Y-60388095D01*
X107612380Y-60388095D02*
X108612380Y-60388095D01*
X107612380Y-59911904D02*
X108612380Y-59911904D01*
X108612380Y-59911904D02*
X108612380Y-59673809D01*
X108612380Y-59673809D02*
X108564761Y-59530952D01*
X108564761Y-59530952D02*
X108469523Y-59435714D01*
X108469523Y-59435714D02*
X108374285Y-59388095D01*
X108374285Y-59388095D02*
X108183809Y-59340476D01*
X108183809Y-59340476D02*
X108040952Y-59340476D01*
X108040952Y-59340476D02*
X107850476Y-59388095D01*
X107850476Y-59388095D02*
X107755238Y-59435714D01*
X107755238Y-59435714D02*
X107660000Y-59530952D01*
X107660000Y-59530952D02*
X107612380Y-59673809D01*
X107612380Y-59673809D02*
X107612380Y-59911904D01*
X105992380Y-62769047D02*
X106992380Y-62769047D01*
X106992380Y-62769047D02*
X106278095Y-62435714D01*
X106278095Y-62435714D02*
X106992380Y-62102381D01*
X106992380Y-62102381D02*
X105992380Y-62102381D01*
X105992380Y-61054762D02*
X106468571Y-61388095D01*
X105992380Y-61626190D02*
X106992380Y-61626190D01*
X106992380Y-61626190D02*
X106992380Y-61245238D01*
X106992380Y-61245238D02*
X106944761Y-61150000D01*
X106944761Y-61150000D02*
X106897142Y-61102381D01*
X106897142Y-61102381D02*
X106801904Y-61054762D01*
X106801904Y-61054762D02*
X106659047Y-61054762D01*
X106659047Y-61054762D02*
X106563809Y-61102381D01*
X106563809Y-61102381D02*
X106516190Y-61150000D01*
X106516190Y-61150000D02*
X106468571Y-61245238D01*
X106468571Y-61245238D02*
X106468571Y-61626190D01*
X106040000Y-60673809D02*
X105992380Y-60530952D01*
X105992380Y-60530952D02*
X105992380Y-60292857D01*
X105992380Y-60292857D02*
X106040000Y-60197619D01*
X106040000Y-60197619D02*
X106087619Y-60150000D01*
X106087619Y-60150000D02*
X106182857Y-60102381D01*
X106182857Y-60102381D02*
X106278095Y-60102381D01*
X106278095Y-60102381D02*
X106373333Y-60150000D01*
X106373333Y-60150000D02*
X106420952Y-60197619D01*
X106420952Y-60197619D02*
X106468571Y-60292857D01*
X106468571Y-60292857D02*
X106516190Y-60483333D01*
X106516190Y-60483333D02*
X106563809Y-60578571D01*
X106563809Y-60578571D02*
X106611428Y-60626190D01*
X106611428Y-60626190D02*
X106706666Y-60673809D01*
X106706666Y-60673809D02*
X106801904Y-60673809D01*
X106801904Y-60673809D02*
X106897142Y-60626190D01*
X106897142Y-60626190D02*
X106944761Y-60578571D01*
X106944761Y-60578571D02*
X106992380Y-60483333D01*
X106992380Y-60483333D02*
X106992380Y-60245238D01*
X106992380Y-60245238D02*
X106944761Y-60102381D01*
X106992380Y-59816666D02*
X106992380Y-59245238D01*
X105992380Y-59530952D02*
X106992380Y-59530952D01*
X104420000Y-62102380D02*
X104372380Y-61959523D01*
X104372380Y-61959523D02*
X104372380Y-61721428D01*
X104372380Y-61721428D02*
X104420000Y-61626190D01*
X104420000Y-61626190D02*
X104467619Y-61578571D01*
X104467619Y-61578571D02*
X104562857Y-61530952D01*
X104562857Y-61530952D02*
X104658095Y-61530952D01*
X104658095Y-61530952D02*
X104753333Y-61578571D01*
X104753333Y-61578571D02*
X104800952Y-61626190D01*
X104800952Y-61626190D02*
X104848571Y-61721428D01*
X104848571Y-61721428D02*
X104896190Y-61911904D01*
X104896190Y-61911904D02*
X104943809Y-62007142D01*
X104943809Y-62007142D02*
X104991428Y-62054761D01*
X104991428Y-62054761D02*
X105086666Y-62102380D01*
X105086666Y-62102380D02*
X105181904Y-62102380D01*
X105181904Y-62102380D02*
X105277142Y-62054761D01*
X105277142Y-62054761D02*
X105324761Y-62007142D01*
X105324761Y-62007142D02*
X105372380Y-61911904D01*
X105372380Y-61911904D02*
X105372380Y-61673809D01*
X105372380Y-61673809D02*
X105324761Y-61530952D01*
X105372380Y-61197618D02*
X104372380Y-60959523D01*
X104372380Y-60959523D02*
X105086666Y-60769047D01*
X105086666Y-60769047D02*
X104372380Y-60578571D01*
X104372380Y-60578571D02*
X105372380Y-60340476D01*
X105372380Y-59769047D02*
X105372380Y-59578571D01*
X105372380Y-59578571D02*
X105324761Y-59483333D01*
X105324761Y-59483333D02*
X105229523Y-59388095D01*
X105229523Y-59388095D02*
X105039047Y-59340476D01*
X105039047Y-59340476D02*
X104705714Y-59340476D01*
X104705714Y-59340476D02*
X104515238Y-59388095D01*
X104515238Y-59388095D02*
X104420000Y-59483333D01*
X104420000Y-59483333D02*
X104372380Y-59578571D01*
X104372380Y-59578571D02*
X104372380Y-59769047D01*
X104372380Y-59769047D02*
X104420000Y-59864285D01*
X104420000Y-59864285D02*
X104515238Y-59959523D01*
X104515238Y-59959523D02*
X104705714Y-60007142D01*
X104705714Y-60007142D02*
X105039047Y-60007142D01*
X105039047Y-60007142D02*
X105229523Y-59959523D01*
X105229523Y-59959523D02*
X105324761Y-59864285D01*
X105324761Y-59864285D02*
X105372380Y-59769047D01*
X97142380Y-117457142D02*
X97142380Y-116838095D01*
X97142380Y-116838095D02*
X96761428Y-117171428D01*
X96761428Y-117171428D02*
X96761428Y-117028571D01*
X96761428Y-117028571D02*
X96713809Y-116933333D01*
X96713809Y-116933333D02*
X96666190Y-116885714D01*
X96666190Y-116885714D02*
X96570952Y-116838095D01*
X96570952Y-116838095D02*
X96332857Y-116838095D01*
X96332857Y-116838095D02*
X96237619Y-116885714D01*
X96237619Y-116885714D02*
X96190000Y-116933333D01*
X96190000Y-116933333D02*
X96142380Y-117028571D01*
X96142380Y-117028571D02*
X96142380Y-117314285D01*
X96142380Y-117314285D02*
X96190000Y-117409523D01*
X96190000Y-117409523D02*
X96237619Y-117457142D01*
X97142380Y-116552380D02*
X96142380Y-116219047D01*
X96142380Y-116219047D02*
X97142380Y-115885714D01*
X97142380Y-115647618D02*
X97142380Y-115028571D01*
X97142380Y-115028571D02*
X96761428Y-115361904D01*
X96761428Y-115361904D02*
X96761428Y-115219047D01*
X96761428Y-115219047D02*
X96713809Y-115123809D01*
X96713809Y-115123809D02*
X96666190Y-115076190D01*
X96666190Y-115076190D02*
X96570952Y-115028571D01*
X96570952Y-115028571D02*
X96332857Y-115028571D01*
X96332857Y-115028571D02*
X96237619Y-115076190D01*
X96237619Y-115076190D02*
X96190000Y-115123809D01*
X96190000Y-115123809D02*
X96142380Y-115219047D01*
X96142380Y-115219047D02*
X96142380Y-115504761D01*
X96142380Y-115504761D02*
X96190000Y-115599999D01*
X96190000Y-115599999D02*
X96237619Y-115647618D01*
X94617619Y-116790476D02*
X94570000Y-116838095D01*
X94570000Y-116838095D02*
X94522380Y-116980952D01*
X94522380Y-116980952D02*
X94522380Y-117076190D01*
X94522380Y-117076190D02*
X94570000Y-117219047D01*
X94570000Y-117219047D02*
X94665238Y-117314285D01*
X94665238Y-117314285D02*
X94760476Y-117361904D01*
X94760476Y-117361904D02*
X94950952Y-117409523D01*
X94950952Y-117409523D02*
X95093809Y-117409523D01*
X95093809Y-117409523D02*
X95284285Y-117361904D01*
X95284285Y-117361904D02*
X95379523Y-117314285D01*
X95379523Y-117314285D02*
X95474761Y-117219047D01*
X95474761Y-117219047D02*
X95522380Y-117076190D01*
X95522380Y-117076190D02*
X95522380Y-116980952D01*
X95522380Y-116980952D02*
X95474761Y-116838095D01*
X95474761Y-116838095D02*
X95427142Y-116790476D01*
X94570000Y-116409523D02*
X94522380Y-116266666D01*
X94522380Y-116266666D02*
X94522380Y-116028571D01*
X94522380Y-116028571D02*
X94570000Y-115933333D01*
X94570000Y-115933333D02*
X94617619Y-115885714D01*
X94617619Y-115885714D02*
X94712857Y-115838095D01*
X94712857Y-115838095D02*
X94808095Y-115838095D01*
X94808095Y-115838095D02*
X94903333Y-115885714D01*
X94903333Y-115885714D02*
X94950952Y-115933333D01*
X94950952Y-115933333D02*
X94998571Y-116028571D01*
X94998571Y-116028571D02*
X95046190Y-116219047D01*
X95046190Y-116219047D02*
X95093809Y-116314285D01*
X95093809Y-116314285D02*
X95141428Y-116361904D01*
X95141428Y-116361904D02*
X95236666Y-116409523D01*
X95236666Y-116409523D02*
X95331904Y-116409523D01*
X95331904Y-116409523D02*
X95427142Y-116361904D01*
X95427142Y-116361904D02*
X95474761Y-116314285D01*
X95474761Y-116314285D02*
X95522380Y-116219047D01*
X95522380Y-116219047D02*
X95522380Y-115980952D01*
X95522380Y-115980952D02*
X95474761Y-115838095D01*
X92950000Y-117409523D02*
X92902380Y-117266666D01*
X92902380Y-117266666D02*
X92902380Y-117028571D01*
X92902380Y-117028571D02*
X92950000Y-116933333D01*
X92950000Y-116933333D02*
X92997619Y-116885714D01*
X92997619Y-116885714D02*
X93092857Y-116838095D01*
X93092857Y-116838095D02*
X93188095Y-116838095D01*
X93188095Y-116838095D02*
X93283333Y-116885714D01*
X93283333Y-116885714D02*
X93330952Y-116933333D01*
X93330952Y-116933333D02*
X93378571Y-117028571D01*
X93378571Y-117028571D02*
X93426190Y-117219047D01*
X93426190Y-117219047D02*
X93473809Y-117314285D01*
X93473809Y-117314285D02*
X93521428Y-117361904D01*
X93521428Y-117361904D02*
X93616666Y-117409523D01*
X93616666Y-117409523D02*
X93711904Y-117409523D01*
X93711904Y-117409523D02*
X93807142Y-117361904D01*
X93807142Y-117361904D02*
X93854761Y-117314285D01*
X93854761Y-117314285D02*
X93902380Y-117219047D01*
X93902380Y-117219047D02*
X93902380Y-116980952D01*
X93902380Y-116980952D02*
X93854761Y-116838095D01*
X92997619Y-115838095D02*
X92950000Y-115885714D01*
X92950000Y-115885714D02*
X92902380Y-116028571D01*
X92902380Y-116028571D02*
X92902380Y-116123809D01*
X92902380Y-116123809D02*
X92950000Y-116266666D01*
X92950000Y-116266666D02*
X93045238Y-116361904D01*
X93045238Y-116361904D02*
X93140476Y-116409523D01*
X93140476Y-116409523D02*
X93330952Y-116457142D01*
X93330952Y-116457142D02*
X93473809Y-116457142D01*
X93473809Y-116457142D02*
X93664285Y-116409523D01*
X93664285Y-116409523D02*
X93759523Y-116361904D01*
X93759523Y-116361904D02*
X93854761Y-116266666D01*
X93854761Y-116266666D02*
X93902380Y-116123809D01*
X93902380Y-116123809D02*
X93902380Y-116028571D01*
X93902380Y-116028571D02*
X93854761Y-115885714D01*
X93854761Y-115885714D02*
X93807142Y-115838095D01*
X92902380Y-115409523D02*
X93902380Y-115409523D01*
X92902380Y-114838095D02*
X93473809Y-115266666D01*
X93902380Y-114838095D02*
X93330952Y-115409523D01*
X91282380Y-117361904D02*
X92282380Y-117361904D01*
X92282380Y-117361904D02*
X91568095Y-117028571D01*
X91568095Y-117028571D02*
X92282380Y-116695238D01*
X92282380Y-116695238D02*
X91282380Y-116695238D01*
X92282380Y-116028571D02*
X92282380Y-115838095D01*
X92282380Y-115838095D02*
X92234761Y-115742857D01*
X92234761Y-115742857D02*
X92139523Y-115647619D01*
X92139523Y-115647619D02*
X91949047Y-115600000D01*
X91949047Y-115600000D02*
X91615714Y-115600000D01*
X91615714Y-115600000D02*
X91425238Y-115647619D01*
X91425238Y-115647619D02*
X91330000Y-115742857D01*
X91330000Y-115742857D02*
X91282380Y-115838095D01*
X91282380Y-115838095D02*
X91282380Y-116028571D01*
X91282380Y-116028571D02*
X91330000Y-116123809D01*
X91330000Y-116123809D02*
X91425238Y-116219047D01*
X91425238Y-116219047D02*
X91615714Y-116266666D01*
X91615714Y-116266666D02*
X91949047Y-116266666D01*
X91949047Y-116266666D02*
X92139523Y-116219047D01*
X92139523Y-116219047D02*
X92234761Y-116123809D01*
X92234761Y-116123809D02*
X92282380Y-116028571D01*
X91330000Y-115219047D02*
X91282380Y-115076190D01*
X91282380Y-115076190D02*
X91282380Y-114838095D01*
X91282380Y-114838095D02*
X91330000Y-114742857D01*
X91330000Y-114742857D02*
X91377619Y-114695238D01*
X91377619Y-114695238D02*
X91472857Y-114647619D01*
X91472857Y-114647619D02*
X91568095Y-114647619D01*
X91568095Y-114647619D02*
X91663333Y-114695238D01*
X91663333Y-114695238D02*
X91710952Y-114742857D01*
X91710952Y-114742857D02*
X91758571Y-114838095D01*
X91758571Y-114838095D02*
X91806190Y-115028571D01*
X91806190Y-115028571D02*
X91853809Y-115123809D01*
X91853809Y-115123809D02*
X91901428Y-115171428D01*
X91901428Y-115171428D02*
X91996666Y-115219047D01*
X91996666Y-115219047D02*
X92091904Y-115219047D01*
X92091904Y-115219047D02*
X92187142Y-115171428D01*
X92187142Y-115171428D02*
X92234761Y-115123809D01*
X92234761Y-115123809D02*
X92282380Y-115028571D01*
X92282380Y-115028571D02*
X92282380Y-114790476D01*
X92282380Y-114790476D02*
X92234761Y-114647619D01*
X91282380Y-114219047D02*
X92282380Y-114219047D01*
X89662380Y-117361904D02*
X90662380Y-117361904D01*
X90662380Y-117361904D02*
X89948095Y-117028571D01*
X89948095Y-117028571D02*
X90662380Y-116695238D01*
X90662380Y-116695238D02*
X89662380Y-116695238D01*
X89662380Y-116219047D02*
X90662380Y-116219047D01*
X89710000Y-115790476D02*
X89662380Y-115647619D01*
X89662380Y-115647619D02*
X89662380Y-115409524D01*
X89662380Y-115409524D02*
X89710000Y-115314286D01*
X89710000Y-115314286D02*
X89757619Y-115266667D01*
X89757619Y-115266667D02*
X89852857Y-115219048D01*
X89852857Y-115219048D02*
X89948095Y-115219048D01*
X89948095Y-115219048D02*
X90043333Y-115266667D01*
X90043333Y-115266667D02*
X90090952Y-115314286D01*
X90090952Y-115314286D02*
X90138571Y-115409524D01*
X90138571Y-115409524D02*
X90186190Y-115600000D01*
X90186190Y-115600000D02*
X90233809Y-115695238D01*
X90233809Y-115695238D02*
X90281428Y-115742857D01*
X90281428Y-115742857D02*
X90376666Y-115790476D01*
X90376666Y-115790476D02*
X90471904Y-115790476D01*
X90471904Y-115790476D02*
X90567142Y-115742857D01*
X90567142Y-115742857D02*
X90614761Y-115695238D01*
X90614761Y-115695238D02*
X90662380Y-115600000D01*
X90662380Y-115600000D02*
X90662380Y-115361905D01*
X90662380Y-115361905D02*
X90614761Y-115219048D01*
X90662380Y-114600000D02*
X90662380Y-114409524D01*
X90662380Y-114409524D02*
X90614761Y-114314286D01*
X90614761Y-114314286D02*
X90519523Y-114219048D01*
X90519523Y-114219048D02*
X90329047Y-114171429D01*
X90329047Y-114171429D02*
X89995714Y-114171429D01*
X89995714Y-114171429D02*
X89805238Y-114219048D01*
X89805238Y-114219048D02*
X89710000Y-114314286D01*
X89710000Y-114314286D02*
X89662380Y-114409524D01*
X89662380Y-114409524D02*
X89662380Y-114600000D01*
X89662380Y-114600000D02*
X89710000Y-114695238D01*
X89710000Y-114695238D02*
X89805238Y-114790476D01*
X89805238Y-114790476D02*
X89995714Y-114838095D01*
X89995714Y-114838095D02*
X90329047Y-114838095D01*
X90329047Y-114838095D02*
X90519523Y-114790476D01*
X90519523Y-114790476D02*
X90614761Y-114695238D01*
X90614761Y-114695238D02*
X90662380Y-114600000D01*
X88042380Y-117361904D02*
X89042380Y-117361904D01*
X88042380Y-116885714D02*
X89042380Y-116885714D01*
X89042380Y-116885714D02*
X88042380Y-116314286D01*
X88042380Y-116314286D02*
X89042380Y-116314286D01*
X89042380Y-115980952D02*
X89042380Y-115409524D01*
X88042380Y-115695238D02*
X89042380Y-115695238D01*
X87374761Y-116838095D02*
X87422380Y-116933333D01*
X87422380Y-116933333D02*
X87422380Y-117076190D01*
X87422380Y-117076190D02*
X87374761Y-117219047D01*
X87374761Y-117219047D02*
X87279523Y-117314285D01*
X87279523Y-117314285D02*
X87184285Y-117361904D01*
X87184285Y-117361904D02*
X86993809Y-117409523D01*
X86993809Y-117409523D02*
X86850952Y-117409523D01*
X86850952Y-117409523D02*
X86660476Y-117361904D01*
X86660476Y-117361904D02*
X86565238Y-117314285D01*
X86565238Y-117314285D02*
X86470000Y-117219047D01*
X86470000Y-117219047D02*
X86422380Y-117076190D01*
X86422380Y-117076190D02*
X86422380Y-116980952D01*
X86422380Y-116980952D02*
X86470000Y-116838095D01*
X86470000Y-116838095D02*
X86517619Y-116790476D01*
X86517619Y-116790476D02*
X86850952Y-116790476D01*
X86850952Y-116790476D02*
X86850952Y-116980952D01*
X86422380Y-116361904D02*
X87422380Y-116361904D01*
X87422380Y-116361904D02*
X86422380Y-115790476D01*
X86422380Y-115790476D02*
X87422380Y-115790476D01*
X86422380Y-115314285D02*
X87422380Y-115314285D01*
X87422380Y-115314285D02*
X87422380Y-115076190D01*
X87422380Y-115076190D02*
X87374761Y-114933333D01*
X87374761Y-114933333D02*
X87279523Y-114838095D01*
X87279523Y-114838095D02*
X87184285Y-114790476D01*
X87184285Y-114790476D02*
X86993809Y-114742857D01*
X86993809Y-114742857D02*
X86850952Y-114742857D01*
X86850952Y-114742857D02*
X86660476Y-114790476D01*
X86660476Y-114790476D02*
X86565238Y-114838095D01*
X86565238Y-114838095D02*
X86470000Y-114933333D01*
X86470000Y-114933333D02*
X86422380Y-115076190D01*
X86422380Y-115076190D02*
X86422380Y-115314285D01*
X82952380Y-117357142D02*
X82952380Y-116738095D01*
X82952380Y-116738095D02*
X82571428Y-117071428D01*
X82571428Y-117071428D02*
X82571428Y-116928571D01*
X82571428Y-116928571D02*
X82523809Y-116833333D01*
X82523809Y-116833333D02*
X82476190Y-116785714D01*
X82476190Y-116785714D02*
X82380952Y-116738095D01*
X82380952Y-116738095D02*
X82142857Y-116738095D01*
X82142857Y-116738095D02*
X82047619Y-116785714D01*
X82047619Y-116785714D02*
X82000000Y-116833333D01*
X82000000Y-116833333D02*
X81952380Y-116928571D01*
X81952380Y-116928571D02*
X81952380Y-117214285D01*
X81952380Y-117214285D02*
X82000000Y-117309523D01*
X82000000Y-117309523D02*
X82047619Y-117357142D01*
X82952380Y-116452380D02*
X81952380Y-116119047D01*
X81952380Y-116119047D02*
X82952380Y-115785714D01*
X82952380Y-115547618D02*
X82952380Y-114928571D01*
X82952380Y-114928571D02*
X82571428Y-115261904D01*
X82571428Y-115261904D02*
X82571428Y-115119047D01*
X82571428Y-115119047D02*
X82523809Y-115023809D01*
X82523809Y-115023809D02*
X82476190Y-114976190D01*
X82476190Y-114976190D02*
X82380952Y-114928571D01*
X82380952Y-114928571D02*
X82142857Y-114928571D01*
X82142857Y-114928571D02*
X82047619Y-114976190D01*
X82047619Y-114976190D02*
X82000000Y-115023809D01*
X82000000Y-115023809D02*
X81952380Y-115119047D01*
X81952380Y-115119047D02*
X81952380Y-115404761D01*
X81952380Y-115404761D02*
X82000000Y-115499999D01*
X82000000Y-115499999D02*
X82047619Y-115547618D01*
X80332380Y-117261904D02*
X81332380Y-117261904D01*
X80332380Y-116785714D02*
X81332380Y-116785714D01*
X81332380Y-116785714D02*
X80332380Y-116214286D01*
X80332380Y-116214286D02*
X81332380Y-116214286D01*
X81332380Y-115880952D02*
X81332380Y-115309524D01*
X80332380Y-115595238D02*
X81332380Y-115595238D01*
X78712380Y-116690476D02*
X79188571Y-117023809D01*
X78712380Y-117261904D02*
X79712380Y-117261904D01*
X79712380Y-117261904D02*
X79712380Y-116880952D01*
X79712380Y-116880952D02*
X79664761Y-116785714D01*
X79664761Y-116785714D02*
X79617142Y-116738095D01*
X79617142Y-116738095D02*
X79521904Y-116690476D01*
X79521904Y-116690476D02*
X79379047Y-116690476D01*
X79379047Y-116690476D02*
X79283809Y-116738095D01*
X79283809Y-116738095D02*
X79236190Y-116785714D01*
X79236190Y-116785714D02*
X79188571Y-116880952D01*
X79188571Y-116880952D02*
X79188571Y-117261904D01*
X79712380Y-116357142D02*
X78712380Y-115690476D01*
X79712380Y-115690476D02*
X78712380Y-116357142D01*
X78092380Y-117404761D02*
X78092380Y-116833333D01*
X77092380Y-117119047D02*
X78092380Y-117119047D01*
X78092380Y-116595237D02*
X77092380Y-115928571D01*
X78092380Y-115928571D02*
X77092380Y-116595237D01*
X76424761Y-116738095D02*
X76472380Y-116833333D01*
X76472380Y-116833333D02*
X76472380Y-116976190D01*
X76472380Y-116976190D02*
X76424761Y-117119047D01*
X76424761Y-117119047D02*
X76329523Y-117214285D01*
X76329523Y-117214285D02*
X76234285Y-117261904D01*
X76234285Y-117261904D02*
X76043809Y-117309523D01*
X76043809Y-117309523D02*
X75900952Y-117309523D01*
X75900952Y-117309523D02*
X75710476Y-117261904D01*
X75710476Y-117261904D02*
X75615238Y-117214285D01*
X75615238Y-117214285D02*
X75520000Y-117119047D01*
X75520000Y-117119047D02*
X75472380Y-116976190D01*
X75472380Y-116976190D02*
X75472380Y-116880952D01*
X75472380Y-116880952D02*
X75520000Y-116738095D01*
X75520000Y-116738095D02*
X75567619Y-116690476D01*
X75567619Y-116690476D02*
X75900952Y-116690476D01*
X75900952Y-116690476D02*
X75900952Y-116880952D01*
X75472380Y-116261904D02*
X76472380Y-116261904D01*
X76472380Y-116261904D02*
X75472380Y-115690476D01*
X75472380Y-115690476D02*
X76472380Y-115690476D01*
X75472380Y-115214285D02*
X76472380Y-115214285D01*
X76472380Y-115214285D02*
X76472380Y-114976190D01*
X76472380Y-114976190D02*
X76424761Y-114833333D01*
X76424761Y-114833333D02*
X76329523Y-114738095D01*
X76329523Y-114738095D02*
X76234285Y-114690476D01*
X76234285Y-114690476D02*
X76043809Y-114642857D01*
X76043809Y-114642857D02*
X75900952Y-114642857D01*
X75900952Y-114642857D02*
X75710476Y-114690476D01*
X75710476Y-114690476D02*
X75615238Y-114738095D01*
X75615238Y-114738095D02*
X75520000Y-114833333D01*
X75520000Y-114833333D02*
X75472380Y-114976190D01*
X75472380Y-114976190D02*
X75472380Y-115214285D01*
X52537380Y-109869048D02*
X51823095Y-109869048D01*
X51823095Y-109869048D02*
X51680238Y-109916667D01*
X51680238Y-109916667D02*
X51585000Y-110011905D01*
X51585000Y-110011905D02*
X51537380Y-110154762D01*
X51537380Y-110154762D02*
X51537380Y-110250000D01*
X51537380Y-108916667D02*
X51537380Y-109392857D01*
X51537380Y-109392857D02*
X52537380Y-109392857D01*
X51632619Y-108011905D02*
X51585000Y-108059524D01*
X51585000Y-108059524D02*
X51537380Y-108202381D01*
X51537380Y-108202381D02*
X51537380Y-108297619D01*
X51537380Y-108297619D02*
X51585000Y-108440476D01*
X51585000Y-108440476D02*
X51680238Y-108535714D01*
X51680238Y-108535714D02*
X51775476Y-108583333D01*
X51775476Y-108583333D02*
X51965952Y-108630952D01*
X51965952Y-108630952D02*
X52108809Y-108630952D01*
X52108809Y-108630952D02*
X52299285Y-108583333D01*
X52299285Y-108583333D02*
X52394523Y-108535714D01*
X52394523Y-108535714D02*
X52489761Y-108440476D01*
X52489761Y-108440476D02*
X52537380Y-108297619D01*
X52537380Y-108297619D02*
X52537380Y-108202381D01*
X52537380Y-108202381D02*
X52489761Y-108059524D01*
X52489761Y-108059524D02*
X52442142Y-108011905D01*
X52537380Y-107297619D02*
X51823095Y-107297619D01*
X51823095Y-107297619D02*
X51680238Y-107345238D01*
X51680238Y-107345238D02*
X51585000Y-107440476D01*
X51585000Y-107440476D02*
X51537380Y-107583333D01*
X51537380Y-107583333D02*
X51537380Y-107678571D01*
X51537380Y-106345238D02*
X51537380Y-106821428D01*
X51537380Y-106821428D02*
X52537380Y-106821428D01*
X51632619Y-105440476D02*
X51585000Y-105488095D01*
X51585000Y-105488095D02*
X51537380Y-105630952D01*
X51537380Y-105630952D02*
X51537380Y-105726190D01*
X51537380Y-105726190D02*
X51585000Y-105869047D01*
X51585000Y-105869047D02*
X51680238Y-105964285D01*
X51680238Y-105964285D02*
X51775476Y-106011904D01*
X51775476Y-106011904D02*
X51965952Y-106059523D01*
X51965952Y-106059523D02*
X52108809Y-106059523D01*
X52108809Y-106059523D02*
X52299285Y-106011904D01*
X52299285Y-106011904D02*
X52394523Y-105964285D01*
X52394523Y-105964285D02*
X52489761Y-105869047D01*
X52489761Y-105869047D02*
X52537380Y-105726190D01*
X52537380Y-105726190D02*
X52537380Y-105630952D01*
X52537380Y-105630952D02*
X52489761Y-105488095D01*
X52489761Y-105488095D02*
X52442142Y-105440476D01*
X52537380Y-104726190D02*
X51823095Y-104726190D01*
X51823095Y-104726190D02*
X51680238Y-104773809D01*
X51680238Y-104773809D02*
X51585000Y-104869047D01*
X51585000Y-104869047D02*
X51537380Y-105011904D01*
X51537380Y-105011904D02*
X51537380Y-105107142D01*
X51537380Y-103773809D02*
X51537380Y-104249999D01*
X51537380Y-104249999D02*
X52537380Y-104249999D01*
X51632619Y-102869047D02*
X51585000Y-102916666D01*
X51585000Y-102916666D02*
X51537380Y-103059523D01*
X51537380Y-103059523D02*
X51537380Y-103154761D01*
X51537380Y-103154761D02*
X51585000Y-103297618D01*
X51585000Y-103297618D02*
X51680238Y-103392856D01*
X51680238Y-103392856D02*
X51775476Y-103440475D01*
X51775476Y-103440475D02*
X51965952Y-103488094D01*
X51965952Y-103488094D02*
X52108809Y-103488094D01*
X52108809Y-103488094D02*
X52299285Y-103440475D01*
X52299285Y-103440475D02*
X52394523Y-103392856D01*
X52394523Y-103392856D02*
X52489761Y-103297618D01*
X52489761Y-103297618D02*
X52537380Y-103154761D01*
X52537380Y-103154761D02*
X52537380Y-103059523D01*
X52537380Y-103059523D02*
X52489761Y-102916666D01*
X52489761Y-102916666D02*
X52442142Y-102869047D01*
X52537380Y-102154761D02*
X51823095Y-102154761D01*
X51823095Y-102154761D02*
X51680238Y-102202380D01*
X51680238Y-102202380D02*
X51585000Y-102297618D01*
X51585000Y-102297618D02*
X51537380Y-102440475D01*
X51537380Y-102440475D02*
X51537380Y-102535713D01*
X51537380Y-101202380D02*
X51537380Y-101678570D01*
X51537380Y-101678570D02*
X52537380Y-101678570D01*
X51632619Y-100297618D02*
X51585000Y-100345237D01*
X51585000Y-100345237D02*
X51537380Y-100488094D01*
X51537380Y-100488094D02*
X51537380Y-100583332D01*
X51537380Y-100583332D02*
X51585000Y-100726189D01*
X51585000Y-100726189D02*
X51680238Y-100821427D01*
X51680238Y-100821427D02*
X51775476Y-100869046D01*
X51775476Y-100869046D02*
X51965952Y-100916665D01*
X51965952Y-100916665D02*
X52108809Y-100916665D01*
X52108809Y-100916665D02*
X52299285Y-100869046D01*
X52299285Y-100869046D02*
X52394523Y-100821427D01*
X52394523Y-100821427D02*
X52489761Y-100726189D01*
X52489761Y-100726189D02*
X52537380Y-100583332D01*
X52537380Y-100583332D02*
X52537380Y-100488094D01*
X52537380Y-100488094D02*
X52489761Y-100345237D01*
X52489761Y-100345237D02*
X52442142Y-100297618D01*
X88959761Y-61465714D02*
X89007380Y-61560952D01*
X89007380Y-61560952D02*
X89007380Y-61703809D01*
X89007380Y-61703809D02*
X88959761Y-61846666D01*
X88959761Y-61846666D02*
X88864523Y-61941904D01*
X88864523Y-61941904D02*
X88769285Y-61989523D01*
X88769285Y-61989523D02*
X88578809Y-62037142D01*
X88578809Y-62037142D02*
X88435952Y-62037142D01*
X88435952Y-62037142D02*
X88245476Y-61989523D01*
X88245476Y-61989523D02*
X88150238Y-61941904D01*
X88150238Y-61941904D02*
X88055000Y-61846666D01*
X88055000Y-61846666D02*
X88007380Y-61703809D01*
X88007380Y-61703809D02*
X88007380Y-61608571D01*
X88007380Y-61608571D02*
X88055000Y-61465714D01*
X88055000Y-61465714D02*
X88102619Y-61418095D01*
X88102619Y-61418095D02*
X88435952Y-61418095D01*
X88435952Y-61418095D02*
X88435952Y-61608571D01*
X88007380Y-60989523D02*
X89007380Y-60989523D01*
X89007380Y-60989523D02*
X88007380Y-60418095D01*
X88007380Y-60418095D02*
X89007380Y-60418095D01*
X88007380Y-59941904D02*
X89007380Y-59941904D01*
X89007380Y-59941904D02*
X89007380Y-59703809D01*
X89007380Y-59703809D02*
X88959761Y-59560952D01*
X88959761Y-59560952D02*
X88864523Y-59465714D01*
X88864523Y-59465714D02*
X88769285Y-59418095D01*
X88769285Y-59418095D02*
X88578809Y-59370476D01*
X88578809Y-59370476D02*
X88435952Y-59370476D01*
X88435952Y-59370476D02*
X88245476Y-59418095D01*
X88245476Y-59418095D02*
X88150238Y-59465714D01*
X88150238Y-59465714D02*
X88055000Y-59560952D01*
X88055000Y-59560952D02*
X88007380Y-59703809D01*
X88007380Y-59703809D02*
X88007380Y-59941904D01*
X86387380Y-61227618D02*
X87387380Y-61227618D01*
X86387380Y-60751428D02*
X87387380Y-60751428D01*
X87387380Y-60751428D02*
X86387380Y-60180000D01*
X86387380Y-60180000D02*
X87387380Y-60180000D01*
X87387380Y-59846666D02*
X87387380Y-59275238D01*
X86387380Y-59560952D02*
X87387380Y-59560952D01*
X84815000Y-61799047D02*
X84767380Y-61656190D01*
X84767380Y-61656190D02*
X84767380Y-61418095D01*
X84767380Y-61418095D02*
X84815000Y-61322857D01*
X84815000Y-61322857D02*
X84862619Y-61275238D01*
X84862619Y-61275238D02*
X84957857Y-61227619D01*
X84957857Y-61227619D02*
X85053095Y-61227619D01*
X85053095Y-61227619D02*
X85148333Y-61275238D01*
X85148333Y-61275238D02*
X85195952Y-61322857D01*
X85195952Y-61322857D02*
X85243571Y-61418095D01*
X85243571Y-61418095D02*
X85291190Y-61608571D01*
X85291190Y-61608571D02*
X85338809Y-61703809D01*
X85338809Y-61703809D02*
X85386428Y-61751428D01*
X85386428Y-61751428D02*
X85481666Y-61799047D01*
X85481666Y-61799047D02*
X85576904Y-61799047D01*
X85576904Y-61799047D02*
X85672142Y-61751428D01*
X85672142Y-61751428D02*
X85719761Y-61703809D01*
X85719761Y-61703809D02*
X85767380Y-61608571D01*
X85767380Y-61608571D02*
X85767380Y-61370476D01*
X85767380Y-61370476D02*
X85719761Y-61227619D01*
X84767380Y-60799047D02*
X85767380Y-60799047D01*
X85767380Y-60799047D02*
X85767380Y-60560952D01*
X85767380Y-60560952D02*
X85719761Y-60418095D01*
X85719761Y-60418095D02*
X85624523Y-60322857D01*
X85624523Y-60322857D02*
X85529285Y-60275238D01*
X85529285Y-60275238D02*
X85338809Y-60227619D01*
X85338809Y-60227619D02*
X85195952Y-60227619D01*
X85195952Y-60227619D02*
X85005476Y-60275238D01*
X85005476Y-60275238D02*
X84910238Y-60322857D01*
X84910238Y-60322857D02*
X84815000Y-60418095D01*
X84815000Y-60418095D02*
X84767380Y-60560952D01*
X84767380Y-60560952D02*
X84767380Y-60799047D01*
X85053095Y-59846666D02*
X85053095Y-59370476D01*
X84767380Y-59941904D02*
X85767380Y-59608571D01*
X85767380Y-59608571D02*
X84767380Y-59275238D01*
X83195000Y-61751428D02*
X83147380Y-61608571D01*
X83147380Y-61608571D02*
X83147380Y-61370476D01*
X83147380Y-61370476D02*
X83195000Y-61275238D01*
X83195000Y-61275238D02*
X83242619Y-61227619D01*
X83242619Y-61227619D02*
X83337857Y-61180000D01*
X83337857Y-61180000D02*
X83433095Y-61180000D01*
X83433095Y-61180000D02*
X83528333Y-61227619D01*
X83528333Y-61227619D02*
X83575952Y-61275238D01*
X83575952Y-61275238D02*
X83623571Y-61370476D01*
X83623571Y-61370476D02*
X83671190Y-61560952D01*
X83671190Y-61560952D02*
X83718809Y-61656190D01*
X83718809Y-61656190D02*
X83766428Y-61703809D01*
X83766428Y-61703809D02*
X83861666Y-61751428D01*
X83861666Y-61751428D02*
X83956904Y-61751428D01*
X83956904Y-61751428D02*
X84052142Y-61703809D01*
X84052142Y-61703809D02*
X84099761Y-61656190D01*
X84099761Y-61656190D02*
X84147380Y-61560952D01*
X84147380Y-61560952D02*
X84147380Y-61322857D01*
X84147380Y-61322857D02*
X84099761Y-61180000D01*
X83242619Y-60180000D02*
X83195000Y-60227619D01*
X83195000Y-60227619D02*
X83147380Y-60370476D01*
X83147380Y-60370476D02*
X83147380Y-60465714D01*
X83147380Y-60465714D02*
X83195000Y-60608571D01*
X83195000Y-60608571D02*
X83290238Y-60703809D01*
X83290238Y-60703809D02*
X83385476Y-60751428D01*
X83385476Y-60751428D02*
X83575952Y-60799047D01*
X83575952Y-60799047D02*
X83718809Y-60799047D01*
X83718809Y-60799047D02*
X83909285Y-60751428D01*
X83909285Y-60751428D02*
X84004523Y-60703809D01*
X84004523Y-60703809D02*
X84099761Y-60608571D01*
X84099761Y-60608571D02*
X84147380Y-60465714D01*
X84147380Y-60465714D02*
X84147380Y-60370476D01*
X84147380Y-60370476D02*
X84099761Y-60227619D01*
X84099761Y-60227619D02*
X84052142Y-60180000D01*
X83147380Y-59275238D02*
X83147380Y-59751428D01*
X83147380Y-59751428D02*
X84147380Y-59751428D01*
X82527380Y-61799047D02*
X82527380Y-61180000D01*
X82527380Y-61180000D02*
X82146428Y-61513333D01*
X82146428Y-61513333D02*
X82146428Y-61370476D01*
X82146428Y-61370476D02*
X82098809Y-61275238D01*
X82098809Y-61275238D02*
X82051190Y-61227619D01*
X82051190Y-61227619D02*
X81955952Y-61180000D01*
X81955952Y-61180000D02*
X81717857Y-61180000D01*
X81717857Y-61180000D02*
X81622619Y-61227619D01*
X81622619Y-61227619D02*
X81575000Y-61275238D01*
X81575000Y-61275238D02*
X81527380Y-61370476D01*
X81527380Y-61370476D02*
X81527380Y-61656190D01*
X81527380Y-61656190D02*
X81575000Y-61751428D01*
X81575000Y-61751428D02*
X81622619Y-61799047D01*
X82527380Y-60894285D02*
X81527380Y-60560952D01*
X81527380Y-60560952D02*
X82527380Y-60227619D01*
X82527380Y-59989523D02*
X82527380Y-59370476D01*
X82527380Y-59370476D02*
X82146428Y-59703809D01*
X82146428Y-59703809D02*
X82146428Y-59560952D01*
X82146428Y-59560952D02*
X82098809Y-59465714D01*
X82098809Y-59465714D02*
X82051190Y-59418095D01*
X82051190Y-59418095D02*
X81955952Y-59370476D01*
X81955952Y-59370476D02*
X81717857Y-59370476D01*
X81717857Y-59370476D02*
X81622619Y-59418095D01*
X81622619Y-59418095D02*
X81575000Y-59465714D01*
X81575000Y-59465714D02*
X81527380Y-59560952D01*
X81527380Y-59560952D02*
X81527380Y-59846666D01*
X81527380Y-59846666D02*
X81575000Y-59941904D01*
X81575000Y-59941904D02*
X81622619Y-59989523D01*
X120642380Y-117157142D02*
X120642380Y-116538095D01*
X120642380Y-116538095D02*
X120261428Y-116871428D01*
X120261428Y-116871428D02*
X120261428Y-116728571D01*
X120261428Y-116728571D02*
X120213809Y-116633333D01*
X120213809Y-116633333D02*
X120166190Y-116585714D01*
X120166190Y-116585714D02*
X120070952Y-116538095D01*
X120070952Y-116538095D02*
X119832857Y-116538095D01*
X119832857Y-116538095D02*
X119737619Y-116585714D01*
X119737619Y-116585714D02*
X119690000Y-116633333D01*
X119690000Y-116633333D02*
X119642380Y-116728571D01*
X119642380Y-116728571D02*
X119642380Y-117014285D01*
X119642380Y-117014285D02*
X119690000Y-117109523D01*
X119690000Y-117109523D02*
X119737619Y-117157142D01*
X120642380Y-116252380D02*
X119642380Y-115919047D01*
X119642380Y-115919047D02*
X120642380Y-115585714D01*
X120642380Y-115347618D02*
X120642380Y-114728571D01*
X120642380Y-114728571D02*
X120261428Y-115061904D01*
X120261428Y-115061904D02*
X120261428Y-114919047D01*
X120261428Y-114919047D02*
X120213809Y-114823809D01*
X120213809Y-114823809D02*
X120166190Y-114776190D01*
X120166190Y-114776190D02*
X120070952Y-114728571D01*
X120070952Y-114728571D02*
X119832857Y-114728571D01*
X119832857Y-114728571D02*
X119737619Y-114776190D01*
X119737619Y-114776190D02*
X119690000Y-114823809D01*
X119690000Y-114823809D02*
X119642380Y-114919047D01*
X119642380Y-114919047D02*
X119642380Y-115204761D01*
X119642380Y-115204761D02*
X119690000Y-115299999D01*
X119690000Y-115299999D02*
X119737619Y-115347618D01*
X118117619Y-116490476D02*
X118070000Y-116538095D01*
X118070000Y-116538095D02*
X118022380Y-116680952D01*
X118022380Y-116680952D02*
X118022380Y-116776190D01*
X118022380Y-116776190D02*
X118070000Y-116919047D01*
X118070000Y-116919047D02*
X118165238Y-117014285D01*
X118165238Y-117014285D02*
X118260476Y-117061904D01*
X118260476Y-117061904D02*
X118450952Y-117109523D01*
X118450952Y-117109523D02*
X118593809Y-117109523D01*
X118593809Y-117109523D02*
X118784285Y-117061904D01*
X118784285Y-117061904D02*
X118879523Y-117014285D01*
X118879523Y-117014285D02*
X118974761Y-116919047D01*
X118974761Y-116919047D02*
X119022380Y-116776190D01*
X119022380Y-116776190D02*
X119022380Y-116680952D01*
X119022380Y-116680952D02*
X118974761Y-116538095D01*
X118974761Y-116538095D02*
X118927142Y-116490476D01*
X118070000Y-116109523D02*
X118022380Y-115966666D01*
X118022380Y-115966666D02*
X118022380Y-115728571D01*
X118022380Y-115728571D02*
X118070000Y-115633333D01*
X118070000Y-115633333D02*
X118117619Y-115585714D01*
X118117619Y-115585714D02*
X118212857Y-115538095D01*
X118212857Y-115538095D02*
X118308095Y-115538095D01*
X118308095Y-115538095D02*
X118403333Y-115585714D01*
X118403333Y-115585714D02*
X118450952Y-115633333D01*
X118450952Y-115633333D02*
X118498571Y-115728571D01*
X118498571Y-115728571D02*
X118546190Y-115919047D01*
X118546190Y-115919047D02*
X118593809Y-116014285D01*
X118593809Y-116014285D02*
X118641428Y-116061904D01*
X118641428Y-116061904D02*
X118736666Y-116109523D01*
X118736666Y-116109523D02*
X118831904Y-116109523D01*
X118831904Y-116109523D02*
X118927142Y-116061904D01*
X118927142Y-116061904D02*
X118974761Y-116014285D01*
X118974761Y-116014285D02*
X119022380Y-115919047D01*
X119022380Y-115919047D02*
X119022380Y-115680952D01*
X119022380Y-115680952D02*
X118974761Y-115538095D01*
X118022380Y-115109523D02*
X119022380Y-115109523D01*
X119022380Y-115109523D02*
X118022380Y-114538095D01*
X118022380Y-114538095D02*
X119022380Y-114538095D01*
X117354761Y-116538095D02*
X117402380Y-116633333D01*
X117402380Y-116633333D02*
X117402380Y-116776190D01*
X117402380Y-116776190D02*
X117354761Y-116919047D01*
X117354761Y-116919047D02*
X117259523Y-117014285D01*
X117259523Y-117014285D02*
X117164285Y-117061904D01*
X117164285Y-117061904D02*
X116973809Y-117109523D01*
X116973809Y-117109523D02*
X116830952Y-117109523D01*
X116830952Y-117109523D02*
X116640476Y-117061904D01*
X116640476Y-117061904D02*
X116545238Y-117014285D01*
X116545238Y-117014285D02*
X116450000Y-116919047D01*
X116450000Y-116919047D02*
X116402380Y-116776190D01*
X116402380Y-116776190D02*
X116402380Y-116680952D01*
X116402380Y-116680952D02*
X116450000Y-116538095D01*
X116450000Y-116538095D02*
X116497619Y-116490476D01*
X116497619Y-116490476D02*
X116830952Y-116490476D01*
X116830952Y-116490476D02*
X116830952Y-116680952D01*
X116402380Y-116061904D02*
X117402380Y-116061904D01*
X117402380Y-116061904D02*
X116402380Y-115490476D01*
X116402380Y-115490476D02*
X117402380Y-115490476D01*
X116402380Y-115014285D02*
X117402380Y-115014285D01*
X117402380Y-115014285D02*
X117402380Y-114776190D01*
X117402380Y-114776190D02*
X117354761Y-114633333D01*
X117354761Y-114633333D02*
X117259523Y-114538095D01*
X117259523Y-114538095D02*
X117164285Y-114490476D01*
X117164285Y-114490476D02*
X116973809Y-114442857D01*
X116973809Y-114442857D02*
X116830952Y-114442857D01*
X116830952Y-114442857D02*
X116640476Y-114490476D01*
X116640476Y-114490476D02*
X116545238Y-114538095D01*
X116545238Y-114538095D02*
X116450000Y-114633333D01*
X116450000Y-114633333D02*
X116402380Y-114776190D01*
X116402380Y-114776190D02*
X116402380Y-115014285D01*
X114877619Y-116490476D02*
X114830000Y-116538095D01*
X114830000Y-116538095D02*
X114782380Y-116680952D01*
X114782380Y-116680952D02*
X114782380Y-116776190D01*
X114782380Y-116776190D02*
X114830000Y-116919047D01*
X114830000Y-116919047D02*
X114925238Y-117014285D01*
X114925238Y-117014285D02*
X115020476Y-117061904D01*
X115020476Y-117061904D02*
X115210952Y-117109523D01*
X115210952Y-117109523D02*
X115353809Y-117109523D01*
X115353809Y-117109523D02*
X115544285Y-117061904D01*
X115544285Y-117061904D02*
X115639523Y-117014285D01*
X115639523Y-117014285D02*
X115734761Y-116919047D01*
X115734761Y-116919047D02*
X115782380Y-116776190D01*
X115782380Y-116776190D02*
X115782380Y-116680952D01*
X115782380Y-116680952D02*
X115734761Y-116538095D01*
X115734761Y-116538095D02*
X115687142Y-116490476D01*
X114830000Y-116109523D02*
X114782380Y-115966666D01*
X114782380Y-115966666D02*
X114782380Y-115728571D01*
X114782380Y-115728571D02*
X114830000Y-115633333D01*
X114830000Y-115633333D02*
X114877619Y-115585714D01*
X114877619Y-115585714D02*
X114972857Y-115538095D01*
X114972857Y-115538095D02*
X115068095Y-115538095D01*
X115068095Y-115538095D02*
X115163333Y-115585714D01*
X115163333Y-115585714D02*
X115210952Y-115633333D01*
X115210952Y-115633333D02*
X115258571Y-115728571D01*
X115258571Y-115728571D02*
X115306190Y-115919047D01*
X115306190Y-115919047D02*
X115353809Y-116014285D01*
X115353809Y-116014285D02*
X115401428Y-116061904D01*
X115401428Y-116061904D02*
X115496666Y-116109523D01*
X115496666Y-116109523D02*
X115591904Y-116109523D01*
X115591904Y-116109523D02*
X115687142Y-116061904D01*
X115687142Y-116061904D02*
X115734761Y-116014285D01*
X115734761Y-116014285D02*
X115782380Y-115919047D01*
X115782380Y-115919047D02*
X115782380Y-115680952D01*
X115782380Y-115680952D02*
X115734761Y-115538095D01*
X113162380Y-117061904D02*
X114162380Y-117061904D01*
X114162380Y-117061904D02*
X113448095Y-116728571D01*
X113448095Y-116728571D02*
X114162380Y-116395238D01*
X114162380Y-116395238D02*
X113162380Y-116395238D01*
X114162380Y-115728571D02*
X114162380Y-115538095D01*
X114162380Y-115538095D02*
X114114761Y-115442857D01*
X114114761Y-115442857D02*
X114019523Y-115347619D01*
X114019523Y-115347619D02*
X113829047Y-115300000D01*
X113829047Y-115300000D02*
X113495714Y-115300000D01*
X113495714Y-115300000D02*
X113305238Y-115347619D01*
X113305238Y-115347619D02*
X113210000Y-115442857D01*
X113210000Y-115442857D02*
X113162380Y-115538095D01*
X113162380Y-115538095D02*
X113162380Y-115728571D01*
X113162380Y-115728571D02*
X113210000Y-115823809D01*
X113210000Y-115823809D02*
X113305238Y-115919047D01*
X113305238Y-115919047D02*
X113495714Y-115966666D01*
X113495714Y-115966666D02*
X113829047Y-115966666D01*
X113829047Y-115966666D02*
X114019523Y-115919047D01*
X114019523Y-115919047D02*
X114114761Y-115823809D01*
X114114761Y-115823809D02*
X114162380Y-115728571D01*
X113210000Y-114919047D02*
X113162380Y-114776190D01*
X113162380Y-114776190D02*
X113162380Y-114538095D01*
X113162380Y-114538095D02*
X113210000Y-114442857D01*
X113210000Y-114442857D02*
X113257619Y-114395238D01*
X113257619Y-114395238D02*
X113352857Y-114347619D01*
X113352857Y-114347619D02*
X113448095Y-114347619D01*
X113448095Y-114347619D02*
X113543333Y-114395238D01*
X113543333Y-114395238D02*
X113590952Y-114442857D01*
X113590952Y-114442857D02*
X113638571Y-114538095D01*
X113638571Y-114538095D02*
X113686190Y-114728571D01*
X113686190Y-114728571D02*
X113733809Y-114823809D01*
X113733809Y-114823809D02*
X113781428Y-114871428D01*
X113781428Y-114871428D02*
X113876666Y-114919047D01*
X113876666Y-114919047D02*
X113971904Y-114919047D01*
X113971904Y-114919047D02*
X114067142Y-114871428D01*
X114067142Y-114871428D02*
X114114761Y-114823809D01*
X114114761Y-114823809D02*
X114162380Y-114728571D01*
X114162380Y-114728571D02*
X114162380Y-114490476D01*
X114162380Y-114490476D02*
X114114761Y-114347619D01*
X113162380Y-113919047D02*
X114162380Y-113919047D01*
X111590000Y-117109523D02*
X111542380Y-116966666D01*
X111542380Y-116966666D02*
X111542380Y-116728571D01*
X111542380Y-116728571D02*
X111590000Y-116633333D01*
X111590000Y-116633333D02*
X111637619Y-116585714D01*
X111637619Y-116585714D02*
X111732857Y-116538095D01*
X111732857Y-116538095D02*
X111828095Y-116538095D01*
X111828095Y-116538095D02*
X111923333Y-116585714D01*
X111923333Y-116585714D02*
X111970952Y-116633333D01*
X111970952Y-116633333D02*
X112018571Y-116728571D01*
X112018571Y-116728571D02*
X112066190Y-116919047D01*
X112066190Y-116919047D02*
X112113809Y-117014285D01*
X112113809Y-117014285D02*
X112161428Y-117061904D01*
X112161428Y-117061904D02*
X112256666Y-117109523D01*
X112256666Y-117109523D02*
X112351904Y-117109523D01*
X112351904Y-117109523D02*
X112447142Y-117061904D01*
X112447142Y-117061904D02*
X112494761Y-117014285D01*
X112494761Y-117014285D02*
X112542380Y-116919047D01*
X112542380Y-116919047D02*
X112542380Y-116680952D01*
X112542380Y-116680952D02*
X112494761Y-116538095D01*
X111637619Y-115538095D02*
X111590000Y-115585714D01*
X111590000Y-115585714D02*
X111542380Y-115728571D01*
X111542380Y-115728571D02*
X111542380Y-115823809D01*
X111542380Y-115823809D02*
X111590000Y-115966666D01*
X111590000Y-115966666D02*
X111685238Y-116061904D01*
X111685238Y-116061904D02*
X111780476Y-116109523D01*
X111780476Y-116109523D02*
X111970952Y-116157142D01*
X111970952Y-116157142D02*
X112113809Y-116157142D01*
X112113809Y-116157142D02*
X112304285Y-116109523D01*
X112304285Y-116109523D02*
X112399523Y-116061904D01*
X112399523Y-116061904D02*
X112494761Y-115966666D01*
X112494761Y-115966666D02*
X112542380Y-115823809D01*
X112542380Y-115823809D02*
X112542380Y-115728571D01*
X112542380Y-115728571D02*
X112494761Y-115585714D01*
X112494761Y-115585714D02*
X112447142Y-115538095D01*
X111542380Y-115109523D02*
X112542380Y-115109523D01*
X111542380Y-114538095D02*
X112113809Y-114966666D01*
X112542380Y-114538095D02*
X111970952Y-115109523D01*
X109922380Y-117061904D02*
X110922380Y-117061904D01*
X110922380Y-117061904D02*
X110208095Y-116728571D01*
X110208095Y-116728571D02*
X110922380Y-116395238D01*
X110922380Y-116395238D02*
X109922380Y-116395238D01*
X109922380Y-115919047D02*
X110922380Y-115919047D01*
X109970000Y-115490476D02*
X109922380Y-115347619D01*
X109922380Y-115347619D02*
X109922380Y-115109524D01*
X109922380Y-115109524D02*
X109970000Y-115014286D01*
X109970000Y-115014286D02*
X110017619Y-114966667D01*
X110017619Y-114966667D02*
X110112857Y-114919048D01*
X110112857Y-114919048D02*
X110208095Y-114919048D01*
X110208095Y-114919048D02*
X110303333Y-114966667D01*
X110303333Y-114966667D02*
X110350952Y-115014286D01*
X110350952Y-115014286D02*
X110398571Y-115109524D01*
X110398571Y-115109524D02*
X110446190Y-115300000D01*
X110446190Y-115300000D02*
X110493809Y-115395238D01*
X110493809Y-115395238D02*
X110541428Y-115442857D01*
X110541428Y-115442857D02*
X110636666Y-115490476D01*
X110636666Y-115490476D02*
X110731904Y-115490476D01*
X110731904Y-115490476D02*
X110827142Y-115442857D01*
X110827142Y-115442857D02*
X110874761Y-115395238D01*
X110874761Y-115395238D02*
X110922380Y-115300000D01*
X110922380Y-115300000D02*
X110922380Y-115061905D01*
X110922380Y-115061905D02*
X110874761Y-114919048D01*
X110922380Y-114300000D02*
X110922380Y-114109524D01*
X110922380Y-114109524D02*
X110874761Y-114014286D01*
X110874761Y-114014286D02*
X110779523Y-113919048D01*
X110779523Y-113919048D02*
X110589047Y-113871429D01*
X110589047Y-113871429D02*
X110255714Y-113871429D01*
X110255714Y-113871429D02*
X110065238Y-113919048D01*
X110065238Y-113919048D02*
X109970000Y-114014286D01*
X109970000Y-114014286D02*
X109922380Y-114109524D01*
X109922380Y-114109524D02*
X109922380Y-114300000D01*
X109922380Y-114300000D02*
X109970000Y-114395238D01*
X109970000Y-114395238D02*
X110065238Y-114490476D01*
X110065238Y-114490476D02*
X110255714Y-114538095D01*
X110255714Y-114538095D02*
X110589047Y-114538095D01*
X110589047Y-114538095D02*
X110779523Y-114490476D01*
X110779523Y-114490476D02*
X110874761Y-114395238D01*
X110874761Y-114395238D02*
X110922380Y-114300000D01*
X53385714Y-69405238D02*
X53480952Y-69357619D01*
X53480952Y-69357619D02*
X53623809Y-69357619D01*
X53623809Y-69357619D02*
X53766666Y-69405238D01*
X53766666Y-69405238D02*
X53861904Y-69500476D01*
X53861904Y-69500476D02*
X53909523Y-69595714D01*
X53909523Y-69595714D02*
X53957142Y-69786190D01*
X53957142Y-69786190D02*
X53957142Y-69929047D01*
X53957142Y-69929047D02*
X53909523Y-70119523D01*
X53909523Y-70119523D02*
X53861904Y-70214761D01*
X53861904Y-70214761D02*
X53766666Y-70310000D01*
X53766666Y-70310000D02*
X53623809Y-70357619D01*
X53623809Y-70357619D02*
X53528571Y-70357619D01*
X53528571Y-70357619D02*
X53385714Y-70310000D01*
X53385714Y-70310000D02*
X53338095Y-70262380D01*
X53338095Y-70262380D02*
X53338095Y-69929047D01*
X53338095Y-69929047D02*
X53528571Y-69929047D01*
X52909523Y-70357619D02*
X52909523Y-69357619D01*
X52909523Y-69357619D02*
X52338095Y-70357619D01*
X52338095Y-70357619D02*
X52338095Y-69357619D01*
X51861904Y-70357619D02*
X51861904Y-69357619D01*
X51861904Y-69357619D02*
X51623809Y-69357619D01*
X51623809Y-69357619D02*
X51480952Y-69405238D01*
X51480952Y-69405238D02*
X51385714Y-69500476D01*
X51385714Y-69500476D02*
X51338095Y-69595714D01*
X51338095Y-69595714D02*
X51290476Y-69786190D01*
X51290476Y-69786190D02*
X51290476Y-69929047D01*
X51290476Y-69929047D02*
X51338095Y-70119523D01*
X51338095Y-70119523D02*
X51385714Y-70214761D01*
X51385714Y-70214761D02*
X51480952Y-70310000D01*
X51480952Y-70310000D02*
X51623809Y-70357619D01*
X51623809Y-70357619D02*
X51861904Y-70357619D01*
X52195238Y-70977619D02*
X52671428Y-70977619D01*
X52671428Y-70977619D02*
X52719047Y-71453809D01*
X52719047Y-71453809D02*
X52671428Y-71406190D01*
X52671428Y-71406190D02*
X52576190Y-71358571D01*
X52576190Y-71358571D02*
X52338095Y-71358571D01*
X52338095Y-71358571D02*
X52242857Y-71406190D01*
X52242857Y-71406190D02*
X52195238Y-71453809D01*
X52195238Y-71453809D02*
X52147619Y-71549047D01*
X52147619Y-71549047D02*
X52147619Y-71787142D01*
X52147619Y-71787142D02*
X52195238Y-71882380D01*
X52195238Y-71882380D02*
X52242857Y-71930000D01*
X52242857Y-71930000D02*
X52338095Y-71977619D01*
X52338095Y-71977619D02*
X52576190Y-71977619D01*
X52576190Y-71977619D02*
X52671428Y-71930000D01*
X52671428Y-71930000D02*
X52719047Y-71882380D01*
X51861904Y-70977619D02*
X51528571Y-71977619D01*
X51528571Y-71977619D02*
X51195238Y-70977619D01*
X64400000Y-111462619D02*
X64590476Y-111462619D01*
X64590476Y-111462619D02*
X64685714Y-111510238D01*
X64685714Y-111510238D02*
X64733333Y-111557857D01*
X64733333Y-111557857D02*
X64828571Y-111700714D01*
X64828571Y-111700714D02*
X64876190Y-111891190D01*
X64876190Y-111891190D02*
X64876190Y-112272142D01*
X64876190Y-112272142D02*
X64828571Y-112367380D01*
X64828571Y-112367380D02*
X64780952Y-112415000D01*
X64780952Y-112415000D02*
X64685714Y-112462619D01*
X64685714Y-112462619D02*
X64495238Y-112462619D01*
X64495238Y-112462619D02*
X64400000Y-112415000D01*
X64400000Y-112415000D02*
X64352381Y-112367380D01*
X64352381Y-112367380D02*
X64304762Y-112272142D01*
X64304762Y-112272142D02*
X64304762Y-112034047D01*
X64304762Y-112034047D02*
X64352381Y-111938809D01*
X64352381Y-111938809D02*
X64400000Y-111891190D01*
X64400000Y-111891190D02*
X64495238Y-111843571D01*
X64495238Y-111843571D02*
X64685714Y-111843571D01*
X64685714Y-111843571D02*
X64780952Y-111891190D01*
X64780952Y-111891190D02*
X64828571Y-111938809D01*
X64828571Y-111938809D02*
X64876190Y-112034047D01*
X64019047Y-111462619D02*
X63685714Y-112462619D01*
X63685714Y-112462619D02*
X63352381Y-111462619D01*
X62257142Y-112081666D02*
X61495238Y-112081666D01*
X60304761Y-111557857D02*
X60257142Y-111510238D01*
X60257142Y-111510238D02*
X60161904Y-111462619D01*
X60161904Y-111462619D02*
X59923809Y-111462619D01*
X59923809Y-111462619D02*
X59828571Y-111510238D01*
X59828571Y-111510238D02*
X59780952Y-111557857D01*
X59780952Y-111557857D02*
X59733333Y-111653095D01*
X59733333Y-111653095D02*
X59733333Y-111748333D01*
X59733333Y-111748333D02*
X59780952Y-111891190D01*
X59780952Y-111891190D02*
X60352380Y-112462619D01*
X60352380Y-112462619D02*
X59733333Y-112462619D01*
X58876190Y-111462619D02*
X59066666Y-111462619D01*
X59066666Y-111462619D02*
X59161904Y-111510238D01*
X59161904Y-111510238D02*
X59209523Y-111557857D01*
X59209523Y-111557857D02*
X59304761Y-111700714D01*
X59304761Y-111700714D02*
X59352380Y-111891190D01*
X59352380Y-111891190D02*
X59352380Y-112272142D01*
X59352380Y-112272142D02*
X59304761Y-112367380D01*
X59304761Y-112367380D02*
X59257142Y-112415000D01*
X59257142Y-112415000D02*
X59161904Y-112462619D01*
X59161904Y-112462619D02*
X58971428Y-112462619D01*
X58971428Y-112462619D02*
X58876190Y-112415000D01*
X58876190Y-112415000D02*
X58828571Y-112367380D01*
X58828571Y-112367380D02*
X58780952Y-112272142D01*
X58780952Y-112272142D02*
X58780952Y-112034047D01*
X58780952Y-112034047D02*
X58828571Y-111938809D01*
X58828571Y-111938809D02*
X58876190Y-111891190D01*
X58876190Y-111891190D02*
X58971428Y-111843571D01*
X58971428Y-111843571D02*
X59161904Y-111843571D01*
X59161904Y-111843571D02*
X59257142Y-111891190D01*
X59257142Y-111891190D02*
X59304761Y-111938809D01*
X59304761Y-111938809D02*
X59352380Y-112034047D01*
X58495237Y-111462619D02*
X58161904Y-112462619D01*
X58161904Y-112462619D02*
X57828571Y-111462619D01*
X100374761Y-61465714D02*
X100422380Y-61560952D01*
X100422380Y-61560952D02*
X100422380Y-61703809D01*
X100422380Y-61703809D02*
X100374761Y-61846666D01*
X100374761Y-61846666D02*
X100279523Y-61941904D01*
X100279523Y-61941904D02*
X100184285Y-61989523D01*
X100184285Y-61989523D02*
X99993809Y-62037142D01*
X99993809Y-62037142D02*
X99850952Y-62037142D01*
X99850952Y-62037142D02*
X99660476Y-61989523D01*
X99660476Y-61989523D02*
X99565238Y-61941904D01*
X99565238Y-61941904D02*
X99470000Y-61846666D01*
X99470000Y-61846666D02*
X99422380Y-61703809D01*
X99422380Y-61703809D02*
X99422380Y-61608571D01*
X99422380Y-61608571D02*
X99470000Y-61465714D01*
X99470000Y-61465714D02*
X99517619Y-61418095D01*
X99517619Y-61418095D02*
X99850952Y-61418095D01*
X99850952Y-61418095D02*
X99850952Y-61608571D01*
X99422380Y-60989523D02*
X100422380Y-60989523D01*
X100422380Y-60989523D02*
X99422380Y-60418095D01*
X99422380Y-60418095D02*
X100422380Y-60418095D01*
X99422380Y-59941904D02*
X100422380Y-59941904D01*
X100422380Y-59941904D02*
X100422380Y-59703809D01*
X100422380Y-59703809D02*
X100374761Y-59560952D01*
X100374761Y-59560952D02*
X100279523Y-59465714D01*
X100279523Y-59465714D02*
X100184285Y-59418095D01*
X100184285Y-59418095D02*
X99993809Y-59370476D01*
X99993809Y-59370476D02*
X99850952Y-59370476D01*
X99850952Y-59370476D02*
X99660476Y-59418095D01*
X99660476Y-59418095D02*
X99565238Y-59465714D01*
X99565238Y-59465714D02*
X99470000Y-59560952D01*
X99470000Y-59560952D02*
X99422380Y-59703809D01*
X99422380Y-59703809D02*
X99422380Y-59941904D01*
X97802380Y-61227618D02*
X98802380Y-61227618D01*
X97802380Y-60751428D02*
X98802380Y-60751428D01*
X98802380Y-60751428D02*
X97802380Y-60180000D01*
X97802380Y-60180000D02*
X98802380Y-60180000D01*
X98802380Y-59846666D02*
X98802380Y-59275238D01*
X97802380Y-59560952D02*
X98802380Y-59560952D01*
X96230000Y-61799047D02*
X96182380Y-61656190D01*
X96182380Y-61656190D02*
X96182380Y-61418095D01*
X96182380Y-61418095D02*
X96230000Y-61322857D01*
X96230000Y-61322857D02*
X96277619Y-61275238D01*
X96277619Y-61275238D02*
X96372857Y-61227619D01*
X96372857Y-61227619D02*
X96468095Y-61227619D01*
X96468095Y-61227619D02*
X96563333Y-61275238D01*
X96563333Y-61275238D02*
X96610952Y-61322857D01*
X96610952Y-61322857D02*
X96658571Y-61418095D01*
X96658571Y-61418095D02*
X96706190Y-61608571D01*
X96706190Y-61608571D02*
X96753809Y-61703809D01*
X96753809Y-61703809D02*
X96801428Y-61751428D01*
X96801428Y-61751428D02*
X96896666Y-61799047D01*
X96896666Y-61799047D02*
X96991904Y-61799047D01*
X96991904Y-61799047D02*
X97087142Y-61751428D01*
X97087142Y-61751428D02*
X97134761Y-61703809D01*
X97134761Y-61703809D02*
X97182380Y-61608571D01*
X97182380Y-61608571D02*
X97182380Y-61370476D01*
X97182380Y-61370476D02*
X97134761Y-61227619D01*
X96182380Y-60799047D02*
X97182380Y-60799047D01*
X97182380Y-60799047D02*
X97182380Y-60560952D01*
X97182380Y-60560952D02*
X97134761Y-60418095D01*
X97134761Y-60418095D02*
X97039523Y-60322857D01*
X97039523Y-60322857D02*
X96944285Y-60275238D01*
X96944285Y-60275238D02*
X96753809Y-60227619D01*
X96753809Y-60227619D02*
X96610952Y-60227619D01*
X96610952Y-60227619D02*
X96420476Y-60275238D01*
X96420476Y-60275238D02*
X96325238Y-60322857D01*
X96325238Y-60322857D02*
X96230000Y-60418095D01*
X96230000Y-60418095D02*
X96182380Y-60560952D01*
X96182380Y-60560952D02*
X96182380Y-60799047D01*
X96468095Y-59846666D02*
X96468095Y-59370476D01*
X96182380Y-59941904D02*
X97182380Y-59608571D01*
X97182380Y-59608571D02*
X96182380Y-59275238D01*
X94610000Y-61751428D02*
X94562380Y-61608571D01*
X94562380Y-61608571D02*
X94562380Y-61370476D01*
X94562380Y-61370476D02*
X94610000Y-61275238D01*
X94610000Y-61275238D02*
X94657619Y-61227619D01*
X94657619Y-61227619D02*
X94752857Y-61180000D01*
X94752857Y-61180000D02*
X94848095Y-61180000D01*
X94848095Y-61180000D02*
X94943333Y-61227619D01*
X94943333Y-61227619D02*
X94990952Y-61275238D01*
X94990952Y-61275238D02*
X95038571Y-61370476D01*
X95038571Y-61370476D02*
X95086190Y-61560952D01*
X95086190Y-61560952D02*
X95133809Y-61656190D01*
X95133809Y-61656190D02*
X95181428Y-61703809D01*
X95181428Y-61703809D02*
X95276666Y-61751428D01*
X95276666Y-61751428D02*
X95371904Y-61751428D01*
X95371904Y-61751428D02*
X95467142Y-61703809D01*
X95467142Y-61703809D02*
X95514761Y-61656190D01*
X95514761Y-61656190D02*
X95562380Y-61560952D01*
X95562380Y-61560952D02*
X95562380Y-61322857D01*
X95562380Y-61322857D02*
X95514761Y-61180000D01*
X94657619Y-60180000D02*
X94610000Y-60227619D01*
X94610000Y-60227619D02*
X94562380Y-60370476D01*
X94562380Y-60370476D02*
X94562380Y-60465714D01*
X94562380Y-60465714D02*
X94610000Y-60608571D01*
X94610000Y-60608571D02*
X94705238Y-60703809D01*
X94705238Y-60703809D02*
X94800476Y-60751428D01*
X94800476Y-60751428D02*
X94990952Y-60799047D01*
X94990952Y-60799047D02*
X95133809Y-60799047D01*
X95133809Y-60799047D02*
X95324285Y-60751428D01*
X95324285Y-60751428D02*
X95419523Y-60703809D01*
X95419523Y-60703809D02*
X95514761Y-60608571D01*
X95514761Y-60608571D02*
X95562380Y-60465714D01*
X95562380Y-60465714D02*
X95562380Y-60370476D01*
X95562380Y-60370476D02*
X95514761Y-60227619D01*
X95514761Y-60227619D02*
X95467142Y-60180000D01*
X94562380Y-59275238D02*
X94562380Y-59751428D01*
X94562380Y-59751428D02*
X95562380Y-59751428D01*
X93942380Y-61799047D02*
X93942380Y-61180000D01*
X93942380Y-61180000D02*
X93561428Y-61513333D01*
X93561428Y-61513333D02*
X93561428Y-61370476D01*
X93561428Y-61370476D02*
X93513809Y-61275238D01*
X93513809Y-61275238D02*
X93466190Y-61227619D01*
X93466190Y-61227619D02*
X93370952Y-61180000D01*
X93370952Y-61180000D02*
X93132857Y-61180000D01*
X93132857Y-61180000D02*
X93037619Y-61227619D01*
X93037619Y-61227619D02*
X92990000Y-61275238D01*
X92990000Y-61275238D02*
X92942380Y-61370476D01*
X92942380Y-61370476D02*
X92942380Y-61656190D01*
X92942380Y-61656190D02*
X92990000Y-61751428D01*
X92990000Y-61751428D02*
X93037619Y-61799047D01*
X93942380Y-60894285D02*
X92942380Y-60560952D01*
X92942380Y-60560952D02*
X93942380Y-60227619D01*
X93942380Y-59989523D02*
X93942380Y-59370476D01*
X93942380Y-59370476D02*
X93561428Y-59703809D01*
X93561428Y-59703809D02*
X93561428Y-59560952D01*
X93561428Y-59560952D02*
X93513809Y-59465714D01*
X93513809Y-59465714D02*
X93466190Y-59418095D01*
X93466190Y-59418095D02*
X93370952Y-59370476D01*
X93370952Y-59370476D02*
X93132857Y-59370476D01*
X93132857Y-59370476D02*
X93037619Y-59418095D01*
X93037619Y-59418095D02*
X92990000Y-59465714D01*
X92990000Y-59465714D02*
X92942380Y-59560952D01*
X92942380Y-59560952D02*
X92942380Y-59846666D01*
X92942380Y-59846666D02*
X92990000Y-59941904D01*
X92990000Y-59941904D02*
X93037619Y-59989523D01*
X53323214Y-77180238D02*
X53418452Y-77132619D01*
X53418452Y-77132619D02*
X53561309Y-77132619D01*
X53561309Y-77132619D02*
X53704166Y-77180238D01*
X53704166Y-77180238D02*
X53799404Y-77275476D01*
X53799404Y-77275476D02*
X53847023Y-77370714D01*
X53847023Y-77370714D02*
X53894642Y-77561190D01*
X53894642Y-77561190D02*
X53894642Y-77704047D01*
X53894642Y-77704047D02*
X53847023Y-77894523D01*
X53847023Y-77894523D02*
X53799404Y-77989761D01*
X53799404Y-77989761D02*
X53704166Y-78085000D01*
X53704166Y-78085000D02*
X53561309Y-78132619D01*
X53561309Y-78132619D02*
X53466071Y-78132619D01*
X53466071Y-78132619D02*
X53323214Y-78085000D01*
X53323214Y-78085000D02*
X53275595Y-78037380D01*
X53275595Y-78037380D02*
X53275595Y-77704047D01*
X53275595Y-77704047D02*
X53466071Y-77704047D01*
X52847023Y-78132619D02*
X52847023Y-77132619D01*
X52847023Y-77132619D02*
X52275595Y-78132619D01*
X52275595Y-78132619D02*
X52275595Y-77132619D01*
X51799404Y-78132619D02*
X51799404Y-77132619D01*
X51799404Y-77132619D02*
X51561309Y-77132619D01*
X51561309Y-77132619D02*
X51418452Y-77180238D01*
X51418452Y-77180238D02*
X51323214Y-77275476D01*
X51323214Y-77275476D02*
X51275595Y-77370714D01*
X51275595Y-77370714D02*
X51227976Y-77561190D01*
X51227976Y-77561190D02*
X51227976Y-77704047D01*
X51227976Y-77704047D02*
X51275595Y-77894523D01*
X51275595Y-77894523D02*
X51323214Y-77989761D01*
X51323214Y-77989761D02*
X51418452Y-78085000D01*
X51418452Y-78085000D02*
X51561309Y-78132619D01*
X51561309Y-78132619D02*
X51799404Y-78132619D01*
X52132738Y-78752619D02*
X52608928Y-78752619D01*
X52608928Y-78752619D02*
X52656547Y-79228809D01*
X52656547Y-79228809D02*
X52608928Y-79181190D01*
X52608928Y-79181190D02*
X52513690Y-79133571D01*
X52513690Y-79133571D02*
X52275595Y-79133571D01*
X52275595Y-79133571D02*
X52180357Y-79181190D01*
X52180357Y-79181190D02*
X52132738Y-79228809D01*
X52132738Y-79228809D02*
X52085119Y-79324047D01*
X52085119Y-79324047D02*
X52085119Y-79562142D01*
X52085119Y-79562142D02*
X52132738Y-79657380D01*
X52132738Y-79657380D02*
X52180357Y-79705000D01*
X52180357Y-79705000D02*
X52275595Y-79752619D01*
X52275595Y-79752619D02*
X52513690Y-79752619D01*
X52513690Y-79752619D02*
X52608928Y-79705000D01*
X52608928Y-79705000D02*
X52656547Y-79657380D01*
X51799404Y-78752619D02*
X51466071Y-79752619D01*
X51466071Y-79752619D02*
X51132738Y-78752619D01*
X52769047Y-83907619D02*
X52197619Y-83907619D01*
X52483333Y-84907619D02*
X52483333Y-83907619D01*
X51959523Y-83907619D02*
X51292857Y-84907619D01*
X51292857Y-83907619D02*
X51959523Y-84907619D01*
X52292857Y-86527619D02*
X52626190Y-86051428D01*
X52864285Y-86527619D02*
X52864285Y-85527619D01*
X52864285Y-85527619D02*
X52483333Y-85527619D01*
X52483333Y-85527619D02*
X52388095Y-85575238D01*
X52388095Y-85575238D02*
X52340476Y-85622857D01*
X52340476Y-85622857D02*
X52292857Y-85718095D01*
X52292857Y-85718095D02*
X52292857Y-85860952D01*
X52292857Y-85860952D02*
X52340476Y-85956190D01*
X52340476Y-85956190D02*
X52388095Y-86003809D01*
X52388095Y-86003809D02*
X52483333Y-86051428D01*
X52483333Y-86051428D02*
X52864285Y-86051428D01*
X51959523Y-85527619D02*
X51292857Y-86527619D01*
X51292857Y-85527619D02*
X51959523Y-86527619D01*
X53197618Y-88147619D02*
X53197618Y-87147619D01*
X52721428Y-88147619D02*
X52721428Y-87147619D01*
X52721428Y-87147619D02*
X52150000Y-88147619D01*
X52150000Y-88147619D02*
X52150000Y-87147619D01*
X51816666Y-87147619D02*
X51245238Y-87147619D01*
X51530952Y-88147619D02*
X51530952Y-87147619D01*
X52245238Y-88767619D02*
X52721428Y-88767619D01*
X52721428Y-88767619D02*
X52769047Y-89243809D01*
X52769047Y-89243809D02*
X52721428Y-89196190D01*
X52721428Y-89196190D02*
X52626190Y-89148571D01*
X52626190Y-89148571D02*
X52388095Y-89148571D01*
X52388095Y-89148571D02*
X52292857Y-89196190D01*
X52292857Y-89196190D02*
X52245238Y-89243809D01*
X52245238Y-89243809D02*
X52197619Y-89339047D01*
X52197619Y-89339047D02*
X52197619Y-89577142D01*
X52197619Y-89577142D02*
X52245238Y-89672380D01*
X52245238Y-89672380D02*
X52292857Y-89720000D01*
X52292857Y-89720000D02*
X52388095Y-89767619D01*
X52388095Y-89767619D02*
X52626190Y-89767619D01*
X52626190Y-89767619D02*
X52721428Y-89720000D01*
X52721428Y-89720000D02*
X52769047Y-89672380D01*
X51911904Y-88767619D02*
X51578571Y-89767619D01*
X51578571Y-89767619D02*
X51245238Y-88767619D01*
X52245238Y-90387619D02*
X52721428Y-90387619D01*
X52721428Y-90387619D02*
X52769047Y-90863809D01*
X52769047Y-90863809D02*
X52721428Y-90816190D01*
X52721428Y-90816190D02*
X52626190Y-90768571D01*
X52626190Y-90768571D02*
X52388095Y-90768571D01*
X52388095Y-90768571D02*
X52292857Y-90816190D01*
X52292857Y-90816190D02*
X52245238Y-90863809D01*
X52245238Y-90863809D02*
X52197619Y-90959047D01*
X52197619Y-90959047D02*
X52197619Y-91197142D01*
X52197619Y-91197142D02*
X52245238Y-91292380D01*
X52245238Y-91292380D02*
X52292857Y-91340000D01*
X52292857Y-91340000D02*
X52388095Y-91387619D01*
X52388095Y-91387619D02*
X52626190Y-91387619D01*
X52626190Y-91387619D02*
X52721428Y-91340000D01*
X52721428Y-91340000D02*
X52769047Y-91292380D01*
X51911904Y-90387619D02*
X51578571Y-91387619D01*
X51578571Y-91387619D02*
X51245238Y-90387619D01*
X53435714Y-92055238D02*
X53530952Y-92007619D01*
X53530952Y-92007619D02*
X53673809Y-92007619D01*
X53673809Y-92007619D02*
X53816666Y-92055238D01*
X53816666Y-92055238D02*
X53911904Y-92150476D01*
X53911904Y-92150476D02*
X53959523Y-92245714D01*
X53959523Y-92245714D02*
X54007142Y-92436190D01*
X54007142Y-92436190D02*
X54007142Y-92579047D01*
X54007142Y-92579047D02*
X53959523Y-92769523D01*
X53959523Y-92769523D02*
X53911904Y-92864761D01*
X53911904Y-92864761D02*
X53816666Y-92960000D01*
X53816666Y-92960000D02*
X53673809Y-93007619D01*
X53673809Y-93007619D02*
X53578571Y-93007619D01*
X53578571Y-93007619D02*
X53435714Y-92960000D01*
X53435714Y-92960000D02*
X53388095Y-92912380D01*
X53388095Y-92912380D02*
X53388095Y-92579047D01*
X53388095Y-92579047D02*
X53578571Y-92579047D01*
X52959523Y-93007619D02*
X52959523Y-92007619D01*
X52959523Y-92007619D02*
X52388095Y-93007619D01*
X52388095Y-93007619D02*
X52388095Y-92007619D01*
X51911904Y-93007619D02*
X51911904Y-92007619D01*
X51911904Y-92007619D02*
X51673809Y-92007619D01*
X51673809Y-92007619D02*
X51530952Y-92055238D01*
X51530952Y-92055238D02*
X51435714Y-92150476D01*
X51435714Y-92150476D02*
X51388095Y-92245714D01*
X51388095Y-92245714D02*
X51340476Y-92436190D01*
X51340476Y-92436190D02*
X51340476Y-92579047D01*
X51340476Y-92579047D02*
X51388095Y-92769523D01*
X51388095Y-92769523D02*
X51435714Y-92864761D01*
X51435714Y-92864761D02*
X51530952Y-92960000D01*
X51530952Y-92960000D02*
X51673809Y-93007619D01*
X51673809Y-93007619D02*
X51911904Y-93007619D01*
X53435714Y-93675238D02*
X53530952Y-93627619D01*
X53530952Y-93627619D02*
X53673809Y-93627619D01*
X53673809Y-93627619D02*
X53816666Y-93675238D01*
X53816666Y-93675238D02*
X53911904Y-93770476D01*
X53911904Y-93770476D02*
X53959523Y-93865714D01*
X53959523Y-93865714D02*
X54007142Y-94056190D01*
X54007142Y-94056190D02*
X54007142Y-94199047D01*
X54007142Y-94199047D02*
X53959523Y-94389523D01*
X53959523Y-94389523D02*
X53911904Y-94484761D01*
X53911904Y-94484761D02*
X53816666Y-94580000D01*
X53816666Y-94580000D02*
X53673809Y-94627619D01*
X53673809Y-94627619D02*
X53578571Y-94627619D01*
X53578571Y-94627619D02*
X53435714Y-94580000D01*
X53435714Y-94580000D02*
X53388095Y-94532380D01*
X53388095Y-94532380D02*
X53388095Y-94199047D01*
X53388095Y-94199047D02*
X53578571Y-94199047D01*
X52959523Y-94627619D02*
X52959523Y-93627619D01*
X52959523Y-93627619D02*
X52388095Y-94627619D01*
X52388095Y-94627619D02*
X52388095Y-93627619D01*
X51911904Y-94627619D02*
X51911904Y-93627619D01*
X51911904Y-93627619D02*
X51673809Y-93627619D01*
X51673809Y-93627619D02*
X51530952Y-93675238D01*
X51530952Y-93675238D02*
X51435714Y-93770476D01*
X51435714Y-93770476D02*
X51388095Y-93865714D01*
X51388095Y-93865714D02*
X51340476Y-94056190D01*
X51340476Y-94056190D02*
X51340476Y-94199047D01*
X51340476Y-94199047D02*
X51388095Y-94389523D01*
X51388095Y-94389523D02*
X51435714Y-94484761D01*
X51435714Y-94484761D02*
X51530952Y-94580000D01*
X51530952Y-94580000D02*
X51673809Y-94627619D01*
X51673809Y-94627619D02*
X51911904Y-94627619D01*
M02*
